<?xml version="1.0" encoding="us-ascii" standalone="no"?><svg xmlns="http://www.w3.org/2000/svg" xmlns:xlink="http://www.w3.org/1999/xlink" contentStyleType="text/css" height="758px" preserveAspectRatio="none" style="width:505px;height:758px;background:#FFFFFF;" version="1.1" viewBox="0 0 505 758" width="505px" zoomAndPan="magnify"><defs/><g><!--cluster Libro--><g id="cluster_Libro"><path d="M8.5,6.602 L45.5,6.602 A3.75,3.75 0 0 1 48,9.102 L55,31.6699 L495.5,31.6699 A2.5,2.5 0 0 1 498,34.1699 L498,749.102 A2.5,2.5 0 0 1 495.5,751.602 L8.5,751.602 A2.5,2.5 0 0 1 6,749.102 L6,9.102 A2.5,2.5 0 0 1 8.5,6.602 " fill="none" style="stroke:#000000;stroke-width:1.5;"/><line style="stroke:#000000;stroke-width:1.5;" x1="6" x2="55" y1="31.6699" y2="31.6699"/><text fill="#000000" font-family="sans-serif" font-size="14" font-weight="bold" lengthAdjust="spacing" textLength="36" x="10" y="23.5679">Libro</text></g><!--cluster Hoja--><g id="cluster_Hoja"><path d="M32.5,52.602 L65.5,52.602 A3.75,3.75 0 0 1 68,55.102 L75,77.6699 L471.5,77.6699 A2.5,2.5 0 0 1 474,80.1699 L474,725.102 A2.5,2.5 0 0 1 471.5,727.602 L32.5,727.602 A2.5,2.5 0 0 1 30,725.102 L30,55.102 A2.5,2.5 0 0 1 32.5,52.602 " fill="none" style="stroke:#000000;stroke-width:1.5;"/><line style="stroke:#000000;stroke-width:1.5;" x1="30" x2="75" y1="77.6699" y2="77.6699"/><text fill="#000000" font-family="sans-serif" font-size="14" font-weight="bold" lengthAdjust="spacing" textLength="32" x="34" y="69.5679">Hoja</text></g><!--class Comportamiento--><g id="elem_Comportamiento"><rect codeLine="7" fill="#F1F1F1" height="48" id="Comportamiento" rx="2.5" ry="2.5" style="stroke:#181818;stroke-width:0.5;" width="139" x="318.5" y="90.602"/><ellipse cx="333.5" cy="106.602" fill="#B4A7E5" rx="11" ry="11" style="stroke:#181818;stroke-width:1.0;"/><path d="M329.5313,113.102 L329.5313,111.3989 L331.8906,111.1332 L331.8906,102.9301 L329.5313,102.6645 L329.5313,100.9614 L336.6719,100.9614 L336.6719,102.6645 L334.25,102.9301 L334.25,111.1332 L336.6719,111.3989 L336.6719,113.102 L329.5313,113.102 Z " fill="#000000"/><text fill="#000000" font-family="sans-serif" font-size="14" font-style="italic" lengthAdjust="spacing" textLength="107" x="347.5" y="112.034">Comportamiento</text><line style="stroke:#181818;stroke-width:0.5;" x1="319.5" x2="456.5" y1="122.602" y2="122.602"/><line style="stroke:#181818;stroke-width:0.5;" x1="319.5" x2="456.5" y1="130.602" y2="130.602"/></g><!--class Rango--><g id="elem_Rango"><rect fill="#F1F1F1" height="48" id="Rango" rx="2.5" ry="2.5" style="stroke:#181818;stroke-width:0.5;" width="75" x="63.5" y="428.602"/><ellipse cx="78.5" cy="444.602" fill="#ADD1B2" rx="11" ry="11" style="stroke:#181818;stroke-width:1.0;"/><path d="M77.9688,451.5239 Q76.2188,451.5239 75.0781,450.7895 Q73.9531,450.0395 73.3906,448.6957 Q72.8438,447.3364 72.8438,445.5395 Q72.8438,443.5082 73.5,442.0551 Q74.1563,440.602 75.4375,439.8207 Q76.7188,439.0395 78.5938,439.0395 Q79.4844,439.0395 80.1563,439.227 Q80.8281,439.3989 81.5156,439.7426 L80.7031,441.7582 Q80.0781,441.4457 79.5313,441.3207 Q79,441.1957 78.5156,441.1957 Q77.3438,441.1957 76.6406,441.727 Q75.9375,442.2582 75.6406,443.2114 Q75.3438,444.1645 75.3438,445.4301 Q75.3438,447.4457 76.0625,448.4145 Q76.7813,449.3676 78.375,449.3676 Q78.9688,449.3676 79.5938,449.2114 Q80.2188,449.0551 81.0469,448.6801 L81.0469,450.8989 Q80.3125,451.2114 79.5156,451.3676 Q78.7344,451.5239 77.9688,451.5239 Z " fill="#000000"/><text fill="#000000" font-family="sans-serif" font-size="14" lengthAdjust="spacing" textLength="43" x="92.5" y="450.034">Rango</text><line style="stroke:#181818;stroke-width:0.5;" x1="64.5" x2="137.5" y1="460.602" y2="460.602"/><line style="stroke:#181818;stroke-width:0.5;" x1="64.5" x2="137.5" y1="468.602" y2="468.602"/></g><!--class Celda--><g id="elem_Celda"><rect codeLine="24" fill="#F1F1F1" height="67.0679" id="Celda" rx="2.5" ry="2.5" style="stroke:#181818;stroke-width:0.5;" width="74" x="49" y="644.602"/><ellipse cx="66.25" cy="660.602" fill="#ADD1B2" rx="11" ry="11" style="stroke:#181818;stroke-width:1.0;"/><path d="M65.7188,667.5239 Q63.9688,667.5239 62.8281,666.7895 Q61.7031,666.0395 61.1406,664.6957 Q60.5938,663.3364 60.5938,661.5395 Q60.5938,659.5082 61.25,658.0551 Q61.9063,656.602 63.1875,655.8207 Q64.4688,655.0395 66.3438,655.0395 Q67.2344,655.0395 67.9063,655.227 Q68.5781,655.3989 69.2656,655.7426 L68.4531,657.7582 Q67.8281,657.4457 67.2813,657.3207 Q66.75,657.1957 66.2656,657.1957 Q65.0938,657.1957 64.3906,657.727 Q63.6875,658.2582 63.3906,659.2114 Q63.0938,660.1645 63.0938,661.4301 Q63.0938,663.4457 63.8125,664.4145 Q64.5313,665.3676 66.125,665.3676 Q66.7188,665.3676 67.3438,665.2114 Q67.9688,665.0551 68.7969,664.6801 L68.7969,666.8989 Q68.0625,667.2114 67.2656,667.3676 Q66.4844,667.5239 65.7188,667.5239 Z " fill="#000000"/><text fill="#000000" font-family="sans-serif" font-size="14" font-style="italic" font-weight="bold" lengthAdjust="spacing" textLength="37" x="80.75" y="666.034">Celda</text><line style="stroke:#181818;stroke-width:0.5;" x1="50" x2="122" y1="676.602" y2="676.602"/><text fill="#000000" font-family="sans-serif" font-size="14" lengthAdjust="spacing" textLength="62" x="55" y="695.5679">direcci&#243;n</text><line style="stroke:#181818;stroke-width:0.5;" x1="50" x2="122" y1="703.6699" y2="703.6699"/></g><!--class Vector--><g id="elem_Vector"><rect fill="#F1F1F1" height="48" id="Vector" rx="2.5" ry="2.5" style="stroke:#181818;stroke-width:0.5;" width="74" x="174" y="428.602"/><ellipse cx="189" cy="444.602" fill="#ADD1B2" rx="11" ry="11" style="stroke:#181818;stroke-width:1.0;"/><path d="M188.4688,451.5239 Q186.7188,451.5239 185.5781,450.7895 Q184.4531,450.0395 183.8906,448.6957 Q183.3438,447.3364 183.3438,445.5395 Q183.3438,443.5082 184,442.0551 Q184.6563,440.602 185.9375,439.8207 Q187.2188,439.0395 189.0938,439.0395 Q189.9844,439.0395 190.6563,439.227 Q191.3281,439.3989 192.0156,439.7426 L191.2031,441.7582 Q190.5781,441.4457 190.0313,441.3207 Q189.5,441.1957 189.0156,441.1957 Q187.8438,441.1957 187.1406,441.727 Q186.4375,442.2582 186.1406,443.2114 Q185.8438,444.1645 185.8438,445.4301 Q185.8438,447.4457 186.5625,448.4145 Q187.2813,449.3676 188.875,449.3676 Q189.4688,449.3676 190.0938,449.2114 Q190.7188,449.0551 191.5469,448.6801 L191.5469,450.8989 Q190.8125,451.2114 190.0156,451.3676 Q189.2344,451.5239 188.4688,451.5239 Z " fill="#000000"/><text fill="#000000" font-family="sans-serif" font-size="14" lengthAdjust="spacing" textLength="42" x="203" y="450.034">Vector</text><line style="stroke:#181818;stroke-width:0.5;" x1="175" x2="247" y1="460.602" y2="460.602"/><line style="stroke:#181818;stroke-width:0.5;" x1="175" x2="247" y1="468.602" y2="468.602"/></g><!--class Fila--><g id="elem_Fila"><rect fill="#F1F1F1" height="48" id="Fila" rx="2.5" ry="2.5" style="stroke:#181818;stroke-width:0.5;" width="55" x="181.5" y="536.602"/><ellipse cx="196.5" cy="552.602" fill="#ADD1B2" rx="11" ry="11" style="stroke:#181818;stroke-width:1.0;"/><path d="M195.9688,559.5239 Q194.2188,559.5239 193.0781,558.7895 Q191.9531,558.0395 191.3906,556.6957 Q190.8438,555.3364 190.8438,553.5395 Q190.8438,551.5082 191.5,550.0551 Q192.1563,548.602 193.4375,547.8207 Q194.7188,547.0395 196.5938,547.0395 Q197.4844,547.0395 198.1563,547.227 Q198.8281,547.3989 199.5156,547.7426 L198.7031,549.7582 Q198.0781,549.4457 197.5313,549.3207 Q197,549.1957 196.5156,549.1957 Q195.3438,549.1957 194.6406,549.727 Q193.9375,550.2582 193.6406,551.2114 Q193.3438,552.1645 193.3438,553.4301 Q193.3438,555.4457 194.0625,556.4145 Q194.7813,557.3676 196.375,557.3676 Q196.9688,557.3676 197.5938,557.2114 Q198.2188,557.0551 199.0469,556.6801 L199.0469,558.8989 Q198.3125,559.2114 197.5156,559.3676 Q196.7344,559.5239 195.9688,559.5239 Z " fill="#000000"/><text fill="#000000" font-family="sans-serif" font-size="14" lengthAdjust="spacing" textLength="23" x="210.5" y="558.034">Fila</text><line style="stroke:#181818;stroke-width:0.5;" x1="182.5" x2="235.5" y1="568.602" y2="568.602"/><line style="stroke:#181818;stroke-width:0.5;" x1="182.5" x2="235.5" y1="576.602" y2="576.602"/></g><!--class Columna--><g id="elem_Columna"><rect fill="#F1F1F1" height="48" id="Columna" rx="2.5" ry="2.5" style="stroke:#181818;stroke-width:0.5;" width="92" x="272" y="536.602"/><ellipse cx="287" cy="552.602" fill="#ADD1B2" rx="11" ry="11" style="stroke:#181818;stroke-width:1.0;"/><path d="M286.4688,559.5239 Q284.7188,559.5239 283.5781,558.7895 Q282.4531,558.0395 281.8906,556.6957 Q281.3438,555.3364 281.3438,553.5395 Q281.3438,551.5082 282,550.0551 Q282.6563,548.602 283.9375,547.8207 Q285.2188,547.0395 287.0938,547.0395 Q287.9844,547.0395 288.6563,547.227 Q289.3281,547.3989 290.0156,547.7426 L289.2031,549.7582 Q288.5781,549.4457 288.0313,549.3207 Q287.5,549.1957 287.0156,549.1957 Q285.8438,549.1957 285.1406,549.727 Q284.4375,550.2582 284.1406,551.2114 Q283.8438,552.1645 283.8438,553.4301 Q283.8438,555.4457 284.5625,556.4145 Q285.2813,557.3676 286.875,557.3676 Q287.4688,557.3676 288.0938,557.2114 Q288.7188,557.0551 289.5469,556.6801 L289.5469,558.8989 Q288.8125,559.2114 288.0156,559.3676 Q287.2344,559.5239 286.4688,559.5239 Z " fill="#000000"/><text fill="#000000" font-family="sans-serif" font-size="14" lengthAdjust="spacing" textLength="60" x="301" y="558.034">Columna</text><line style="stroke:#181818;stroke-width:0.5;" x1="273" x2="363" y1="568.602" y2="568.602"/><line style="stroke:#181818;stroke-width:0.5;" x1="273" x2="363" y1="576.602" y2="576.602"/></g><!--class TablaDin?mica--><g id="elem_TablaDin&#225;mica"><rect fill="#F1F1F1" height="48" id="TablaDin&#225;mica" rx="2.5" ry="2.5" style="stroke:#181818;stroke-width:0.5;" width="132" x="151" y="90.602"/><ellipse cx="166" cy="106.602" fill="#ADD1B2" rx="11" ry="11" style="stroke:#181818;stroke-width:1.0;"/><path d="M165.4688,113.5239 Q163.7188,113.5239 162.5781,112.7895 Q161.4531,112.0395 160.8906,110.6957 Q160.3438,109.3364 160.3438,107.5395 Q160.3438,105.5082 161,104.0551 Q161.6563,102.602 162.9375,101.8207 Q164.2188,101.0395 166.0938,101.0395 Q166.9844,101.0395 167.6563,101.227 Q168.3281,101.3989 169.0156,101.7426 L168.2031,103.7582 Q167.5781,103.4457 167.0313,103.3207 Q166.5,103.1957 166.0156,103.1957 Q164.8438,103.1957 164.1406,103.727 Q163.4375,104.2582 163.1406,105.2114 Q162.8438,106.1645 162.8438,107.4301 Q162.8438,109.4457 163.5625,110.4145 Q164.2813,111.3676 165.875,111.3676 Q166.4688,111.3676 167.0938,111.2114 Q167.7188,111.0551 168.5469,110.6801 L168.5469,112.8989 Q167.8125,113.2114 167.0156,113.3676 Q166.2344,113.5239 165.4688,113.5239 Z " fill="#000000"/><text fill="#000000" font-family="sans-serif" font-size="14" lengthAdjust="spacing" textLength="100" x="180" y="112.034">TablaDin&#225;mica</text><line style="stroke:#181818;stroke-width:0.5;" x1="152" x2="282" y1="122.602" y2="122.602"/><line style="stroke:#181818;stroke-width:0.5;" x1="152" x2="282" y1="130.602" y2="130.602"/></g><!--class Tabla--><g id="elem_Tabla"><rect fill="#F1F1F1" height="48" id="Tabla" rx="2.5" ry="2.5" style="stroke:#181818;stroke-width:0.5;" width="69" x="46.5" y="90.602"/><ellipse cx="61.5" cy="106.602" fill="#ADD1B2" rx="11" ry="11" style="stroke:#181818;stroke-width:1.0;"/><path d="M60.9688,113.5239 Q59.2188,113.5239 58.0781,112.7895 Q56.9531,112.0395 56.3906,110.6957 Q55.8438,109.3364 55.8438,107.5395 Q55.8438,105.5082 56.5,104.0551 Q57.1563,102.602 58.4375,101.8207 Q59.7188,101.0395 61.5938,101.0395 Q62.4844,101.0395 63.1563,101.227 Q63.8281,101.3989 64.5156,101.7426 L63.7031,103.7582 Q63.0781,103.4457 62.5313,103.3207 Q62,103.1957 61.5156,103.1957 Q60.3438,103.1957 59.6406,103.727 Q58.9375,104.2582 58.6406,105.2114 Q58.3438,106.1645 58.3438,107.4301 Q58.3438,109.4457 59.0625,110.4145 Q59.7813,111.3676 61.375,111.3676 Q61.9688,111.3676 62.5938,111.2114 Q63.2188,111.0551 64.0469,110.6801 L64.0469,112.8989 Q63.3125,113.2114 62.5156,113.3676 Q61.7344,113.5239 60.9688,113.5239 Z " fill="#000000"/><text fill="#000000" font-family="sans-serif" font-size="14" lengthAdjust="spacing" textLength="37" x="75.5" y="112.034">Tabla</text><line style="stroke:#181818;stroke-width:0.5;" x1="47.5" x2="114.5" y1="122.602" y2="122.602"/><line style="stroke:#181818;stroke-width:0.5;" x1="47.5" x2="114.5" y1="130.602" y2="130.602"/></g><!--class Gr?fico--><g id="elem_Gr&#225;fico"><rect fill="#F1F1F1" height="48" id="Gr&#225;fico" rx="2.5" ry="2.5" style="stroke:#181818;stroke-width:0.5;" width="80" x="117" y="259.602"/><ellipse cx="132" cy="275.602" fill="#ADD1B2" rx="11" ry="11" style="stroke:#181818;stroke-width:1.0;"/><path d="M131.4688,282.5239 Q129.7188,282.5239 128.5781,281.7895 Q127.4531,281.0395 126.8906,279.6957 Q126.3438,278.3364 126.3438,276.5395 Q126.3438,274.5082 127,273.0551 Q127.6563,271.602 128.9375,270.8207 Q130.2188,270.0395 132.0938,270.0395 Q132.9844,270.0395 133.6563,270.227 Q134.3281,270.3989 135.0156,270.7426 L134.2031,272.7582 Q133.5781,272.4457 133.0313,272.3207 Q132.5,272.1957 132.0156,272.1957 Q130.8438,272.1957 130.1406,272.727 Q129.4375,273.2582 129.1406,274.2114 Q128.8438,275.1645 128.8438,276.4301 Q128.8438,278.4457 129.5625,279.4145 Q130.2813,280.3676 131.875,280.3676 Q132.4688,280.3676 133.0938,280.2114 Q133.7188,280.0551 134.5469,279.6801 L134.5469,281.8989 Q133.8125,282.2114 133.0156,282.3676 Q132.2344,282.5239 131.4688,282.5239 Z " fill="#000000"/><text fill="#000000" font-family="sans-serif" font-size="14" lengthAdjust="spacing" textLength="48" x="146" y="281.034">Gr&#225;fico</text><line style="stroke:#181818;stroke-width:0.5;" x1="118" x2="196" y1="291.602" y2="291.602"/><line style="stroke:#181818;stroke-width:0.5;" x1="118" x2="196" y1="299.602" y2="299.602"/></g><!--class F?rmula--><g id="elem_F&#243;rmula"><rect fill="#F1F1F1" height="48" id="F&#243;rmula" rx="2.5" ry="2.5" style="stroke:#181818;stroke-width:0.5;" width="87" x="158.5" y="654.102"/><ellipse cx="173.5" cy="670.102" fill="#ADD1B2" rx="11" ry="11" style="stroke:#181818;stroke-width:1.0;"/><path d="M172.9688,677.0239 Q171.2188,677.0239 170.0781,676.2895 Q168.9531,675.5395 168.3906,674.1957 Q167.8438,672.8364 167.8438,671.0395 Q167.8438,669.0082 168.5,667.5551 Q169.1563,666.102 170.4375,665.3207 Q171.7188,664.5395 173.5938,664.5395 Q174.4844,664.5395 175.1563,664.727 Q175.8281,664.8989 176.5156,665.2426 L175.7031,667.2582 Q175.0781,666.9457 174.5313,666.8207 Q174,666.6957 173.5156,666.6957 Q172.3438,666.6957 171.6406,667.227 Q170.9375,667.7582 170.6406,668.7114 Q170.3438,669.6645 170.3438,670.9301 Q170.3438,672.9457 171.0625,673.9145 Q171.7813,674.8676 173.375,674.8676 Q173.9688,674.8676 174.5938,674.7114 Q175.2188,674.5551 176.0469,674.1801 L176.0469,676.3989 Q175.3125,676.7114 174.5156,676.8676 Q173.7344,677.0239 172.9688,677.0239 Z " fill="#000000"/><text fill="#000000" font-family="sans-serif" font-size="14" lengthAdjust="spacing" textLength="55" x="187.5" y="675.534">F&#243;rmula</text><line style="stroke:#181818;stroke-width:0.5;" x1="159.5" x2="244.5" y1="686.102" y2="686.102"/><line style="stroke:#181818;stroke-width:0.5;" x1="159.5" x2="244.5" y1="694.102" y2="694.102"/></g><!--class Funci?n--><g id="elem_Funci&#243;n"><rect fill="#F1F1F1" height="48" id="Funci&#243;n" rx="2.5" ry="2.5" style="stroke:#181818;stroke-width:0.5;" width="85" x="280.5" y="654.102"/><ellipse cx="295.5" cy="670.102" fill="#ADD1B2" rx="11" ry="11" style="stroke:#181818;stroke-width:1.0;"/><path d="M294.9688,677.0239 Q293.2188,677.0239 292.0781,676.2895 Q290.9531,675.5395 290.3906,674.1957 Q289.8438,672.8364 289.8438,671.0395 Q289.8438,669.0082 290.5,667.5551 Q291.1563,666.102 292.4375,665.3207 Q293.7188,664.5395 295.5938,664.5395 Q296.4844,664.5395 297.1563,664.727 Q297.8281,664.8989 298.5156,665.2426 L297.7031,667.2582 Q297.0781,666.9457 296.5313,666.8207 Q296,666.6957 295.5156,666.6957 Q294.3438,666.6957 293.6406,667.227 Q292.9375,667.7582 292.6406,668.7114 Q292.3438,669.6645 292.3438,670.9301 Q292.3438,672.9457 293.0625,673.9145 Q293.7813,674.8676 295.375,674.8676 Q295.9688,674.8676 296.5938,674.7114 Q297.2188,674.5551 298.0469,674.1801 L298.0469,676.3989 Q297.3125,676.7114 296.5156,676.8676 Q295.7344,677.0239 294.9688,677.0239 Z " fill="#000000"/><text fill="#000000" font-family="sans-serif" font-size="14" lengthAdjust="spacing" textLength="53" x="309.5" y="675.534">Funci&#243;n</text><line style="stroke:#181818;stroke-width:0.5;" x1="281.5" x2="364.5" y1="686.102" y2="686.102"/><line style="stroke:#181818;stroke-width:0.5;" x1="281.5" x2="364.5" y1="694.102" y2="694.102"/></g><!--reverse link Rango to Celda--><g id="link_Rango_Celda"><path codeLine="8" d="M98.6462,488.655 C95.9662,528.575 91.26,598.682 88.19,644.452 " fill="none" id="Rango-backto-Celda" style="stroke:#181818;stroke-width:1.0;"/><polygon fill="#181818" points="99.45,476.682,95.0571,482.4006,98.6462,488.655,103.0391,482.9364,99.45,476.682" style="stroke:#181818;stroke-width:1.0;"/></g><!--reverse link Rango to Vector--><g id="link_Rango_Vector"><path codeLine="9" d="M156.81,452.602 C168.47,452.602 162.12,452.602 173.78,452.602 " fill="none" id="Rango-backto-Vector" style="stroke:#181818;stroke-width:1.0;"/><polygon fill="none" points="138.81,452.602,156.81,458.602,156.81,446.602,138.81,452.602" style="stroke:#181818;stroke-width:1.0;"/></g><!--reverse link Vector to Fila--><g id="link_Vector_Fila"><path codeLine="10" d="M210.2235,494.5986 C209.8835,512.2586 209.77,518.542 209.44,536.282 " fill="none" id="Vector-backto-Fila" style="stroke:#181818;stroke-width:1.0;"/><polygon fill="none" points="210.57,476.602,204.2246,494.4832,216.2224,494.7141,210.57,476.602" style="stroke:#181818;stroke-width:1.0;"/></g><!--reverse link Vector to Columna--><g id="link_Vector_Columna"><path codeLine="11" d="M247.0052,489.2724 C264.8252,506.9324 276.55,518.542 294.46,536.282 " fill="none" id="Vector-backto-Columna" style="stroke:#181818;stroke-width:1.0;"/><polygon fill="none" points="234.22,476.602,242.7817,493.5341,251.2287,485.0106,234.22,476.602" style="stroke:#181818;stroke-width:1.0;"/></g><!--link Tabla to TablaDin?mica--><g id="link_Tabla_TablaDin&#225;mica"><path codeLine="12" d="M115.53,114.602 C127.29,114.602 127.05,114.602 138.81,114.602 " fill="none" id="Tabla-to-TablaDin&#225;mica" style="stroke:#181818;stroke-width:1.0;"/><polygon fill="#181818" points="150.81,114.602,144.81,110.602,138.81,114.602,144.81,118.602,150.81,114.602" style="stroke:#181818;stroke-width:1.0;"/></g><!--link TablaDin?mica to Comportamiento--><g id="link_TablaDin&#225;mica_Comportamiento"><path codeLine="13" d="M283.13,114.602 C294.87,114.602 288.62,114.602 300.36,114.602 " fill="none" id="TablaDin&#225;mica-to-Comportamiento" style="stroke:#181818;stroke-width:1.0;"/><polygon fill="none" points="318.36,114.602,300.36,108.602,300.36,120.602,318.36,114.602" style="stroke:#181818;stroke-width:1.0;"/></g><!--reverse link Tabla to Rango--><g id="link_Tabla_Rango"><path codeLine="14" d="M83.0842,150.6707 C86.7442,212.0607 95.95,366.782 99.62,428.342 " fill="none" id="Tabla-backto-Rango" style="stroke:#181818;stroke-width:1.0;"/><polygon fill="none" points="82.37,138.692,78.7342,144.9194,83.0842,150.6707,86.72,144.4433,82.37,138.692" style="stroke:#181818;stroke-width:1.0;"/></g><!--link Gr?fico to Rango--><g id="link_Gr&#225;fico_Rango"><path codeLine="15" d="M149.21,307.822 C138.51,339.732 121.2865,391.0829 110.6265,422.8929 " fill="none" id="Gr&#225;fico-to-Rango" style="stroke:#181818;stroke-width:1.0;stroke-dasharray:7.0,7.0;"/><polygon fill="#181818" points="108.72,428.582,115.3724,421.3194,110.3087,423.8411,107.787,418.7774,108.72,428.582" style="stroke:#181818;stroke-width:1.0;"/></g><!--reverse link Tabla to Gr?fico--><g id="link_Tabla_Gr&#225;fico"><path codeLine="16" d="M94.055,144.2832 C108.575,176.1932 132.05,227.772 146.52,259.582 " fill="none" id="Tabla-backto-Gr&#225;fico" style="stroke:#181818;stroke-width:1.0;stroke-dasharray:7.0,7.0;"/><polygon fill="#181818" points="91.57,138.822,91.6567,148.6705,93.6408,143.373,98.9383,145.3571,91.57,138.822" style="stroke:#181818;stroke-width:1.0;"/></g><!--reverse link TablaDin?mica to Gr?fico--><g id="link_TablaDin&#225;mica_Gr&#225;fico"><path codeLine="17" d="M206.6304,144.4683 C195.1604,176.3783 176.7,227.772 165.27,259.582 " fill="none" id="TablaDin&#225;mica-backto-Gr&#225;fico" style="stroke:#181818;stroke-width:1.0;stroke-dasharray:7.0,7.0;"/><polygon fill="#181818" points="208.66,138.822,201.8514,145.9384,206.9687,143.5272,209.3799,148.6445,208.66,138.822" style="stroke:#181818;stroke-width:1.0;"/></g><!--link Celda to F?rmula--><g id="link_Celda_F&#243;rmula"><path codeLine="19" d="M123.16,678.102 C134.86,678.102 146.56,678.102 158.27,678.102 " fill="none" id="Celda-F&#243;rmula" style="stroke:#181818;stroke-width:1.0;stroke-dasharray:7.0,7.0;"/></g><!--link Rango to F?rmula--><g id="link_Rango_F&#243;rmula"><path codeLine="20" d="M111.43,476.682 C130.78,519.502 172.05,610.832 191.48,653.812 " fill="none" id="Rango-F&#243;rmula" style="stroke:#181818;stroke-width:1.0;stroke-dasharray:7.0,7.0;"/></g><!--reverse link F?rmula to Funci?n--><g id="link_F&#243;rmula_Funci&#243;n"><path codeLine="21" d="M257.96,678.102 C269.39,678.102 268.83,678.102 280.27,678.102 " fill="none" id="F&#243;rmula-backto-Funci&#243;n" style="stroke:#181818;stroke-width:1.0;stroke-dasharray:7.0,7.0;"/><polygon fill="none" points="245.96,678.102,251.96,682.102,257.96,678.102,251.96,674.102,245.96,678.102" style="stroke:#181818;stroke-width:1.0;"/></g><!--SRC=[TP5DRi8m48NtESM83L8bcmj4tgIYNR2ggkudpa2dzK_a98iAE0ndu0YvM1EdE0N1B2pF-vxzHlRoaoi2idNx0vPiIQ79bb7J7BIXBAjHV-EEOCDbyFiiWw4ksgl_GjX7QInsBOKjQeB2szg75YsJQtqolA7RUNWIbH1GaAdmXkG74GHya6vzI6XgHoPWpGRlWiARphgPlMDfy9bTVxAiSOWKPd15zP5dY3weHvD7B_XXycdK15v2VzgozY2bL0-P6U5r-Wox1DCmoPKsyRb01YbXtP-3xSpjuydg3he8uELqjdEQ-xER0z9E6soQlnniO96poaiL-tnLgdp5Ql7liyUgE92-lk-OJUln5m00]--></g></svg>