<?xml version="1.0" encoding="us-ascii" standalone="no"?><svg xmlns="http://www.w3.org/2000/svg" xmlns:xlink="http://www.w3.org/1999/xlink" contentStyleType="text/css" height="753px" preserveAspectRatio="none" style="width:493px;height:753px;background:#FFFFFF;" version="1.1" viewBox="0 0 493 753" width="493px" zoomAndPan="magnify"><defs/><g><!--cluster Libro--><g id="cluster_Libro"><path d="M8.5,6 L45.5,6 A3.75,3.75 0 0 1 48,8.5 L55,29.6094 L483.5,29.6094 A2.5,2.5 0 0 1 486,32.1094 L486,743.5 A2.5,2.5 0 0 1 483.5,746 L8.5,746 A2.5,2.5 0 0 1 6,743.5 L6,8.5 A2.5,2.5 0 0 1 8.5,6 " fill="none" style="stroke:#000000;stroke-width:1.5;"/><line style="stroke:#000000;stroke-width:1.5;" x1="6" x2="55" y1="29.6094" y2="29.6094"/><text fill="#000000" font-family="sans-serif" font-size="14" font-weight="bold" lengthAdjust="spacing" textLength="36" x="10" y="22.5332">Libro</text></g><!--cluster Hoja--><g id="cluster_Hoja"><path d="M32.5,50 L64.5,50 A3.75,3.75 0 0 1 67,52.5 L74,73.6094 L459.5,73.6094 A2.5,2.5 0 0 1 462,76.1094 L462,719.5 A2.5,2.5 0 0 1 459.5,722 L32.5,722 A2.5,2.5 0 0 1 30,719.5 L30,52.5 A2.5,2.5 0 0 1 32.5,50 " fill="none" style="stroke:#000000;stroke-width:1.5;"/><line style="stroke:#000000;stroke-width:1.5;" x1="30" x2="74" y1="73.6094" y2="73.6094"/><text fill="#000000" font-family="sans-serif" font-size="14" font-weight="bold" lengthAdjust="spacing" textLength="31" x="34" y="66.5332">Hoja</text></g><!--class Comportamiento--><g id="elem_Comportamiento"><rect codeLine="7" fill="#F1F1F1" height="48" id="Comportamiento" rx="2.5" ry="2.5" style="stroke:#181818;stroke-width:0.5;" width="136" x="310" y="86"/><ellipse cx="325" cy="102" fill="#B4A7E5" rx="11" ry="11" style="stroke:#181818;stroke-width:1.0;"/><path d="M325.9531,98.6406 L325.9531,105.2969 L327.6719,105.2969 Q328.2813,105.2969 328.5469,105.5313 Q328.8125,105.7656 328.8125,106.1563 Q328.8125,106.5313 328.5469,106.7656 Q328.2813,107 327.6719,107 L322.5313,107 Q321.9219,107 321.6563,106.7656 Q321.3906,106.5313 321.3906,106.1406 Q321.3906,105.7656 321.6563,105.5313 Q321.9219,105.2969 322.5313,105.2969 L324.25,105.2969 L324.25,98.6406 L322.5313,98.6406 Q321.9219,98.6406 321.6563,98.4063 Q321.3906,98.1719 321.3906,97.7813 Q321.3906,97.4063 321.6563,97.1719 Q321.9219,96.9375 322.5313,96.9375 L327.6719,96.9375 Q328.2813,96.9375 328.5469,97.1719 Q328.8125,97.4063 328.8125,97.7813 Q328.8125,98.1719 328.5469,98.4063 Q328.2813,98.6406 327.6719,98.6406 L325.9531,98.6406 Z " fill="#000000"/><text fill="#000000" font-family="sans-serif" font-size="14" font-style="italic" lengthAdjust="spacing" textLength="104" x="339" y="107.7285">Comportamiento</text><line style="stroke:#181818;stroke-width:0.5;" x1="311" x2="445" y1="118" y2="118"/><line style="stroke:#181818;stroke-width:0.5;" x1="311" x2="445" y1="126" y2="126"/></g><!--class Rango--><g id="elem_Rango"><rect fill="#F1F1F1" height="48" id="Rango" rx="2.5" ry="2.5" style="stroke:#181818;stroke-width:0.5;" width="74" x="63" y="424"/><ellipse cx="78" cy="440" fill="#ADD1B2" rx="11" ry="11" style="stroke:#181818;stroke-width:1.0;"/><path d="M80.7656,435.875 Q80.9219,435.6563 81.1094,435.5469 Q81.2969,435.4375 81.5156,435.4375 Q81.8906,435.4375 82.125,435.7031 Q82.3594,435.9531 82.3594,436.5625 L82.3594,438.0156 Q82.3594,438.625 82.125,438.8906 Q81.8906,439.1563 81.5156,439.1563 Q81.1719,439.1563 80.9688,438.9531 Q80.7656,438.7656 80.6563,438.25 Q80.6094,437.8906 80.4219,437.7031 Q80.0938,437.3281 79.4844,437.1094 Q78.875,436.8906 78.25,436.8906 Q77.4844,436.8906 76.8438,437.2188 Q76.2188,437.5469 75.7188,438.2969 Q75.2344,439.0469 75.2344,440.0781 L75.2344,441.1719 Q75.2344,442.4063 76.125,443.2344 Q77.0156,444.0469 78.6094,444.0469 Q79.5469,444.0469 80.2031,443.7969 Q80.5938,443.6406 81.0156,443.2031 Q81.2813,442.9375 81.4219,442.8594 Q81.5781,442.7813 81.7813,442.7813 Q82.1094,442.7813 82.3594,443.0469 Q82.625,443.2969 82.625,443.6406 Q82.625,443.9844 82.2813,444.3906 Q81.7813,444.9688 80.9844,445.2969 Q79.9063,445.75 78.6094,445.75 Q77.0938,445.75 75.8906,445.125 Q74.9063,444.625 74.2188,443.5625 Q73.5313,442.4844 73.5313,441.2031 L73.5313,440.0469 Q73.5313,438.7188 74.1406,437.5781 Q74.7656,436.4219 75.8594,435.8125 Q76.9531,435.1875 78.1875,435.1875 Q78.9219,435.1875 79.5625,435.3594 Q80.2188,435.5156 80.7656,435.875 Z " fill="#000000"/><text fill="#000000" font-family="sans-serif" font-size="14" lengthAdjust="spacing" textLength="42" x="92" y="445.7285">Rango</text><line style="stroke:#181818;stroke-width:0.5;" x1="64" x2="136" y1="456" y2="456"/><line style="stroke:#181818;stroke-width:0.5;" x1="64" x2="136" y1="464" y2="464"/></g><!--class Celda--><g id="elem_Celda"><rect codeLine="23" fill="#F1F1F1" height="65.6094" id="Celda" rx="2.5" ry="2.5" style="stroke:#181818;stroke-width:0.5;" width="70" x="49" y="640"/><ellipse cx="64" cy="656" fill="#ADD1B2" rx="11" ry="11" style="stroke:#181818;stroke-width:1.0;"/><path d="M66.7656,651.875 Q66.9219,651.6563 67.1094,651.5469 Q67.2969,651.4375 67.5156,651.4375 Q67.8906,651.4375 68.125,651.7031 Q68.3594,651.9531 68.3594,652.5625 L68.3594,654.0156 Q68.3594,654.625 68.125,654.8906 Q67.8906,655.1563 67.5156,655.1563 Q67.1719,655.1563 66.9688,654.9531 Q66.7656,654.7656 66.6563,654.25 Q66.6094,653.8906 66.4219,653.7031 Q66.0938,653.3281 65.4844,653.1094 Q64.875,652.8906 64.25,652.8906 Q63.4844,652.8906 62.8438,653.2188 Q62.2188,653.5469 61.7188,654.2969 Q61.2344,655.0469 61.2344,656.0781 L61.2344,657.1719 Q61.2344,658.4063 62.125,659.2344 Q63.0156,660.0469 64.6094,660.0469 Q65.5469,660.0469 66.2031,659.7969 Q66.5938,659.6406 67.0156,659.2031 Q67.2813,658.9375 67.4219,658.8594 Q67.5781,658.7813 67.7813,658.7813 Q68.1094,658.7813 68.3594,659.0469 Q68.625,659.2969 68.625,659.6406 Q68.625,659.9844 68.2813,660.3906 Q67.7813,660.9688 66.9844,661.2969 Q65.9063,661.75 64.6094,661.75 Q63.0938,661.75 61.8906,661.125 Q60.9063,660.625 60.2188,659.5625 Q59.5313,658.4844 59.5313,657.2031 L59.5313,656.0469 Q59.5313,654.7188 60.1406,653.5781 Q60.7656,652.4219 61.8594,651.8125 Q62.9531,651.1875 64.1875,651.1875 Q64.9219,651.1875 65.5625,651.3594 Q66.2188,651.5156 66.7656,651.875 Z " fill="#000000"/><text fill="#000000" font-family="sans-serif" font-size="14" font-style="italic" font-weight="bold" lengthAdjust="spacing" textLength="38" x="78" y="661.7285">Celda</text><line style="stroke:#181818;stroke-width:0.5;" x1="50" x2="118" y1="672" y2="672"/><text fill="#000000" font-family="sans-serif" font-size="14" lengthAdjust="spacing" textLength="57" x="55" y="690.5332">direcci&#243;n</text><line style="stroke:#181818;stroke-width:0.5;" x1="50" x2="118" y1="697.6094" y2="697.6094"/></g><!--class Vector--><g id="elem_Vector"><rect fill="#F1F1F1" height="48" id="Vector" rx="2.5" ry="2.5" style="stroke:#181818;stroke-width:0.5;" width="73" x="172.5" y="424"/><ellipse cx="187.5" cy="440" fill="#ADD1B2" rx="11" ry="11" style="stroke:#181818;stroke-width:1.0;"/><path d="M190.2656,435.875 Q190.4219,435.6563 190.6094,435.5469 Q190.7969,435.4375 191.0156,435.4375 Q191.3906,435.4375 191.625,435.7031 Q191.8594,435.9531 191.8594,436.5625 L191.8594,438.0156 Q191.8594,438.625 191.625,438.8906 Q191.3906,439.1563 191.0156,439.1563 Q190.6719,439.1563 190.4688,438.9531 Q190.2656,438.7656 190.1563,438.25 Q190.1094,437.8906 189.9219,437.7031 Q189.5938,437.3281 188.9844,437.1094 Q188.375,436.8906 187.75,436.8906 Q186.9844,436.8906 186.3438,437.2188 Q185.7188,437.5469 185.2188,438.2969 Q184.7344,439.0469 184.7344,440.0781 L184.7344,441.1719 Q184.7344,442.4063 185.625,443.2344 Q186.5156,444.0469 188.1094,444.0469 Q189.0469,444.0469 189.7031,443.7969 Q190.0938,443.6406 190.5156,443.2031 Q190.7813,442.9375 190.9219,442.8594 Q191.0781,442.7813 191.2813,442.7813 Q191.6094,442.7813 191.8594,443.0469 Q192.125,443.2969 192.125,443.6406 Q192.125,443.9844 191.7813,444.3906 Q191.2813,444.9688 190.4844,445.2969 Q189.4063,445.75 188.1094,445.75 Q186.5938,445.75 185.3906,445.125 Q184.4063,444.625 183.7188,443.5625 Q183.0313,442.4844 183.0313,441.2031 L183.0313,440.0469 Q183.0313,438.7188 183.6406,437.5781 Q184.2656,436.4219 185.3594,435.8125 Q186.4531,435.1875 187.6875,435.1875 Q188.4219,435.1875 189.0625,435.3594 Q189.7188,435.5156 190.2656,435.875 Z " fill="#000000"/><text fill="#000000" font-family="sans-serif" font-size="14" lengthAdjust="spacing" textLength="41" x="201.5" y="445.7285">Vector</text><line style="stroke:#181818;stroke-width:0.5;" x1="173.5" x2="244.5" y1="456" y2="456"/><line style="stroke:#181818;stroke-width:0.5;" x1="173.5" x2="244.5" y1="464" y2="464"/></g><!--class Fila--><g id="elem_Fila"><rect fill="#F1F1F1" height="48" id="Fila" rx="2.5" ry="2.5" style="stroke:#181818;stroke-width:0.5;" width="55" x="179.5" y="532"/><ellipse cx="194.5" cy="548" fill="#ADD1B2" rx="11" ry="11" style="stroke:#181818;stroke-width:1.0;"/><path d="M197.2656,543.875 Q197.4219,543.6563 197.6094,543.5469 Q197.7969,543.4375 198.0156,543.4375 Q198.3906,543.4375 198.625,543.7031 Q198.8594,543.9531 198.8594,544.5625 L198.8594,546.0156 Q198.8594,546.625 198.625,546.8906 Q198.3906,547.1563 198.0156,547.1563 Q197.6719,547.1563 197.4688,546.9531 Q197.2656,546.7656 197.1563,546.25 Q197.1094,545.8906 196.9219,545.7031 Q196.5938,545.3281 195.9844,545.1094 Q195.375,544.8906 194.75,544.8906 Q193.9844,544.8906 193.3438,545.2188 Q192.7188,545.5469 192.2188,546.2969 Q191.7344,547.0469 191.7344,548.0781 L191.7344,549.1719 Q191.7344,550.4063 192.625,551.2344 Q193.5156,552.0469 195.1094,552.0469 Q196.0469,552.0469 196.7031,551.7969 Q197.0938,551.6406 197.5156,551.2031 Q197.7813,550.9375 197.9219,550.8594 Q198.0781,550.7813 198.2813,550.7813 Q198.6094,550.7813 198.8594,551.0469 Q199.125,551.2969 199.125,551.6406 Q199.125,551.9844 198.7813,552.3906 Q198.2813,552.9688 197.4844,553.2969 Q196.4063,553.75 195.1094,553.75 Q193.5938,553.75 192.3906,553.125 Q191.4063,552.625 190.7188,551.5625 Q190.0313,550.4844 190.0313,549.2031 L190.0313,548.0469 Q190.0313,546.7188 190.6406,545.5781 Q191.2656,544.4219 192.3594,543.8125 Q193.4531,543.1875 194.6875,543.1875 Q195.4219,543.1875 196.0625,543.3594 Q196.7188,543.5156 197.2656,543.875 Z " fill="#000000"/><text fill="#000000" font-family="sans-serif" font-size="14" lengthAdjust="spacing" textLength="23" x="208.5" y="553.7285">Fila</text><line style="stroke:#181818;stroke-width:0.5;" x1="180.5" x2="233.5" y1="564" y2="564"/><line style="stroke:#181818;stroke-width:0.5;" x1="180.5" x2="233.5" y1="572" y2="572"/></g><!--class Columna--><g id="elem_Columna"><rect fill="#F1F1F1" height="48" id="Columna" rx="2.5" ry="2.5" style="stroke:#181818;stroke-width:0.5;" width="88" x="270" y="532"/><ellipse cx="285" cy="548" fill="#ADD1B2" rx="11" ry="11" style="stroke:#181818;stroke-width:1.0;"/><path d="M287.7656,543.875 Q287.9219,543.6563 288.1094,543.5469 Q288.2969,543.4375 288.5156,543.4375 Q288.8906,543.4375 289.125,543.7031 Q289.3594,543.9531 289.3594,544.5625 L289.3594,546.0156 Q289.3594,546.625 289.125,546.8906 Q288.8906,547.1563 288.5156,547.1563 Q288.1719,547.1563 287.9688,546.9531 Q287.7656,546.7656 287.6563,546.25 Q287.6094,545.8906 287.4219,545.7031 Q287.0938,545.3281 286.4844,545.1094 Q285.875,544.8906 285.25,544.8906 Q284.4844,544.8906 283.8438,545.2188 Q283.2188,545.5469 282.7188,546.2969 Q282.2344,547.0469 282.2344,548.0781 L282.2344,549.1719 Q282.2344,550.4063 283.125,551.2344 Q284.0156,552.0469 285.6094,552.0469 Q286.5469,552.0469 287.2031,551.7969 Q287.5938,551.6406 288.0156,551.2031 Q288.2813,550.9375 288.4219,550.8594 Q288.5781,550.7813 288.7813,550.7813 Q289.1094,550.7813 289.3594,551.0469 Q289.625,551.2969 289.625,551.6406 Q289.625,551.9844 289.2813,552.3906 Q288.7813,552.9688 287.9844,553.2969 Q286.9063,553.75 285.6094,553.75 Q284.0938,553.75 282.8906,553.125 Q281.9063,552.625 281.2188,551.5625 Q280.5313,550.4844 280.5313,549.2031 L280.5313,548.0469 Q280.5313,546.7188 281.1406,545.5781 Q281.7656,544.4219 282.8594,543.8125 Q283.9531,543.1875 285.1875,543.1875 Q285.9219,543.1875 286.5625,543.3594 Q287.2188,543.5156 287.7656,543.875 Z " fill="#000000"/><text fill="#000000" font-family="sans-serif" font-size="14" lengthAdjust="spacing" textLength="56" x="299" y="553.7285">Columna</text><line style="stroke:#181818;stroke-width:0.5;" x1="271" x2="357" y1="564" y2="564"/><line style="stroke:#181818;stroke-width:0.5;" x1="271" x2="357" y1="572" y2="572"/></g><!--class TablaDin?mica--><g id="elem_TablaDin&#225;mica"><rect fill="#F1F1F1" height="48" id="TablaDin&#225;mica" rx="2.5" ry="2.5" style="stroke:#181818;stroke-width:0.5;" width="126" x="149" y="86"/><ellipse cx="164" cy="102" fill="#ADD1B2" rx="11" ry="11" style="stroke:#181818;stroke-width:1.0;"/><path d="M166.7656,97.875 Q166.9219,97.6563 167.1094,97.5469 Q167.2969,97.4375 167.5156,97.4375 Q167.8906,97.4375 168.125,97.7031 Q168.3594,97.9531 168.3594,98.5625 L168.3594,100.0156 Q168.3594,100.625 168.125,100.8906 Q167.8906,101.1563 167.5156,101.1563 Q167.1719,101.1563 166.9688,100.9531 Q166.7656,100.7656 166.6563,100.25 Q166.6094,99.8906 166.4219,99.7031 Q166.0938,99.3281 165.4844,99.1094 Q164.875,98.8906 164.25,98.8906 Q163.4844,98.8906 162.8438,99.2188 Q162.2188,99.5469 161.7188,100.2969 Q161.2344,101.0469 161.2344,102.0781 L161.2344,103.1719 Q161.2344,104.4063 162.125,105.2344 Q163.0156,106.0469 164.6094,106.0469 Q165.5469,106.0469 166.2031,105.7969 Q166.5938,105.6406 167.0156,105.2031 Q167.2813,104.9375 167.4219,104.8594 Q167.5781,104.7813 167.7813,104.7813 Q168.1094,104.7813 168.3594,105.0469 Q168.625,105.2969 168.625,105.6406 Q168.625,105.9844 168.2813,106.3906 Q167.7813,106.9688 166.9844,107.2969 Q165.9063,107.75 164.6094,107.75 Q163.0938,107.75 161.8906,107.125 Q160.9063,106.625 160.2188,105.5625 Q159.5313,104.4844 159.5313,103.2031 L159.5313,102.0469 Q159.5313,100.7188 160.1406,99.5781 Q160.7656,98.4219 161.8594,97.8125 Q162.9531,97.1875 164.1875,97.1875 Q164.9219,97.1875 165.5625,97.3594 Q166.2188,97.5156 166.7656,97.875 Z " fill="#000000"/><text fill="#000000" font-family="sans-serif" font-size="14" lengthAdjust="spacing" textLength="94" x="178" y="107.7285">TablaDin&#225;mica</text><line style="stroke:#181818;stroke-width:0.5;" x1="150" x2="274" y1="118" y2="118"/><line style="stroke:#181818;stroke-width:0.5;" x1="150" x2="274" y1="126" y2="126"/></g><!--class Tabla--><g id="elem_Tabla"><rect fill="#F1F1F1" height="48" id="Tabla" rx="2.5" ry="2.5" style="stroke:#181818;stroke-width:0.5;" width="68" x="46" y="86"/><ellipse cx="61" cy="102" fill="#ADD1B2" rx="11" ry="11" style="stroke:#181818;stroke-width:1.0;"/><path d="M63.7656,97.875 Q63.9219,97.6563 64.1094,97.5469 Q64.2969,97.4375 64.5156,97.4375 Q64.8906,97.4375 65.125,97.7031 Q65.3594,97.9531 65.3594,98.5625 L65.3594,100.0156 Q65.3594,100.625 65.125,100.8906 Q64.8906,101.1563 64.5156,101.1563 Q64.1719,101.1563 63.9688,100.9531 Q63.7656,100.7656 63.6563,100.25 Q63.6094,99.8906 63.4219,99.7031 Q63.0938,99.3281 62.4844,99.1094 Q61.875,98.8906 61.25,98.8906 Q60.4844,98.8906 59.8438,99.2188 Q59.2188,99.5469 58.7188,100.2969 Q58.2344,101.0469 58.2344,102.0781 L58.2344,103.1719 Q58.2344,104.4063 59.125,105.2344 Q60.0156,106.0469 61.6094,106.0469 Q62.5469,106.0469 63.2031,105.7969 Q63.5938,105.6406 64.0156,105.2031 Q64.2813,104.9375 64.4219,104.8594 Q64.5781,104.7813 64.7813,104.7813 Q65.1094,104.7813 65.3594,105.0469 Q65.625,105.2969 65.625,105.6406 Q65.625,105.9844 65.2813,106.3906 Q64.7813,106.9688 63.9844,107.2969 Q62.9063,107.75 61.6094,107.75 Q60.0938,107.75 58.8906,107.125 Q57.9063,106.625 57.2188,105.5625 Q56.5313,104.4844 56.5313,103.2031 L56.5313,102.0469 Q56.5313,100.7188 57.1406,99.5781 Q57.7656,98.4219 58.8594,97.8125 Q59.9531,97.1875 61.1875,97.1875 Q61.9219,97.1875 62.5625,97.3594 Q63.2188,97.5156 63.7656,97.875 Z " fill="#000000"/><text fill="#000000" font-family="sans-serif" font-size="14" lengthAdjust="spacing" textLength="36" x="75" y="107.7285">Tabla</text><line style="stroke:#181818;stroke-width:0.5;" x1="47" x2="113" y1="118" y2="118"/><line style="stroke:#181818;stroke-width:0.5;" x1="47" x2="113" y1="126" y2="126"/></g><!--class Gr?fico--><g id="elem_Gr&#225;fico"><rect fill="#F1F1F1" height="48" id="Gr&#225;fico" rx="2.5" ry="2.5" style="stroke:#181818;stroke-width:0.5;" width="78" x="116" y="255"/><ellipse cx="131" cy="271" fill="#ADD1B2" rx="11" ry="11" style="stroke:#181818;stroke-width:1.0;"/><path d="M133.7656,266.875 Q133.9219,266.6563 134.1094,266.5469 Q134.2969,266.4375 134.5156,266.4375 Q134.8906,266.4375 135.125,266.7031 Q135.3594,266.9531 135.3594,267.5625 L135.3594,269.0156 Q135.3594,269.625 135.125,269.8906 Q134.8906,270.1563 134.5156,270.1563 Q134.1719,270.1563 133.9688,269.9531 Q133.7656,269.7656 133.6563,269.25 Q133.6094,268.8906 133.4219,268.7031 Q133.0938,268.3281 132.4844,268.1094 Q131.875,267.8906 131.25,267.8906 Q130.4844,267.8906 129.8438,268.2188 Q129.2188,268.5469 128.7188,269.2969 Q128.2344,270.0469 128.2344,271.0781 L128.2344,272.1719 Q128.2344,273.4063 129.125,274.2344 Q130.0156,275.0469 131.6094,275.0469 Q132.5469,275.0469 133.2031,274.7969 Q133.5938,274.6406 134.0156,274.2031 Q134.2813,273.9375 134.4219,273.8594 Q134.5781,273.7813 134.7813,273.7813 Q135.1094,273.7813 135.3594,274.0469 Q135.625,274.2969 135.625,274.6406 Q135.625,274.9844 135.2813,275.3906 Q134.7813,275.9688 133.9844,276.2969 Q132.9063,276.75 131.6094,276.75 Q130.0938,276.75 128.8906,276.125 Q127.9063,275.625 127.2188,274.5625 Q126.5313,273.4844 126.5313,272.2031 L126.5313,271.0469 Q126.5313,269.7188 127.1406,268.5781 Q127.7656,267.4219 128.8594,266.8125 Q129.9531,266.1875 131.1875,266.1875 Q131.9219,266.1875 132.5625,266.3594 Q133.2188,266.5156 133.7656,266.875 Z " fill="#000000"/><text fill="#000000" font-family="sans-serif" font-size="14" lengthAdjust="spacing" textLength="46" x="145" y="276.7285">Gr&#225;fico</text><line style="stroke:#181818;stroke-width:0.5;" x1="117" x2="193" y1="287" y2="287"/><line style="stroke:#181818;stroke-width:0.5;" x1="117" x2="193" y1="295" y2="295"/></g><!--class F?rmula--><g id="elem_F&#243;rmula"><rect fill="#F1F1F1" height="48" id="F&#243;rmula" rx="2.5" ry="2.5" style="stroke:#181818;stroke-width:0.5;" width="84" x="154" y="649"/><ellipse cx="169" cy="665" fill="#ADD1B2" rx="11" ry="11" style="stroke:#181818;stroke-width:1.0;"/><path d="M171.7656,660.875 Q171.9219,660.6563 172.1094,660.5469 Q172.2969,660.4375 172.5156,660.4375 Q172.8906,660.4375 173.125,660.7031 Q173.3594,660.9531 173.3594,661.5625 L173.3594,663.0156 Q173.3594,663.625 173.125,663.8906 Q172.8906,664.1563 172.5156,664.1563 Q172.1719,664.1563 171.9688,663.9531 Q171.7656,663.7656 171.6563,663.25 Q171.6094,662.8906 171.4219,662.7031 Q171.0938,662.3281 170.4844,662.1094 Q169.875,661.8906 169.25,661.8906 Q168.4844,661.8906 167.8438,662.2188 Q167.2188,662.5469 166.7188,663.2969 Q166.2344,664.0469 166.2344,665.0781 L166.2344,666.1719 Q166.2344,667.4063 167.125,668.2344 Q168.0156,669.0469 169.6094,669.0469 Q170.5469,669.0469 171.2031,668.7969 Q171.5938,668.6406 172.0156,668.2031 Q172.2813,667.9375 172.4219,667.8594 Q172.5781,667.7813 172.7813,667.7813 Q173.1094,667.7813 173.3594,668.0469 Q173.625,668.2969 173.625,668.6406 Q173.625,668.9844 173.2813,669.3906 Q172.7813,669.9688 171.9844,670.2969 Q170.9063,670.75 169.6094,670.75 Q168.0938,670.75 166.8906,670.125 Q165.9063,669.625 165.2188,668.5625 Q164.5313,667.4844 164.5313,666.2031 L164.5313,665.0469 Q164.5313,663.7188 165.1406,662.5781 Q165.7656,661.4219 166.8594,660.8125 Q167.9531,660.1875 169.1875,660.1875 Q169.9219,660.1875 170.5625,660.3594 Q171.2188,660.5156 171.7656,660.875 Z " fill="#000000"/><text fill="#000000" font-family="sans-serif" font-size="14" lengthAdjust="spacing" textLength="52" x="183" y="670.7285">F&#243;rmula</text><line style="stroke:#181818;stroke-width:0.5;" x1="155" x2="237" y1="681" y2="681"/><line style="stroke:#181818;stroke-width:0.5;" x1="155" x2="237" y1="689" y2="689"/></g><!--reverse link Rango to Celda--><g id="link_Rango_Celda"><path codeLine="8" d="M97.4904,483.9892 C94.6204,523.9492 89.58,594.22 86.31,639.8 " fill="none" id="Rango-backto-Celda" style="stroke:#181818;stroke-width:1.0;"/><polygon fill="#181818" points="98.35,472.02,93.9305,477.718,97.4904,483.9892,101.9099,478.2911,98.35,472.02" style="stroke:#181818;stroke-width:1.0;"/></g><!--reverse link Rango to Vector--><g id="link_Rango_Vector"><path codeLine="9" d="M155.04,448 C166.85,448 160.65,448 172.46,448 " fill="none" id="Rango-backto-Vector" style="stroke:#181818;stroke-width:1.0;"/><polygon fill="none" points="137.04,448,155.04,454,155.04,442,137.04,448" style="stroke:#181818;stroke-width:1.0;"/></g><!--reverse link Vector to Fila--><g id="link_Vector_Fila"><path codeLine="10" d="M208.2235,489.9967 C207.8835,507.6567 207.77,513.94 207.44,531.68 " fill="none" id="Vector-backto-Fila" style="stroke:#181818;stroke-width:1.0;"/><polygon fill="none" points="208.57,472,202.2246,489.8812,214.2224,490.1122,208.57,472" style="stroke:#181818;stroke-width:1.0;"/></g><!--reverse link Vector to Columna--><g id="link_Vector_Columna"><path codeLine="11" d="M244.4462,484.7893 C261.9362,502.4493 273.33,513.94 290.9,531.68 " fill="none" id="Vector-backto-Columna" style="stroke:#181818;stroke-width:1.0;"/><polygon fill="none" points="231.78,472,240.1831,489.0114,248.7093,480.5673,231.78,472" style="stroke:#181818;stroke-width:1.0;"/></g><!--link Tabla to TablaDin?mica--><g id="link_Tabla_TablaDin&#225;mica"><path codeLine="12" d="M114.03,110 C125.64,110 125.25,110 136.86,110 " fill="none" id="Tabla-to-TablaDin&#225;mica" style="stroke:#181818;stroke-width:1.0;"/><polygon fill="#181818" points="148.86,110,142.86,106,136.86,110,142.86,114,148.86,110" style="stroke:#181818;stroke-width:1.0;"/></g><!--link TablaDin?mica to Comportamiento--><g id="link_TablaDin&#225;mica_Comportamiento"><path codeLine="13" d="M275.22,110 C286.73,110 280.24,110 291.75,110 " fill="none" id="TablaDin&#225;mica-to-Comportamiento" style="stroke:#181818;stroke-width:1.0;"/><polygon fill="none" points="309.75,110,291.75,104,291.75,116,309.75,110" style="stroke:#181818;stroke-width:1.0;"/></g><!--reverse link Tabla to Rango--><g id="link_Tabla_Rango"><path codeLine="14" d="M82.0842,146.0687 C85.7442,207.4587 94.95,362.18 98.62,423.74 " fill="none" id="Tabla-backto-Rango" style="stroke:#181818;stroke-width:1.0;"/><polygon fill="none" points="81.37,134.09,77.7342,140.3174,82.0842,146.0687,85.72,139.8413,81.37,134.09" style="stroke:#181818;stroke-width:1.0;"/></g><!--link Gr?fico to Rango--><g id="link_Gr&#225;fico_Rango"><path codeLine="15" d="M147.35,303.22 C136.84,335.13 119.9375,386.4713 109.4575,418.2813 " fill="none" id="Gr&#225;fico-to-Rango" style="stroke:#181818;stroke-width:1.0;stroke-dasharray:7.0,7.0;"/><polygon fill="#181818" points="107.58,423.98,114.1953,416.6836,109.1446,419.2311,106.5971,414.1803,107.58,423.98" style="stroke:#181818;stroke-width:1.0;"/></g><!--reverse link Tabla to Gr?fico--><g id="link_Tabla_Gr&#225;fico"><path codeLine="16" d="M92.888,139.6934 C107.218,171.6034 130.38,223.17 144.66,254.98 " fill="none" id="Tabla-backto-Gr&#225;fico" style="stroke:#181818;stroke-width:1.0;stroke-dasharray:7.0,7.0;"/><polygon fill="#181818" points="90.43,134.22,90.468,144.0688,92.4783,138.7812,97.7659,140.7915,90.43,134.22" style="stroke:#181818;stroke-width:1.0;"/></g><!--reverse link TablaDin?mica to Gr?fico--><g id="link_TablaDin&#225;mica_Gr&#225;fico"><path codeLine="17" d="M202.1321,139.8984 C191.2421,171.8084 173.71,223.17 162.86,254.98 " fill="none" id="TablaDin&#225;mica-backto-Gr&#225;fico" style="stroke:#181818;stroke-width:1.0;stroke-dasharray:7.0,7.0;"/><polygon fill="#181818" points="204.07,134.22,197.3775,141.4457,202.4551,138.952,204.9488,144.0296,204.07,134.22" style="stroke:#181818;stroke-width:1.0;"/></g><!--link Celda to F?rmula--><g id="link_Celda_F&#243;rmula"><path codeLine="19" d="M119.44,673 C130.9,673 142.37,673 153.83,673 " fill="none" id="Celda-F&#243;rmula" style="stroke:#181818;stroke-width:1.0;stroke-dasharray:7.0,7.0;"/></g><!--link Rango to F?rmula--><g id="link_Rango_F&#243;rmula"><path codeLine="20" d="M109.91,472.02 C128.31,514.76 167.53,605.88 186,648.77 " fill="none" id="Rango-F&#243;rmula" style="stroke:#181818;stroke-width:1.0;stroke-dasharray:7.0,7.0;"/></g><!--SRC=[TP4zRiCm38LtdOB84g20b0iOMboa7J8LHNTQPbAs-Z5aUoYI72Pdo15yiTfogxH1ma4Gt_SWFb3BTwu9o3NT5pXo5SLMB9DcE1fBGZHeFd57iE4gXhqGCDQlzXm-4FP9cefzHt6BXg0ChWcnGyVakv0DB-Xt0HvaBIMKP6ky8iL1HWblPBeGCvhRYKbOiyMRe0osT_x2Nh6o-CX-E3asE8wKTdGbzPvd77tGzv8dBuGn-HmrWwSudBPi0YYbz5rc9_X_-WNs6UOmsPKlQLsWeeBrS8wkjzUxK_KD9FBDM6pRdrUmXKN1kgXqwejLfOiLwyMVhvogvaZ6y73sMJwA-Jn-0m00]--></g></svg>