<?xml version="1.0" encoding="UTF-8" standalone="no"?><svg xmlns="http://www.w3.org/2000/svg" xmlns:xlink="http://www.w3.org/1999/xlink" contentStyleType="text/css" height="586px" preserveAspectRatio="none" style="width:347px;height:586px;background:#FFFFFF;" version="1.1" viewBox="0 0 347 586" width="347px" zoomAndPan="magnify"><defs/><g><!--MD5=[d50babc8360c0db147baabbe2062dbb3]
cluster hoja--><g id="cluster_hoja"><path d="M8.5,6.602 L39.5,6.602 A3.75,3.75 0 0 1 42,9.102 L49,31.6699 L337.5,31.6699 A2.5,2.5 0 0 1 340,34.1699 L340,577.102 A2.5,2.5 0 0 1 337.5,579.602 L8.5,579.602 A2.5,2.5 0 0 1 6,577.102 L6,9.102 A2.5,2.5 0 0 1 8.5,6.602 " fill="none" style="stroke:#000000;stroke-width:1.5;"/><line style="stroke:#000000;stroke-width:1.5;" x1="6" x2="49" y1="31.6699" y2="31.6699"/><text fill="#000000" font-family="sans-serif" font-size="14" font-weight="bold" lengthAdjust="spacing" textLength="30" x="10" y="23.5679">hoja</text></g><!--MD5=[1eb83120079fe532c97e7f233463b4e6]
class comportamiento--><g id="elem_comportamiento"><rect codeLine="4" fill="#F1F1F1" height="32" id="comportamiento" rx="2.5" ry="2.5" style="stroke:#181818;stroke-width:0.5;" width="137" x="22.5" y="44.602"/><ellipse cx="37.5" cy="60.602" fill="#B4A7E5" rx="11" ry="11" style="stroke:#181818;stroke-width:1.0;"/><path d="M33.5313,67.102 L33.5313,65.3989 L35.8906,65.1332 L35.8906,56.9301 L33.5313,56.6645 L33.5313,54.9614 L40.6719,54.9614 L40.6719,56.6645 L38.25,56.9301 L38.25,65.1332 L40.6719,65.3989 L40.6719,67.102 L33.5313,67.102 Z " fill="#000000"/><text fill="#000000" font-family="sans-serif" font-size="14" font-style="italic" lengthAdjust="spacing" textLength="105" x="51.5" y="66.034">comportamiento</text></g><!--MD5=[c000963eab66f7310ae9be39ddab3d49]
class rango--><g id="elem_rango"><rect fill="#F1F1F1" height="32" id="rango" rx="2.5" ry="2.5" style="stroke:#181818;stroke-width:0.5;" width="72" x="184" y="228.602"/><ellipse cx="199" cy="244.602" fill="#ADD1B2" rx="11" ry="11" style="stroke:#181818;stroke-width:1.0;"/><path d="M198.4688,251.5239 Q196.7188,251.5239 195.5781,250.7895 Q194.4531,250.0395 193.8906,248.6957 Q193.3438,247.3364 193.3438,245.5395 Q193.3438,243.5082 194,242.0551 Q194.6563,240.602 195.9375,239.8207 Q197.2188,239.0395 199.0938,239.0395 Q199.9844,239.0395 200.6563,239.227 Q201.3281,239.3989 202.0156,239.7426 L201.2031,241.7582 Q200.5781,241.4457 200.0313,241.3207 Q199.5,241.1957 199.0156,241.1957 Q197.8438,241.1957 197.1406,241.727 Q196.4375,242.2582 196.1406,243.2114 Q195.8438,244.1645 195.8438,245.4301 Q195.8438,247.4457 196.5625,248.4145 Q197.2813,249.3676 198.875,249.3676 Q199.4688,249.3676 200.0938,249.2114 Q200.7188,249.0551 201.5469,248.6801 L201.5469,250.8989 Q200.8125,251.2114 200.0156,251.3676 Q199.2344,251.5239 198.4688,251.5239 Z " fill="#000000"/><text fill="#000000" font-family="sans-serif" font-size="14" lengthAdjust="spacing" textLength="40" x="213" y="250.034">rango</text></g><!--MD5=[590a38448bece6c44e3a942685c29309]
class celda--><g id="elem_celda"><rect codeLine="14" fill="#F1F1F1" height="59.0679" id="celda" rx="2.5" ry="2.5" style="stroke:#181818;stroke-width:0.5;" width="74" x="72" y="504.602"/><ellipse cx="89.7" cy="520.602" fill="#ADD1B2" rx="11" ry="11" style="stroke:#181818;stroke-width:1.0;"/><path d="M89.1688,527.5239 Q87.4188,527.5239 86.2781,526.7895 Q85.1531,526.0395 84.5906,524.6957 Q84.0438,523.3364 84.0438,521.5395 Q84.0438,519.5082 84.7,518.0551 Q85.3563,516.602 86.6375,515.8207 Q87.9188,515.0395 89.7938,515.0395 Q90.6844,515.0395 91.3563,515.227 Q92.0281,515.3989 92.7156,515.7426 L91.9031,517.7582 Q91.2781,517.4457 90.7313,517.3207 Q90.2,517.1957 89.7156,517.1957 Q88.5438,517.1957 87.8406,517.727 Q87.1375,518.2582 86.8406,519.2114 Q86.5438,520.1645 86.5438,521.4301 Q86.5438,523.4457 87.2625,524.4145 Q87.9813,525.3676 89.575,525.3676 Q90.1688,525.3676 90.7938,525.2114 Q91.4188,525.0551 92.2469,524.6801 L92.2469,526.8989 Q91.5125,527.2114 90.7156,527.3676 Q89.9344,527.5239 89.1688,527.5239 Z " fill="#000000"/><text fill="#000000" font-family="sans-serif" font-size="14" lengthAdjust="spacing" textLength="36" x="104.3" y="526.034">celda</text><line style="stroke:#181818;stroke-width:0.5;" x1="73" x2="145" y1="536.602" y2="536.602"/><text fill="#000000" font-family="sans-serif" font-size="14" lengthAdjust="spacing" textLength="62" x="78" y="555.5679">direccion</text></g><!--MD5=[8017d3cb725c0aab20d112e5f1d5a6a9]
class vector--><g id="elem_vector"><rect fill="#F1F1F1" height="32" id="vector" rx="2.5" ry="2.5" style="stroke:#181818;stroke-width:0.5;" width="73" x="183.5" y="320.602"/><ellipse cx="198.5" cy="336.602" fill="#ADD1B2" rx="11" ry="11" style="stroke:#181818;stroke-width:1.0;"/><path d="M197.9688,343.5239 Q196.2188,343.5239 195.0781,342.7895 Q193.9531,342.0395 193.3906,340.6957 Q192.8438,339.3364 192.8438,337.5395 Q192.8438,335.5082 193.5,334.0551 Q194.1563,332.602 195.4375,331.8207 Q196.7188,331.0395 198.5938,331.0395 Q199.4844,331.0395 200.1563,331.227 Q200.8281,331.3989 201.5156,331.7426 L200.7031,333.7582 Q200.0781,333.4457 199.5313,333.3207 Q199,333.1957 198.5156,333.1957 Q197.3438,333.1957 196.6406,333.727 Q195.9375,334.2582 195.6406,335.2114 Q195.3438,336.1645 195.3438,337.4301 Q195.3438,339.4457 196.0625,340.4145 Q196.7813,341.3676 198.375,341.3676 Q198.9688,341.3676 199.5938,341.2114 Q200.2188,341.0551 201.0469,340.6801 L201.0469,342.8989 Q200.3125,343.2114 199.5156,343.3676 Q198.7344,343.5239 197.9688,343.5239 Z " fill="#000000"/><text fill="#000000" font-family="sans-serif" font-size="14" lengthAdjust="spacing" textLength="41" x="212.5" y="342.034">vector</text></g><!--MD5=[0432d3a88785b9ac46358350e4197330]
class fila--><g id="elem_fila"><rect fill="#F1F1F1" height="32" id="fila" rx="2.5" ry="2.5" style="stroke:#181818;stroke-width:0.5;" width="53" x="145.5" y="412.602"/><ellipse cx="160.5" cy="428.602" fill="#ADD1B2" rx="11" ry="11" style="stroke:#181818;stroke-width:1.0;"/><path d="M159.9688,435.5239 Q158.2188,435.5239 157.0781,434.7895 Q155.9531,434.0395 155.3906,432.6957 Q154.8438,431.3364 154.8438,429.5395 Q154.8438,427.5082 155.5,426.0551 Q156.1563,424.602 157.4375,423.8207 Q158.7188,423.0395 160.5938,423.0395 Q161.4844,423.0395 162.1563,423.227 Q162.8281,423.3989 163.5156,423.7426 L162.7031,425.7582 Q162.0781,425.4457 161.5313,425.3207 Q161,425.1957 160.5156,425.1957 Q159.3438,425.1957 158.6406,425.727 Q157.9375,426.2582 157.6406,427.2114 Q157.3438,428.1645 157.3438,429.4301 Q157.3438,431.4457 158.0625,432.4145 Q158.7813,433.3676 160.375,433.3676 Q160.9688,433.3676 161.5938,433.2114 Q162.2188,433.0551 163.0469,432.6801 L163.0469,434.8989 Q162.3125,435.2114 161.5156,435.3676 Q160.7344,435.5239 159.9688,435.5239 Z " fill="#000000"/><text fill="#000000" font-family="sans-serif" font-size="14" lengthAdjust="spacing" textLength="21" x="174.5" y="434.034">fila</text></g><!--MD5=[0ae7f2d3437d2342817e26569fe295b7]
class columna--><g id="elem_columna"><rect fill="#F1F1F1" height="32" id="columna" rx="2.5" ry="2.5" style="stroke:#181818;stroke-width:0.5;" width="90" x="234" y="412.602"/><ellipse cx="249" cy="428.602" fill="#ADD1B2" rx="11" ry="11" style="stroke:#181818;stroke-width:1.0;"/><path d="M248.4688,435.5239 Q246.7188,435.5239 245.5781,434.7895 Q244.4531,434.0395 243.8906,432.6957 Q243.3438,431.3364 243.3438,429.5395 Q243.3438,427.5082 244,426.0551 Q244.6563,424.602 245.9375,423.8207 Q247.2188,423.0395 249.0938,423.0395 Q249.9844,423.0395 250.6563,423.227 Q251.3281,423.3989 252.0156,423.7426 L251.2031,425.7582 Q250.5781,425.4457 250.0313,425.3207 Q249.5,425.1957 249.0156,425.1957 Q247.8438,425.1957 247.1406,425.727 Q246.4375,426.2582 246.1406,427.2114 Q245.8438,428.1645 245.8438,429.4301 Q245.8438,431.4457 246.5625,432.4145 Q247.2813,433.3676 248.875,433.3676 Q249.4688,433.3676 250.0938,433.2114 Q250.7188,433.0551 251.5469,432.6801 L251.5469,434.8989 Q250.8125,435.2114 250.0156,435.3676 Q249.2344,435.5239 248.4688,435.5239 Z " fill="#000000"/><text fill="#000000" font-family="sans-serif" font-size="14" lengthAdjust="spacing" textLength="58" x="263" y="434.034">columna</text></g><!--MD5=[5aa4f268902c34973824249aca7764a4]
class tabla--><g id="elem_tabla"><rect fill="#F1F1F1" height="32" id="tabla" rx="2.5" ry="2.5" style="stroke:#181818;stroke-width:0.5;" width="66" x="206" y="136.602"/><ellipse cx="221" cy="152.602" fill="#ADD1B2" rx="11" ry="11" style="stroke:#181818;stroke-width:1.0;"/><path d="M220.4688,159.5239 Q218.7188,159.5239 217.5781,158.7895 Q216.4531,158.0395 215.8906,156.6957 Q215.3438,155.3364 215.3438,153.5395 Q215.3438,151.5082 216,150.0551 Q216.6563,148.602 217.9375,147.8207 Q219.2188,147.0395 221.0938,147.0395 Q221.9844,147.0395 222.6563,147.227 Q223.3281,147.3989 224.0156,147.7426 L223.2031,149.7582 Q222.5781,149.4457 222.0313,149.3207 Q221.5,149.1957 221.0156,149.1957 Q219.8438,149.1957 219.1406,149.727 Q218.4375,150.2582 218.1406,151.2114 Q217.8438,152.1645 217.8438,153.4301 Q217.8438,155.4457 218.5625,156.4145 Q219.2813,157.3676 220.875,157.3676 Q221.4688,157.3676 222.0938,157.2114 Q222.7188,157.0551 223.5469,156.6801 L223.5469,158.8989 Q222.8125,159.2114 222.0156,159.3676 Q221.2344,159.5239 220.4688,159.5239 Z " fill="#000000"/><text fill="#000000" font-family="sans-serif" font-size="14" lengthAdjust="spacing" textLength="34" x="235" y="158.034">tabla</text></g><!--MD5=[bf0f68e929a163c8eecf9c21e0845d8f]
class tablaDinamica--><g id="elem_tablaDinamica"><rect fill="#F1F1F1" height="32" id="tablaDinamica" rx="2.5" ry="2.5" style="stroke:#181818;stroke-width:0.5;" width="129" x="194.5" y="44.602"/><ellipse cx="209.5" cy="60.602" fill="#ADD1B2" rx="11" ry="11" style="stroke:#181818;stroke-width:1.0;"/><path d="M208.9688,67.5239 Q207.2188,67.5239 206.0781,66.7895 Q204.9531,66.0395 204.3906,64.6957 Q203.8438,63.3364 203.8438,61.5395 Q203.8438,59.5082 204.5,58.0551 Q205.1563,56.602 206.4375,55.8207 Q207.7188,55.0395 209.5938,55.0395 Q210.4844,55.0395 211.1563,55.227 Q211.8281,55.3989 212.5156,55.7426 L211.7031,57.7582 Q211.0781,57.4457 210.5313,57.3207 Q210,57.1957 209.5156,57.1957 Q208.3438,57.1957 207.6406,57.727 Q206.9375,58.2582 206.6406,59.2114 Q206.3438,60.1645 206.3438,61.4301 Q206.3438,63.4457 207.0625,64.4145 Q207.7813,65.3676 209.375,65.3676 Q209.9688,65.3676 210.5938,65.2114 Q211.2188,65.0551 212.0469,64.6801 L212.0469,66.8989 Q211.3125,67.2114 210.5156,67.3676 Q209.7344,67.5239 208.9688,67.5239 Z " fill="#000000"/><text fill="#000000" font-family="sans-serif" font-size="14" lengthAdjust="spacing" textLength="97" x="223.5" y="66.034">tablaDinamica</text></g><!--MD5=[b3f65615f854f10f856dae5c6f051cf7]
reverse link rango to celda--><g id="link_rango_celda"><path codeLine="5" d="M199.42,271.032 C188.62,285.112 175.67,303.232 166,320.602 C144.49,359.262 139.97,370.012 128,412.602 C119.35,443.392 114.29,479.782 111.6,504.452 " fill="none" id="rango-backto-celda" style="stroke:#181818;stroke-width:1.0;"/><polygon fill="#181818" points="207.51,260.702,200.6609,262.9579,200.109,270.1479,206.9581,267.8919,207.51,260.702" style="stroke:#181818;stroke-width:1.0;"/></g><!--MD5=[34d7168d16c142e596c87fb3a69f9983]
reverse link rango to vector--><g id="link_rango_vector"><path codeLine="6" d="M220,281.212 C220,294.912 220,309.822 220,320.562 " fill="none" id="rango-backto-vector" style="stroke:#181818;stroke-width:1.0;"/><polygon fill="none" points="213,280.872,220,260.872,227,280.872,213,280.872" style="stroke:#181818;stroke-width:1.0;"/></g><!--MD5=[a28feae13c3d04549c2406a2672abbac]
reverse link vector to fila--><g id="link_vector_fila"><path codeLine="7" d="M202.32,370.752 C194.67,385.102 186.09,401.172 180.02,412.562 " fill="none" id="vector-backto-fila" style="stroke:#181818;stroke-width:1.0;"/><polygon fill="none" points="196.27,367.222,211.86,352.872,208.62,373.812,196.27,367.222" style="stroke:#181818;stroke-width:1.0;"/></g><!--MD5=[576e8aff93499fe837714720f12c8862]
reverse link vector to columna--><g id="link_vector_columna"><path codeLine="8" d="M241.09,369.782 C250.66,384.372 261.51,400.912 269.14,412.562 " fill="none" id="vector-backto-columna" style="stroke:#181818;stroke-width:1.0;"/><polygon fill="none" points="235.12,373.432,230.01,352.872,246.83,365.762,235.12,373.432" style="stroke:#181818;stroke-width:1.0;"/></g><!--MD5=[f515c5932d56667497ea6c530e48cf10]
reverse link tabla to rango--><g id="link_tabla_rango"><path codeLine="9" d="M233.02,181.942 C229.76,197.392 225.85,215.882 223.18,228.562 " fill="none" id="tabla-backto-rango" style="stroke:#181818;stroke-width:1.0;"/><polygon fill="#181818" points="235.78,168.872,230.6263,173.9157,233.2999,180.6129,238.4536,175.5691,235.78,168.872" style="stroke:#181818;stroke-width:1.0;"/></g><!--MD5=[40378ecfcdfdeaeb7eae1fe410e3f436]
reverse link tablaDinamica to tabla--><g id="link_tablaDinamica_tabla"><path codeLine="10" d="M252.7,89.942 C249.27,105.392 245.16,123.882 242.34,136.562 " fill="none" id="tablaDinamica-backto-tabla" style="stroke:#181818;stroke-width:1.0;"/><polygon fill="#181818" points="255.61,76.872,250.4055,81.8632,253.011,88.5872,258.2156,83.5959,255.61,76.872" style="stroke:#181818;stroke-width:1.0;"/></g><!--MD5=[77c09d0dc1f6f92181d9987beb8d017a]
link comportamiento to tablaDinamica--><g id="link_comportamiento_tablaDinamica"><path codeLine="11" d="M159.58,60.602 C171.1,60.602 182.62,60.602 194.14,60.602 " fill="none" id="comportamiento-tablaDinamica" style="stroke:#181818;stroke-width:1.0;stroke-dasharray:7.0,7.0;"/></g><!--MD5=[c1ee5bf5257c5f1800ad1c90d91557ac]
@startuml
hide empty members

package hoja{
    interface comportamiento
    rango *- - - - celda
    rango <|- - vector 
    vector <|- - fila
    vector <|- - columna
    tabla *- - rango
    tablaDinamica *- - tabla
    tablaDinamica .l. comportamiento
}

class celda{
    direccion
}
@enduml

PlantUML version 1.2022.7(Mon Aug 22 19:01:30 CEST 2022)
(GPL source distribution)
Java Runtime: OpenJDK Runtime Environment
JVM: OpenJDK 64-Bit Server VM
Default Encoding: UTF-8
Language: es
Country: ES
--></g></svg>