<?xml version="1.0" encoding="UTF-8" standalone="no"?><svg xmlns="http://www.w3.org/2000/svg" xmlns:xlink="http://www.w3.org/1999/xlink" contentStyleType="text/css" height="524px" preserveAspectRatio="none" style="width:352px;height:524px;background:#FFFFFF;" version="1.1" viewBox="0 0 352 524" width="352px" zoomAndPan="magnify"><defs/><g><!--MD5=[d4221f7ff56bf344d21a538edd052ed4]
cluster Hoja--><g id="cluster_Hoja"><path d="M8.5,6.602 L41.5,6.602 A3.75,3.75 0 0 1 44,9.102 L51,31.6699 L342.5,31.6699 A2.5,2.5 0 0 1 345,34.1699 L345,515.102 A2.5,2.5 0 0 1 342.5,517.602 L8.5,517.602 A2.5,2.5 0 0 1 6,515.102 L6,9.102 A2.5,2.5 0 0 1 8.5,6.602 " fill="none" style="stroke:#000000;stroke-width:1.5;"/><line style="stroke:#000000;stroke-width:1.5;" x1="6" x2="51" y1="31.6699" y2="31.6699"/><text fill="#000000" font-family="sans-serif" font-size="14" font-weight="bold" lengthAdjust="spacing" textLength="32" x="10" y="23.5679">Hoja</text></g><!--MD5=[c712e45ccbc043d46b3c2a034822e49e]
class Comportamiento--><g id="elem_Comportamiento"><rect codeLine="4" fill="#F1F1F1" height="32" id="Comportamiento" rx="2.5" ry="2.5" style="stroke:#181818;stroke-width:0.5;" width="139" x="189.5" y="44.602"/><ellipse cx="204.5" cy="60.602" fill="#B4A7E5" rx="11" ry="11" style="stroke:#181818;stroke-width:1.0;"/><path d="M200.5313,67.102 L200.5313,65.3989 L202.8906,65.1332 L202.8906,56.9301 L200.5313,56.6645 L200.5313,54.9614 L207.6719,54.9614 L207.6719,56.6645 L205.25,56.9301 L205.25,65.1332 L207.6719,65.3989 L207.6719,67.102 L200.5313,67.102 Z " fill="#000000"/><text fill="#000000" font-family="sans-serif" font-size="14" font-style="italic" lengthAdjust="spacing" textLength="107" x="218.5" y="66.034">Comportamiento</text></g><!--MD5=[82e27fb166823a88ccdce1f374a2cdce]
class Rango--><g id="elem_Rango"><rect fill="#F1F1F1" height="32" id="Rango" rx="2.5" ry="2.5" style="stroke:#181818;stroke-width:0.5;" width="75" x="28.5" y="350.602"/><ellipse cx="43.5" cy="366.602" fill="#ADD1B2" rx="11" ry="11" style="stroke:#181818;stroke-width:1.0;"/><path d="M42.9688,373.5239 Q41.2188,373.5239 40.0781,372.7895 Q38.9531,372.0395 38.3906,370.6957 Q37.8438,369.3364 37.8438,367.5395 Q37.8438,365.5082 38.5,364.0551 Q39.1563,362.602 40.4375,361.8207 Q41.7188,361.0395 43.5938,361.0395 Q44.4844,361.0395 45.1563,361.227 Q45.8281,361.3989 46.5156,361.7426 L45.7031,363.7582 Q45.0781,363.4457 44.5313,363.3207 Q44,363.1957 43.5156,363.1957 Q42.3438,363.1957 41.6406,363.727 Q40.9375,364.2582 40.6406,365.2114 Q40.3438,366.1645 40.3438,367.4301 Q40.3438,369.4457 41.0625,370.4145 Q41.7813,371.3676 43.375,371.3676 Q43.9688,371.3676 44.5938,371.2114 Q45.2188,371.0551 46.0469,370.6801 L46.0469,372.8989 Q45.3125,373.2114 44.5156,373.3676 Q43.7344,373.5239 42.9688,373.5239 Z " fill="#000000"/><text fill="#000000" font-family="sans-serif" font-size="14" lengthAdjust="spacing" textLength="43" x="57.5" y="372.034">Rango</text></g><!--MD5=[adf40df5d88e8c7536c3fcba6ac92691]
class Celda--><g id="elem_Celda"><rect codeLine="17" fill="#F1F1F1" height="59.0679" id="Celda" rx="2.5" ry="2.5" style="stroke:#181818;stroke-width:0.5;" width="74" x="29" y="442.602"/><ellipse cx="45.8" cy="458.602" fill="#ADD1B2" rx="11" ry="11" style="stroke:#181818;stroke-width:1.0;"/><path d="M45.2688,465.5239 Q43.5188,465.5239 42.3781,464.7895 Q41.2531,464.0395 40.6906,462.6957 Q40.1438,461.3364 40.1438,459.5395 Q40.1438,457.5082 40.8,456.0551 Q41.4563,454.602 42.7375,453.8207 Q44.0188,453.0395 45.8938,453.0395 Q46.7844,453.0395 47.4563,453.227 Q48.1281,453.3989 48.8156,453.7426 L48.0031,455.7582 Q47.3781,455.4457 46.8313,455.3207 Q46.3,455.1957 45.8156,455.1957 Q44.6438,455.1957 43.9406,455.727 Q43.2375,456.2582 42.9406,457.2114 Q42.6438,458.1645 42.6438,459.4301 Q42.6438,461.4457 43.3625,462.4145 Q44.0813,463.3676 45.675,463.3676 Q46.2688,463.3676 46.8938,463.2114 Q47.5188,463.0551 48.3469,462.6801 L48.3469,464.8989 Q47.6125,465.2114 46.8156,465.3676 Q46.0344,465.5239 45.2688,465.5239 Z " fill="#000000"/><text fill="#000000" font-family="sans-serif" font-size="14" lengthAdjust="spacing" textLength="38" x="60.2" y="464.034">Celda</text><line style="stroke:#181818;stroke-width:0.5;" x1="30" x2="102" y1="474.602" y2="474.602"/><text fill="#000000" font-family="sans-serif" font-size="14" lengthAdjust="spacing" textLength="62" x="35" y="493.5679">dirección</text></g><!--MD5=[ea775af43a0da7cb543d6bee4ab62c40]
class Vector--><g id="elem_Vector"><rect fill="#F1F1F1" height="32" id="Vector" rx="2.5" ry="2.5" style="stroke:#181818;stroke-width:0.5;" width="74" x="139" y="350.602"/><ellipse cx="154" cy="366.602" fill="#ADD1B2" rx="11" ry="11" style="stroke:#181818;stroke-width:1.0;"/><path d="M153.4688,373.5239 Q151.7188,373.5239 150.5781,372.7895 Q149.4531,372.0395 148.8906,370.6957 Q148.3438,369.3364 148.3438,367.5395 Q148.3438,365.5082 149,364.0551 Q149.6563,362.602 150.9375,361.8207 Q152.2188,361.0395 154.0938,361.0395 Q154.9844,361.0395 155.6563,361.227 Q156.3281,361.3989 157.0156,361.7426 L156.2031,363.7582 Q155.5781,363.4457 155.0313,363.3207 Q154.5,363.1957 154.0156,363.1957 Q152.8438,363.1957 152.1406,363.727 Q151.4375,364.2582 151.1406,365.2114 Q150.8438,366.1645 150.8438,367.4301 Q150.8438,369.4457 151.5625,370.4145 Q152.2813,371.3676 153.875,371.3676 Q154.4688,371.3676 155.0938,371.2114 Q155.7188,371.0551 156.5469,370.6801 L156.5469,372.8989 Q155.8125,373.2114 155.0156,373.3676 Q154.2344,373.5239 153.4688,373.5239 Z " fill="#000000"/><text fill="#000000" font-family="sans-serif" font-size="14" lengthAdjust="spacing" textLength="42" x="168" y="372.034">Vector</text></g><!--MD5=[f410635c2e1e3f8d78eb8aeaf4c2ce80]
class Fila--><g id="elem_Fila"><rect fill="#F1F1F1" height="32" id="Fila" rx="2.5" ry="2.5" style="stroke:#181818;stroke-width:0.5;" width="55" x="142.5" y="456.102"/><ellipse cx="157.5" cy="472.102" fill="#ADD1B2" rx="11" ry="11" style="stroke:#181818;stroke-width:1.0;"/><path d="M156.9688,479.0239 Q155.2188,479.0239 154.0781,478.2895 Q152.9531,477.5395 152.3906,476.1957 Q151.8438,474.8364 151.8438,473.0395 Q151.8438,471.0082 152.5,469.5551 Q153.1563,468.102 154.4375,467.3207 Q155.7188,466.5395 157.5938,466.5395 Q158.4844,466.5395 159.1563,466.727 Q159.8281,466.8989 160.5156,467.2426 L159.7031,469.2582 Q159.0781,468.9457 158.5313,468.8207 Q158,468.6957 157.5156,468.6957 Q156.3438,468.6957 155.6406,469.227 Q154.9375,469.7582 154.6406,470.7114 Q154.3438,471.6645 154.3438,472.9301 Q154.3438,474.9457 155.0625,475.9145 Q155.7813,476.8676 157.375,476.8676 Q157.9688,476.8676 158.5938,476.7114 Q159.2188,476.5551 160.0469,476.1801 L160.0469,478.3989 Q159.3125,478.7114 158.5156,478.8676 Q157.7344,479.0239 156.9688,479.0239 Z " fill="#000000"/><text fill="#000000" font-family="sans-serif" font-size="14" lengthAdjust="spacing" textLength="23" x="171.5" y="477.534">Fila</text></g><!--MD5=[b3c1cf956186637ecfee464b9c8cf581]
class Columna--><g id="elem_Columna"><rect fill="#F1F1F1" height="32" id="Columna" rx="2.5" ry="2.5" style="stroke:#181818;stroke-width:0.5;" width="92" x="233" y="456.102"/><ellipse cx="248" cy="472.102" fill="#ADD1B2" rx="11" ry="11" style="stroke:#181818;stroke-width:1.0;"/><path d="M247.4688,479.0239 Q245.7188,479.0239 244.5781,478.2895 Q243.4531,477.5395 242.8906,476.1957 Q242.3438,474.8364 242.3438,473.0395 Q242.3438,471.0082 243,469.5551 Q243.6563,468.102 244.9375,467.3207 Q246.2188,466.5395 248.0938,466.5395 Q248.9844,466.5395 249.6563,466.727 Q250.3281,466.8989 251.0156,467.2426 L250.2031,469.2582 Q249.5781,468.9457 249.0313,468.8207 Q248.5,468.6957 248.0156,468.6957 Q246.8438,468.6957 246.1406,469.227 Q245.4375,469.7582 245.1406,470.7114 Q244.8438,471.6645 244.8438,472.9301 Q244.8438,474.9457 245.5625,475.9145 Q246.2813,476.8676 247.875,476.8676 Q248.4688,476.8676 249.0938,476.7114 Q249.7188,476.5551 250.5469,476.1801 L250.5469,478.3989 Q249.8125,478.7114 249.0156,478.8676 Q248.2344,479.0239 247.4688,479.0239 Z " fill="#000000"/><text fill="#000000" font-family="sans-serif" font-size="14" lengthAdjust="spacing" textLength="60" x="262" y="477.534">Columna</text></g><!--MD5=[87e2a843b07d4b38c27231e3064fa202]
class TablaDinámica--><g id="elem_TablaDinámica"><rect fill="#F1F1F1" height="32" id="TablaDinámica" rx="2.5" ry="2.5" style="stroke:#181818;stroke-width:0.5;" width="132" x="22" y="44.602"/><ellipse cx="37" cy="60.602" fill="#ADD1B2" rx="11" ry="11" style="stroke:#181818;stroke-width:1.0;"/><path d="M36.4688,67.5239 Q34.7188,67.5239 33.5781,66.7895 Q32.4531,66.0395 31.8906,64.6957 Q31.3438,63.3364 31.3438,61.5395 Q31.3438,59.5082 32,58.0551 Q32.6563,56.602 33.9375,55.8207 Q35.2188,55.0395 37.0938,55.0395 Q37.9844,55.0395 38.6563,55.227 Q39.3281,55.3989 40.0156,55.7426 L39.2031,57.7582 Q38.5781,57.4457 38.0313,57.3207 Q37.5,57.1957 37.0156,57.1957 Q35.8438,57.1957 35.1406,57.727 Q34.4375,58.2582 34.1406,59.2114 Q33.8438,60.1645 33.8438,61.4301 Q33.8438,63.4457 34.5625,64.4145 Q35.2813,65.3676 36.875,65.3676 Q37.4688,65.3676 38.0938,65.2114 Q38.7188,65.0551 39.5469,64.6801 L39.5469,66.8989 Q38.8125,67.2114 38.0156,67.3676 Q37.2344,67.5239 36.4688,67.5239 Z " fill="#000000"/><text fill="#000000" font-family="sans-serif" font-size="14" lengthAdjust="spacing" textLength="100" x="51" y="66.034">TablaDinámica</text></g><!--MD5=[bcfd2d4f3f6201ef500c016780876d67]
class Tabla--><g id="elem_Tabla"><rect fill="#F1F1F1" height="32" id="Tabla" rx="2.5" ry="2.5" style="stroke:#181818;stroke-width:0.5;" width="69" x="23.5" y="197.602"/><ellipse cx="38.5" cy="213.602" fill="#ADD1B2" rx="11" ry="11" style="stroke:#181818;stroke-width:1.0;"/><path d="M37.9688,220.5239 Q36.2188,220.5239 35.0781,219.7895 Q33.9531,219.0395 33.3906,217.6957 Q32.8438,216.3364 32.8438,214.5395 Q32.8438,212.5082 33.5,211.0551 Q34.1563,209.602 35.4375,208.8207 Q36.7188,208.0395 38.5938,208.0395 Q39.4844,208.0395 40.1563,208.227 Q40.8281,208.3989 41.5156,208.7426 L40.7031,210.7582 Q40.0781,210.4457 39.5313,210.3207 Q39,210.1957 38.5156,210.1957 Q37.3438,210.1957 36.6406,210.727 Q35.9375,211.2582 35.6406,212.2114 Q35.3438,213.1645 35.3438,214.4301 Q35.3438,216.4457 36.0625,217.4145 Q36.7813,218.3676 38.375,218.3676 Q38.9688,218.3676 39.5938,218.2114 Q40.2188,218.0551 41.0469,217.6801 L41.0469,219.8989 Q40.3125,220.2114 39.5156,220.3676 Q38.7344,220.5239 37.9688,220.5239 Z " fill="#000000"/><text fill="#000000" font-family="sans-serif" font-size="14" lengthAdjust="spacing" textLength="37" x="52.5" y="219.034">Tabla</text></g><!--MD5=[eac60b95adf5cf983505f7a75f2bd9b8]
class Gráfico--><g id="elem_Gráfico"><rect fill="#F1F1F1" height="32" id="Gráfico" rx="2.5" ry="2.5" style="stroke:#181818;stroke-width:0.5;" width="80" x="128" y="197.602"/><ellipse cx="143" cy="213.602" fill="#ADD1B2" rx="11" ry="11" style="stroke:#181818;stroke-width:1.0;"/><path d="M142.4688,220.5239 Q140.7188,220.5239 139.5781,219.7895 Q138.4531,219.0395 137.8906,217.6957 Q137.3438,216.3364 137.3438,214.5395 Q137.3438,212.5082 138,211.0551 Q138.6563,209.602 139.9375,208.8207 Q141.2188,208.0395 143.0938,208.0395 Q143.9844,208.0395 144.6563,208.227 Q145.3281,208.3989 146.0156,208.7426 L145.2031,210.7582 Q144.5781,210.4457 144.0313,210.3207 Q143.5,210.1957 143.0156,210.1957 Q141.8438,210.1957 141.1406,210.727 Q140.4375,211.2582 140.1406,212.2114 Q139.8438,213.1645 139.8438,214.4301 Q139.8438,216.4457 140.5625,217.4145 Q141.2813,218.3676 142.875,218.3676 Q143.4688,218.3676 144.0938,218.2114 Q144.7188,218.0551 145.5469,217.6801 L145.5469,219.8989 Q144.8125,220.2114 144.0156,220.3676 Q143.2344,220.5239 142.4688,220.5239 Z " fill="#000000"/><text fill="#000000" font-family="sans-serif" font-size="14" lengthAdjust="spacing" textLength="48" x="157" y="219.034">Gráfico</text></g><!--MD5=[cfabbeabd4acf42d93c0d6a363202897]
reverse link Rango to Celda--><g id="link_Rango_Celda"><path codeLine="5" d="M66,396.062 C66,410.502 66,427.992 66,442.452 " fill="none" id="Rango-backto-Celda" style="stroke:#181818;stroke-width:1.0;"/><polygon fill="#181818" points="66,382.872,62,388.872,66,394.872,70,388.872,66,382.872" style="stroke:#181818;stroke-width:1.0;"/></g><!--MD5=[7c3383a1ed47b6a066234f796d4e2336]
reverse link Rango to Vector--><g id="link_Rango_Vector"><path codeLine="6" d="M124.03,366.602 C128.94,366.602 133.86,366.602 138.78,366.602 " fill="none" id="Rango-backto-Vector" style="stroke:#181818;stroke-width:1.0;"/><polygon fill="none" points="123.81,373.602,103.81,366.602,123.81,359.602,123.81,373.602" style="stroke:#181818;stroke-width:1.0;"/></g><!--MD5=[4ea6c9a40400ecadc94156b66c86789e]
reverse link Vector to Fila--><g id="link_Vector_Fila"><path codeLine="7" d="M173.95,403.002 C172.9,420.992 171.69,441.912 170.89,455.772 " fill="none" id="Vector-backto-Fila" style="stroke:#181818;stroke-width:1.0;"/><polygon fill="none" points="166.97,402.432,175.11,382.872,180.95,403.242,166.97,402.432" style="stroke:#181818;stroke-width:1.0;"/></g><!--MD5=[b71806f34a08d667a2f73745d445dfb5]
reverse link Vector to Columna--><g id="link_Vector_Columna"><path codeLine="8" d="M205.42,397.162 C224.44,416.282 248.43,440.382 263.74,455.772 " fill="none" id="Vector-backto-Columna" style="stroke:#181818;stroke-width:1.0;"/><polygon fill="none" points="200.34,401.992,191.2,382.872,210.27,392.112,200.34,401.992" style="stroke:#181818;stroke-width:1.0;"/></g><!--MD5=[fe5fa89c3d7f42b0b80557d890fe4cec]
reverse link TablaDinámica to Tabla--><g id="link_TablaDinámica_Tabla"><path codeLine="9" d="M82.41,89.742 C76.1,121.482 66.08,171.952 61.06,197.182 " fill="none" id="TablaDinámica-backto-Tabla" style="stroke:#181818;stroke-width:1.0;"/><polygon fill="#181818" points="85.01,76.632,79.9132,81.7332,82.6617,88.4,87.7585,83.2987,85.01,76.632" style="stroke:#181818;stroke-width:1.0;"/></g><!--MD5=[ec6b96de8ad251acc15c0187009810a2]
reverse link Tabla to Rango--><g id="link_Tabla_Rango"><path codeLine="10" d="M59.49,242.742 C61.17,274.482 63.85,324.952 65.18,350.182 " fill="none" id="Tabla-backto-Rango" style="stroke:#181818;stroke-width:1.0;"/><polygon fill="none" points="58.8,229.632,55.122,235.8346,59.4328,241.6153,63.1108,235.4127,58.8,229.632" style="stroke:#181818;stroke-width:1.0;"/></g><!--MD5=[9a3b42923a12225bd5dc9e22570db4af]
link TablaDinámica to Comportamiento--><g id="link_TablaDinámica_Comportamiento"><path codeLine="11" d="M154.13,60.602 C159.17,60.602 164.22,60.602 169.27,60.602 " fill="none" id="TablaDinámica-to-Comportamiento" style="stroke:#181818;stroke-width:1.0;"/><polygon fill="none" points="169.36,53.602,189.36,60.602,169.36,67.602,169.36,53.602" style="stroke:#181818;stroke-width:1.0;"/></g><!--MD5=[7da432ab0efc27fc20657ccf79fc5baa]
link Gráfico to Rango--><g id="link_Gráfico_Rango"><path codeLine="12" d="M157.85,229.632 C139.31,257.082 99.99,315.282 79.32,345.872 " fill="none" id="Gráfico-to-Rango" style="stroke:#181818;stroke-width:1.0;stroke-dasharray:7.0,7.0;"/><polygon fill="#181818" points="76.42,350.182,84.7737,344.9652,79.2198,346.0394,78.1456,340.4855,76.42,350.182" style="stroke:#181818;stroke-width:1.0;"/></g><!--MD5=[3228dc87e346459663a926bf5312c4ca]
reverse link Tabla to Gráfico--><g id="link_Tabla_Gráfico"><path codeLine="13" d="M97.99,213.602 C107.92,213.602 117.84,213.602 127.76,213.602 " fill="none" id="Tabla-backto-Gráfico" style="stroke:#181818;stroke-width:1.0;stroke-dasharray:7.0,7.0;"/><polygon fill="#181818" points="92.8,213.602,101.8,217.602,97.8,213.602,101.8,209.602,92.8,213.602" style="stroke:#181818;stroke-width:1.0;"/></g><!--MD5=[b92a3762b92a2308633ceead051c479c]
reverse link TablaDinámica to Gráfico--><g id="link_TablaDinámica_Gráfico"><path codeLine="14" d="M98.42,81.272 C114.54,111.702 145.2,169.562 159.83,197.182 " fill="none" id="TablaDinámica-backto-Gráfico" style="stroke:#181818;stroke-width:1.0;stroke-dasharray:7.0,7.0;"/><polygon fill="#181818" points="95.96,76.632,96.6461,86.4569,98.304,81.0485,103.7125,82.7065,95.96,76.632" style="stroke:#181818;stroke-width:1.0;"/></g><!--MD5=[db9a0185e6bb728372c9aa35f1d5e4d2]
@startuml
hide empty members

package Hoja {
    interface Comportamiento
    Rango *-d- Celda
    Rango <|-r- Vector 
    Vector <|- - Fila
    Vector <|- - Columna
    TablaDinámica *-d- Tabla
    Tabla o-d- Rango
    TablaDinámica -r-|> Comportamiento
    Gráfico ...> Rango
    Gráfico .l..> Tabla
    Gráfico .u..> TablaDinámica
}

class Celda{
    dirección
}
@enduml

PlantUML version 1.2022.7(Mon Aug 22 19:01:30 CEST 2022)
(GPL source distribution)
Java Runtime: OpenJDK Runtime Environment
JVM: OpenJDK 64-Bit Server VM
Default Encoding: UTF-8
Language: es
Country: ES
--></g></svg>