<?xml version="1.0" encoding="UTF-8" standalone="no"?><svg xmlns="http://www.w3.org/2000/svg" xmlns:xlink="http://www.w3.org/1999/xlink" contentStyleType="text/css" height="586px" preserveAspectRatio="none" style="width:352px;height:586px;background:#FFFFFF;" version="1.1" viewBox="0 0 352 586" width="352px" zoomAndPan="magnify"><defs/><g><!--MD5=[d4221f7ff56bf344d21a538edd052ed4]
cluster Hoja--><g id="cluster_Hoja"><path d="M8.5,6.602 L41.5,6.602 A3.75,3.75 0 0 1 44,9.102 L51,31.6699 L342.5,31.6699 A2.5,2.5 0 0 1 345,34.1699 L345,577.102 A2.5,2.5 0 0 1 342.5,579.602 L8.5,579.602 A2.5,2.5 0 0 1 6,577.102 L6,9.102 A2.5,2.5 0 0 1 8.5,6.602 " fill="none" style="stroke:#000000;stroke-width:1.5;"/><line style="stroke:#000000;stroke-width:1.5;" x1="6" x2="51" y1="31.6699" y2="31.6699"/><text fill="#000000" font-family="sans-serif" font-size="14" font-weight="bold" lengthAdjust="spacing" textLength="32" x="10" y="23.5679">Hoja</text></g><!--MD5=[c712e45ccbc043d46b3c2a034822e49e]
class Comportamiento--><g id="elem_Comportamiento"><rect codeLine="4" fill="#F1F1F1" height="32" id="Comportamiento" rx="2.5" ry="2.5" style="stroke:#181818;stroke-width:0.5;" width="139" x="189.5" y="44.602"/><ellipse cx="204.5" cy="60.602" fill="#B4A7E5" rx="11" ry="11" style="stroke:#181818;stroke-width:1.0;"/><path d="M200.5313,67.102 L200.5313,65.3989 L202.8906,65.1332 L202.8906,56.9301 L200.5313,56.6645 L200.5313,54.9614 L207.6719,54.9614 L207.6719,56.6645 L205.25,56.9301 L205.25,65.1332 L207.6719,65.3989 L207.6719,67.102 L200.5313,67.102 Z " fill="#000000"/><text fill="#000000" font-family="sans-serif" font-size="14" font-style="italic" lengthAdjust="spacing" textLength="107" x="218.5" y="66.034">Comportamiento</text></g><!--MD5=[82e27fb166823a88ccdce1f374a2cdce]
class Rango--><g id="elem_Rango"><rect fill="#F1F1F1" height="32" id="Rango" rx="2.5" ry="2.5" style="stroke:#181818;stroke-width:0.5;" width="75" x="21.5" y="228.602"/><ellipse cx="36.5" cy="244.602" fill="#ADD1B2" rx="11" ry="11" style="stroke:#181818;stroke-width:1.0;"/><path d="M35.9688,251.5239 Q34.2188,251.5239 33.0781,250.7895 Q31.9531,250.0395 31.3906,248.6957 Q30.8438,247.3364 30.8438,245.5395 Q30.8438,243.5082 31.5,242.0551 Q32.1563,240.602 33.4375,239.8207 Q34.7188,239.0395 36.5938,239.0395 Q37.4844,239.0395 38.1563,239.227 Q38.8281,239.3989 39.5156,239.7426 L38.7031,241.7582 Q38.0781,241.4457 37.5313,241.3207 Q37,241.1957 36.5156,241.1957 Q35.3438,241.1957 34.6406,241.727 Q33.9375,242.2582 33.6406,243.2114 Q33.3438,244.1645 33.3438,245.4301 Q33.3438,247.4457 34.0625,248.4145 Q34.7813,249.3676 36.375,249.3676 Q36.9688,249.3676 37.5938,249.2114 Q38.2188,249.0551 39.0469,248.6801 L39.0469,250.8989 Q38.3125,251.2114 37.5156,251.3676 Q36.7344,251.5239 35.9688,251.5239 Z " fill="#000000"/><text fill="#000000" font-family="sans-serif" font-size="14" lengthAdjust="spacing" textLength="43" x="50.5" y="250.034">Rango</text></g><!--MD5=[adf40df5d88e8c7536c3fcba6ac92691]
class Celda--><g id="elem_Celda"><rect codeLine="17" fill="#F1F1F1" height="59.0679" id="Celda" rx="2.5" ry="2.5" style="stroke:#181818;stroke-width:0.5;" width="74" x="22" y="504.602"/><ellipse cx="38.8" cy="520.602" fill="#ADD1B2" rx="11" ry="11" style="stroke:#181818;stroke-width:1.0;"/><path d="M38.2688,527.5239 Q36.5188,527.5239 35.3781,526.7895 Q34.2531,526.0395 33.6906,524.6957 Q33.1438,523.3364 33.1438,521.5395 Q33.1438,519.5082 33.8,518.0551 Q34.4563,516.602 35.7375,515.8207 Q37.0188,515.0395 38.8938,515.0395 Q39.7844,515.0395 40.4563,515.227 Q41.1281,515.3989 41.8156,515.7426 L41.0031,517.7582 Q40.3781,517.4457 39.8313,517.3207 Q39.3,517.1957 38.8156,517.1957 Q37.6438,517.1957 36.9406,517.727 Q36.2375,518.2582 35.9406,519.2114 Q35.6438,520.1645 35.6438,521.4301 Q35.6438,523.4457 36.3625,524.4145 Q37.0813,525.3676 38.675,525.3676 Q39.2688,525.3676 39.8938,525.2114 Q40.5188,525.0551 41.3469,524.6801 L41.3469,526.8989 Q40.6125,527.2114 39.8156,527.3676 Q39.0344,527.5239 38.2688,527.5239 Z " fill="#000000"/><text fill="#000000" font-family="sans-serif" font-size="14" lengthAdjust="spacing" textLength="38" x="53.2" y="526.034">Celda</text><line style="stroke:#181818;stroke-width:0.5;" x1="23" x2="95" y1="536.602" y2="536.602"/><text fill="#000000" font-family="sans-serif" font-size="14" lengthAdjust="spacing" textLength="62" x="28" y="555.5679">dirección</text></g><!--MD5=[ea775af43a0da7cb543d6bee4ab62c40]
class Vector--><g id="elem_Vector"><rect fill="#F1F1F1" height="32" id="Vector" rx="2.5" ry="2.5" style="stroke:#181818;stroke-width:0.5;" width="74" x="95" y="320.602"/><ellipse cx="110" cy="336.602" fill="#ADD1B2" rx="11" ry="11" style="stroke:#181818;stroke-width:1.0;"/><path d="M109.4688,343.5239 Q107.7188,343.5239 106.5781,342.7895 Q105.4531,342.0395 104.8906,340.6957 Q104.3438,339.3364 104.3438,337.5395 Q104.3438,335.5082 105,334.0551 Q105.6563,332.602 106.9375,331.8207 Q108.2188,331.0395 110.0938,331.0395 Q110.9844,331.0395 111.6563,331.227 Q112.3281,331.3989 113.0156,331.7426 L112.2031,333.7582 Q111.5781,333.4457 111.0313,333.3207 Q110.5,333.1957 110.0156,333.1957 Q108.8438,333.1957 108.1406,333.727 Q107.4375,334.2582 107.1406,335.2114 Q106.8438,336.1645 106.8438,337.4301 Q106.8438,339.4457 107.5625,340.4145 Q108.2813,341.3676 109.875,341.3676 Q110.4688,341.3676 111.0938,341.2114 Q111.7188,341.0551 112.5469,340.6801 L112.5469,342.8989 Q111.8125,343.2114 111.0156,343.3676 Q110.2344,343.5239 109.4688,343.5239 Z " fill="#000000"/><text fill="#000000" font-family="sans-serif" font-size="14" lengthAdjust="spacing" textLength="42" x="124" y="342.034">Vector</text></g><!--MD5=[f410635c2e1e3f8d78eb8aeaf4c2ce80]
class Fila--><g id="elem_Fila"><rect fill="#F1F1F1" height="32" id="Fila" rx="2.5" ry="2.5" style="stroke:#181818;stroke-width:0.5;" width="55" x="99.5" y="412.602"/><ellipse cx="114.5" cy="428.602" fill="#ADD1B2" rx="11" ry="11" style="stroke:#181818;stroke-width:1.0;"/><path d="M113.9688,435.5239 Q112.2188,435.5239 111.0781,434.7895 Q109.9531,434.0395 109.3906,432.6957 Q108.8438,431.3364 108.8438,429.5395 Q108.8438,427.5082 109.5,426.0551 Q110.1563,424.602 111.4375,423.8207 Q112.7188,423.0395 114.5938,423.0395 Q115.4844,423.0395 116.1563,423.227 Q116.8281,423.3989 117.5156,423.7426 L116.7031,425.7582 Q116.0781,425.4457 115.5313,425.3207 Q115,425.1957 114.5156,425.1957 Q113.3438,425.1957 112.6406,425.727 Q111.9375,426.2582 111.6406,427.2114 Q111.3438,428.1645 111.3438,429.4301 Q111.3438,431.4457 112.0625,432.4145 Q112.7813,433.3676 114.375,433.3676 Q114.9688,433.3676 115.5938,433.2114 Q116.2188,433.0551 117.0469,432.6801 L117.0469,434.8989 Q116.3125,435.2114 115.5156,435.3676 Q114.7344,435.5239 113.9688,435.5239 Z " fill="#000000"/><text fill="#000000" font-family="sans-serif" font-size="14" lengthAdjust="spacing" textLength="23" x="128.5" y="434.034">Fila</text></g><!--MD5=[b3c1cf956186637ecfee464b9c8cf581]
class Columna--><g id="elem_Columna"><rect fill="#F1F1F1" height="32" id="Columna" rx="2.5" ry="2.5" style="stroke:#181818;stroke-width:0.5;" width="92" x="190" y="412.602"/><ellipse cx="205" cy="428.602" fill="#ADD1B2" rx="11" ry="11" style="stroke:#181818;stroke-width:1.0;"/><path d="M204.4688,435.5239 Q202.7188,435.5239 201.5781,434.7895 Q200.4531,434.0395 199.8906,432.6957 Q199.3438,431.3364 199.3438,429.5395 Q199.3438,427.5082 200,426.0551 Q200.6563,424.602 201.9375,423.8207 Q203.2188,423.0395 205.0938,423.0395 Q205.9844,423.0395 206.6563,423.227 Q207.3281,423.3989 208.0156,423.7426 L207.2031,425.7582 Q206.5781,425.4457 206.0313,425.3207 Q205.5,425.1957 205.0156,425.1957 Q203.8438,425.1957 203.1406,425.727 Q202.4375,426.2582 202.1406,427.2114 Q201.8438,428.1645 201.8438,429.4301 Q201.8438,431.4457 202.5625,432.4145 Q203.2813,433.3676 204.875,433.3676 Q205.4688,433.3676 206.0938,433.2114 Q206.7188,433.0551 207.5469,432.6801 L207.5469,434.8989 Q206.8125,435.2114 206.0156,435.3676 Q205.2344,435.5239 204.4688,435.5239 Z " fill="#000000"/><text fill="#000000" font-family="sans-serif" font-size="14" lengthAdjust="spacing" textLength="60" x="219" y="434.034">Columna</text></g><!--MD5=[bcfd2d4f3f6201ef500c016780876d67]
class Tabla--><g id="elem_Tabla"><rect fill="#F1F1F1" height="32" id="Tabla" rx="2.5" ry="2.5" style="stroke:#181818;stroke-width:0.5;" width="69" x="53.5" y="136.602"/><ellipse cx="68.5" cy="152.602" fill="#ADD1B2" rx="11" ry="11" style="stroke:#181818;stroke-width:1.0;"/><path d="M67.9688,159.5239 Q66.2188,159.5239 65.0781,158.7895 Q63.9531,158.0395 63.3906,156.6957 Q62.8438,155.3364 62.8438,153.5395 Q62.8438,151.5082 63.5,150.0551 Q64.1563,148.602 65.4375,147.8207 Q66.7188,147.0395 68.5938,147.0395 Q69.4844,147.0395 70.1563,147.227 Q70.8281,147.3989 71.5156,147.7426 L70.7031,149.7582 Q70.0781,149.4457 69.5313,149.3207 Q69,149.1957 68.5156,149.1957 Q67.3438,149.1957 66.6406,149.727 Q65.9375,150.2582 65.6406,151.2114 Q65.3438,152.1645 65.3438,153.4301 Q65.3438,155.4457 66.0625,156.4145 Q66.7813,157.3676 68.375,157.3676 Q68.9688,157.3676 69.5938,157.2114 Q70.2188,157.0551 71.0469,156.6801 L71.0469,158.8989 Q70.3125,159.2114 69.5156,159.3676 Q68.7344,159.5239 67.9688,159.5239 Z " fill="#000000"/><text fill="#000000" font-family="sans-serif" font-size="14" lengthAdjust="spacing" textLength="37" x="82.5" y="158.034">Tabla</text></g><!--MD5=[87e2a843b07d4b38c27231e3064fa202]
class TablaDinámica--><g id="elem_TablaDinámica"><rect fill="#F1F1F1" height="32" id="TablaDinámica" rx="2.5" ry="2.5" style="stroke:#181818;stroke-width:0.5;" width="132" x="22" y="44.602"/><ellipse cx="37" cy="60.602" fill="#ADD1B2" rx="11" ry="11" style="stroke:#181818;stroke-width:1.0;"/><path d="M36.4688,67.5239 Q34.7188,67.5239 33.5781,66.7895 Q32.4531,66.0395 31.8906,64.6957 Q31.3438,63.3364 31.3438,61.5395 Q31.3438,59.5082 32,58.0551 Q32.6563,56.602 33.9375,55.8207 Q35.2188,55.0395 37.0938,55.0395 Q37.9844,55.0395 38.6563,55.227 Q39.3281,55.3989 40.0156,55.7426 L39.2031,57.7582 Q38.5781,57.4457 38.0313,57.3207 Q37.5,57.1957 37.0156,57.1957 Q35.8438,57.1957 35.1406,57.727 Q34.4375,58.2582 34.1406,59.2114 Q33.8438,60.1645 33.8438,61.4301 Q33.8438,63.4457 34.5625,64.4145 Q35.2813,65.3676 36.875,65.3676 Q37.4688,65.3676 38.0938,65.2114 Q38.7188,65.0551 39.5469,64.6801 L39.5469,66.8989 Q38.8125,67.2114 38.0156,67.3676 Q37.2344,67.5239 36.4688,67.5239 Z " fill="#000000"/><text fill="#000000" font-family="sans-serif" font-size="14" lengthAdjust="spacing" textLength="100" x="51" y="66.034">TablaDinámica</text></g><!--MD5=[eac60b95adf5cf983505f7a75f2bd9b8]
class Gráfico--><g id="elem_Gráfico"><rect fill="#F1F1F1" height="32" id="Gráfico" rx="2.5" ry="2.5" style="stroke:#181818;stroke-width:0.5;" width="80" x="132" y="228.602"/><ellipse cx="147" cy="244.602" fill="#ADD1B2" rx="11" ry="11" style="stroke:#181818;stroke-width:1.0;"/><path d="M146.4688,251.5239 Q144.7188,251.5239 143.5781,250.7895 Q142.4531,250.0395 141.8906,248.6957 Q141.3438,247.3364 141.3438,245.5395 Q141.3438,243.5082 142,242.0551 Q142.6563,240.602 143.9375,239.8207 Q145.2188,239.0395 147.0938,239.0395 Q147.9844,239.0395 148.6563,239.227 Q149.3281,239.3989 150.0156,239.7426 L149.2031,241.7582 Q148.5781,241.4457 148.0313,241.3207 Q147.5,241.1957 147.0156,241.1957 Q145.8438,241.1957 145.1406,241.727 Q144.4375,242.2582 144.1406,243.2114 Q143.8438,244.1645 143.8438,245.4301 Q143.8438,247.4457 144.5625,248.4145 Q145.2813,249.3676 146.875,249.3676 Q147.4688,249.3676 148.0938,249.2114 Q148.7188,249.0551 149.5469,248.6801 L149.5469,250.8989 Q148.8125,251.2114 148.0156,251.3676 Q147.2344,251.5239 146.4688,251.5239 Z " fill="#000000"/><text fill="#000000" font-family="sans-serif" font-size="14" lengthAdjust="spacing" textLength="48" x="161" y="250.034">Gráfico</text></g><!--MD5=[cfabbeabd4acf42d93c0d6a363202897]
reverse link Rango to Celda--><g id="link_Rango_Celda"><path codeLine="5" d="M59,273.682 C59,328.522 59,449.302 59,504.532 " fill="none" id="Rango-backto-Celda" style="stroke:#181818;stroke-width:1.0;"/><polygon fill="#181818" points="59,260.652,55,266.652,59,272.652,63,266.652,59,260.652" style="stroke:#181818;stroke-width:1.0;"/></g><!--MD5=[7c3383a1ed47b6a066234f796d4e2336]
reverse link Rango to Vector--><g id="link_Rango_Vector"><path codeLine="6" d="M84.31,276.812 C96.33,291.632 110.14,308.662 119.8,320.562 " fill="none" id="Rango-backto-Vector" style="stroke:#181818;stroke-width:1.0;"/><polygon fill="none" points="78.55,280.812,71.38,260.872,89.42,271.992,78.55,280.812" style="stroke:#181818;stroke-width:1.0;"/></g><!--MD5=[4ea6c9a40400ecadc94156b66c86789e]
reverse link Vector to Fila--><g id="link_Vector_Fila"><path codeLine="7" d="M130.02,373.212 C129.26,386.912 128.43,401.822 127.84,412.562 " fill="none" id="Vector-backto-Fila" style="stroke:#181818;stroke-width:1.0;"/><polygon fill="none" points="123.05,372.452,131.15,352.872,137.03,373.222,123.05,372.452" style="stroke:#181818;stroke-width:1.0;"/></g><!--MD5=[b71806f34a08d667a2f73745d445dfb5]
reverse link Vector to Columna--><g id="link_Vector_Columna"><path codeLine="8" d="M165.02,366.182 C182.81,381.572 204.04,399.942 218.62,412.562 " fill="none" id="Vector-backto-Columna" style="stroke:#181818;stroke-width:1.0;"/><polygon fill="none" points="160.18,371.252,149.64,352.872,169.35,360.662,160.18,371.252" style="stroke:#181818;stroke-width:1.0;"/></g><!--MD5=[ec6b96de8ad251acc15c0187009810a2]
reverse link Tabla to Rango--><g id="link_Tabla_Rango"><path codeLine="9" d="M79.02,181.472 C74.01,197.012 67.97,215.752 63.85,228.562 " fill="none" id="Tabla-backto-Rango" style="stroke:#181818;stroke-width:1.0;"/><polygon fill="none" points="83.08,168.872,77.4328,173.3563,79.4002,180.2939,85.0474,175.8095,83.08,168.872" style="stroke:#181818;stroke-width:1.0;"/></g><!--MD5=[fe5fa89c3d7f42b0b80557d890fe4cec]
reverse link TablaDinámica to Tabla--><g id="link_TablaDinámica_Tabla"><path codeLine="10" d="M88,89.942 C88,105.392 88,123.882 88,136.562 " fill="none" id="TablaDinámica-backto-Tabla" style="stroke:#181818;stroke-width:1.0;"/><polygon fill="#181818" points="88,76.872,84,82.872,88,88.872,92,82.872,88,76.872" style="stroke:#181818;stroke-width:1.0;"/></g><!--MD5=[9a3b42923a12225bd5dc9e22570db4af]
link TablaDinámica to Comportamiento--><g id="link_TablaDinámica_Comportamiento"><path codeLine="11" d="M154.13,60.602 C159.17,60.602 164.22,60.602 169.27,60.602 " fill="none" id="TablaDinámica-to-Comportamiento" style="stroke:#181818;stroke-width:1.0;"/><polygon fill="none" points="169.36,53.602,189.36,60.602,169.36,67.602,169.36,53.602" style="stroke:#181818;stroke-width:1.0;"/></g><!--MD5=[265e7b2dc68ce38688be90fd173b36bc]
reverse link Rango to Gráfico--><g id="link_Rango_Gráfico"><path codeLine="12" d="M101.77,244.602 C111.81,244.602 121.86,244.602 131.9,244.602 " fill="none" id="Rango-backto-Gráfico" style="stroke:#181818;stroke-width:1.0;stroke-dasharray:7.0,7.0;"/><polygon fill="#181818" points="96.52,244.602,105.52,248.602,101.52,244.602,105.52,240.602,96.52,244.602" style="stroke:#181818;stroke-width:1.0;"/></g><!--MD5=[a650abe8fabf84fa34cebd5e970007a0]
link Gráfico to Tabla--><g id="link_Gráfico_Tabla"><path codeLine="13" d="M157.96,228.562 C143.71,213.292 121.59,189.592 106.05,172.942 " fill="none" id="Gráfico-to-Tabla" style="stroke:#181818;stroke-width:1.0;stroke-dasharray:7.0,7.0;"/><polygon fill="#181818" points="102.25,168.872,105.4679,178.1803,105.6621,172.5268,111.3156,172.7209,102.25,168.872" style="stroke:#181818;stroke-width:1.0;"/></g><!--MD5=[d92f5594648a8a25c9171caf0c6e7dd3]
link Gráfico to TablaDinámica--><g id="link_Gráfico_TablaDinámica"><path codeLine="14" d="M169.07,228.512 C164.59,207.282 154.96,167.702 140,136.602 C130.2,116.242 115.19,95.292 103.81,80.732 " fill="none" id="Gráfico-to-TablaDinámica" style="stroke:#181818;stroke-width:1.0;stroke-dasharray:7.0,7.0;"/><polygon fill="#181818" points="100.7,76.802,103.1519,86.3407,103.8042,80.7216,109.4234,81.374,100.7,76.802" style="stroke:#181818;stroke-width:1.0;"/></g><!--MD5=[c9158d36e76c1729fed504557988eec2]
@startuml
hide empty members

package Hoja {
    interface Comportamiento
    Rango *-d- - - Celda
    Rango <|- - Vector 
    Vector <|- - Fila
    Vector <|- - Columna
    Tabla o-d- Rango
    TablaDinámica *-d- Tabla
    TablaDinámica -r-|> Comportamiento
    Gráfico .l.> Rango
    Gráfico ..> Tabla
    Gráfico ..> TablaDinámica
}

class Celda{
    dirección
}
@enduml

PlantUML version 1.2022.7(Mon Aug 22 19:01:30 CEST 2022)
(GPL source distribution)
Java Runtime: OpenJDK Runtime Environment
JVM: OpenJDK 64-Bit Server VM
Default Encoding: UTF-8
Language: es
Country: ES
--></g></svg>