<?xml version="1.0" encoding="UTF-8" standalone="no"?><svg xmlns="http://www.w3.org/2000/svg" xmlns:xlink="http://www.w3.org/1999/xlink" contentStyleType="text/css" height="594px" preserveAspectRatio="none" style="width:400px;height:594px;background:#FFFFFF;" version="1.1" viewBox="0 0 400 594" width="400px" zoomAndPan="magnify"><defs/><g><!--MD5=[7f894e58660766da5a614092e402b98f]
cluster Libro--><g id="cluster_Libro"><path d="M8.5,6.602 L45.5,6.602 A3.75,3.75 0 0 1 48,9.102 L55,31.6699 L390.5,31.6699 A2.5,2.5 0 0 1 393,34.1699 L393,585.102 A2.5,2.5 0 0 1 390.5,587.602 L8.5,587.602 A2.5,2.5 0 0 1 6,585.102 L6,9.102 A2.5,2.5 0 0 1 8.5,6.602 " fill="none" style="stroke:#000000;stroke-width:1.5;"/><line style="stroke:#000000;stroke-width:1.5;" x1="6" x2="55" y1="31.6699" y2="31.6699"/><text fill="#000000" font-family="sans-serif" font-size="14" font-weight="bold" lengthAdjust="spacing" textLength="36" x="10" y="23.5679">Libro</text></g><!--MD5=[d4221f7ff56bf344d21a538edd052ed4]
cluster Hoja--><g id="cluster_Hoja"><path d="M32.5,52.602 L65.5,52.602 A3.75,3.75 0 0 1 68,55.102 L75,77.6699 L366.5,77.6699 A2.5,2.5 0 0 1 369,80.1699 L369,561.102 A2.5,2.5 0 0 1 366.5,563.602 L32.5,563.602 A2.5,2.5 0 0 1 30,561.102 L30,55.102 A2.5,2.5 0 0 1 32.5,52.602 " fill="none" style="stroke:#000000;stroke-width:1.5;"/><line style="stroke:#000000;stroke-width:1.5;" x1="30" x2="75" y1="77.6699" y2="77.6699"/><text fill="#000000" font-family="sans-serif" font-size="14" font-weight="bold" lengthAdjust="spacing" textLength="32" x="34" y="69.5679">Hoja</text></g><!--MD5=[c712e45ccbc043d46b3c2a034822e49e]
class Comportamiento--><g id="elem_Comportamiento"><rect codeLine="6" fill="#F1F1F1" height="32" id="Comportamiento" rx="2.5" ry="2.5" style="stroke:#181818;stroke-width:0.5;" width="139" x="213.5" y="90.602"/><ellipse cx="228.5" cy="106.602" fill="#B4A7E5" rx="11" ry="11" style="stroke:#181818;stroke-width:1.0;"/><path d="M224.5313,113.102 L224.5313,111.3989 L226.8906,111.1332 L226.8906,102.9301 L224.5313,102.6645 L224.5313,100.9614 L231.6719,100.9614 L231.6719,102.6645 L229.25,102.9301 L229.25,111.1332 L231.6719,111.3989 L231.6719,113.102 L224.5313,113.102 Z " fill="#000000"/><text fill="#000000" font-family="sans-serif" font-size="14" font-style="italic" lengthAdjust="spacing" textLength="107" x="242.5" y="112.034">Comportamiento</text></g><!--MD5=[82e27fb166823a88ccdce1f374a2cdce]
class Rango--><g id="elem_Rango"><rect fill="#F1F1F1" height="32" id="Rango" rx="2.5" ry="2.5" style="stroke:#181818;stroke-width:0.5;" width="75" x="52.5" y="396.602"/><ellipse cx="67.5" cy="412.602" fill="#ADD1B2" rx="11" ry="11" style="stroke:#181818;stroke-width:1.0;"/><path d="M66.9688,419.5239 Q65.2188,419.5239 64.0781,418.7895 Q62.9531,418.0395 62.3906,416.6957 Q61.8438,415.3364 61.8438,413.5395 Q61.8438,411.5082 62.5,410.0551 Q63.1563,408.602 64.4375,407.8207 Q65.7188,407.0395 67.5938,407.0395 Q68.4844,407.0395 69.1563,407.227 Q69.8281,407.3989 70.5156,407.7426 L69.7031,409.7582 Q69.0781,409.4457 68.5313,409.3207 Q68,409.1957 67.5156,409.1957 Q66.3438,409.1957 65.6406,409.727 Q64.9375,410.2582 64.6406,411.2114 Q64.3438,412.1645 64.3438,413.4301 Q64.3438,415.4457 65.0625,416.4145 Q65.7813,417.3676 67.375,417.3676 Q67.9688,417.3676 68.5938,417.2114 Q69.2188,417.0551 70.0469,416.6801 L70.0469,418.8989 Q69.3125,419.2114 68.5156,419.3676 Q67.7344,419.5239 66.9688,419.5239 Z " fill="#000000"/><text fill="#000000" font-family="sans-serif" font-size="14" lengthAdjust="spacing" textLength="43" x="81.5" y="418.034">Rango</text></g><!--MD5=[adf40df5d88e8c7536c3fcba6ac92691]
class Celda--><g id="elem_Celda"><rect codeLine="21" fill="#F1F1F1" height="59.0679" id="Celda" rx="2.5" ry="2.5" style="stroke:#181818;stroke-width:0.5;" width="74" x="53" y="488.602"/><ellipse cx="69.8" cy="504.602" fill="#ADD1B2" rx="11" ry="11" style="stroke:#181818;stroke-width:1.0;"/><path d="M69.2688,511.5239 Q67.5188,511.5239 66.3781,510.7895 Q65.2531,510.0395 64.6906,508.6957 Q64.1438,507.3364 64.1438,505.5395 Q64.1438,503.5082 64.8,502.0551 Q65.4563,500.602 66.7375,499.8207 Q68.0188,499.0395 69.8938,499.0395 Q70.7844,499.0395 71.4563,499.227 Q72.1281,499.3989 72.8156,499.7426 L72.0031,501.7582 Q71.3781,501.4457 70.8313,501.3207 Q70.3,501.1957 69.8156,501.1957 Q68.6438,501.1957 67.9406,501.727 Q67.2375,502.2582 66.9406,503.2114 Q66.6438,504.1645 66.6438,505.4301 Q66.6438,507.4457 67.3625,508.4145 Q68.0813,509.3676 69.675,509.3676 Q70.2688,509.3676 70.8938,509.2114 Q71.5188,509.0551 72.3469,508.6801 L72.3469,510.8989 Q71.6125,511.2114 70.8156,511.3676 Q70.0344,511.5239 69.2688,511.5239 Z " fill="#000000"/><text fill="#000000" font-family="sans-serif" font-size="14" lengthAdjust="spacing" textLength="38" x="84.2" y="510.034">Celda</text><line style="stroke:#181818;stroke-width:0.5;" x1="54" x2="126" y1="520.602" y2="520.602"/><text fill="#000000" font-family="sans-serif" font-size="14" lengthAdjust="spacing" textLength="62" x="59" y="539.5679">dirección</text></g><!--MD5=[ea775af43a0da7cb543d6bee4ab62c40]
class Vector--><g id="elem_Vector"><rect fill="#F1F1F1" height="32" id="Vector" rx="2.5" ry="2.5" style="stroke:#181818;stroke-width:0.5;" width="74" x="163" y="396.602"/><ellipse cx="178" cy="412.602" fill="#ADD1B2" rx="11" ry="11" style="stroke:#181818;stroke-width:1.0;"/><path d="M177.4688,419.5239 Q175.7188,419.5239 174.5781,418.7895 Q173.4531,418.0395 172.8906,416.6957 Q172.3438,415.3364 172.3438,413.5395 Q172.3438,411.5082 173,410.0551 Q173.6563,408.602 174.9375,407.8207 Q176.2188,407.0395 178.0938,407.0395 Q178.9844,407.0395 179.6563,407.227 Q180.3281,407.3989 181.0156,407.7426 L180.2031,409.7582 Q179.5781,409.4457 179.0313,409.3207 Q178.5,409.1957 178.0156,409.1957 Q176.8438,409.1957 176.1406,409.727 Q175.4375,410.2582 175.1406,411.2114 Q174.8438,412.1645 174.8438,413.4301 Q174.8438,415.4457 175.5625,416.4145 Q176.2813,417.3676 177.875,417.3676 Q178.4688,417.3676 179.0938,417.2114 Q179.7188,417.0551 180.5469,416.6801 L180.5469,418.8989 Q179.8125,419.2114 179.0156,419.3676 Q178.2344,419.5239 177.4688,419.5239 Z " fill="#000000"/><text fill="#000000" font-family="sans-serif" font-size="14" lengthAdjust="spacing" textLength="42" x="192" y="418.034">Vector</text></g><!--MD5=[f410635c2e1e3f8d78eb8aeaf4c2ce80]
class Fila--><g id="elem_Fila"><rect fill="#F1F1F1" height="32" id="Fila" rx="2.5" ry="2.5" style="stroke:#181818;stroke-width:0.5;" width="55" x="166.5" y="502.102"/><ellipse cx="181.5" cy="518.102" fill="#ADD1B2" rx="11" ry="11" style="stroke:#181818;stroke-width:1.0;"/><path d="M180.9688,525.0239 Q179.2188,525.0239 178.0781,524.2895 Q176.9531,523.5395 176.3906,522.1957 Q175.8438,520.8364 175.8438,519.0395 Q175.8438,517.0082 176.5,515.5551 Q177.1563,514.102 178.4375,513.3207 Q179.7188,512.5395 181.5938,512.5395 Q182.4844,512.5395 183.1563,512.727 Q183.8281,512.8989 184.5156,513.2426 L183.7031,515.2582 Q183.0781,514.9457 182.5313,514.8207 Q182,514.6957 181.5156,514.6957 Q180.3438,514.6957 179.6406,515.227 Q178.9375,515.7582 178.6406,516.7114 Q178.3438,517.6645 178.3438,518.9301 Q178.3438,520.9457 179.0625,521.9145 Q179.7813,522.8676 181.375,522.8676 Q181.9688,522.8676 182.5938,522.7114 Q183.2188,522.5551 184.0469,522.1801 L184.0469,524.3989 Q183.3125,524.7114 182.5156,524.8676 Q181.7344,525.0239 180.9688,525.0239 Z " fill="#000000"/><text fill="#000000" font-family="sans-serif" font-size="14" lengthAdjust="spacing" textLength="23" x="195.5" y="523.534">Fila</text></g><!--MD5=[b3c1cf956186637ecfee464b9c8cf581]
class Columna--><g id="elem_Columna"><rect fill="#F1F1F1" height="32" id="Columna" rx="2.5" ry="2.5" style="stroke:#181818;stroke-width:0.5;" width="92" x="257" y="502.102"/><ellipse cx="272" cy="518.102" fill="#ADD1B2" rx="11" ry="11" style="stroke:#181818;stroke-width:1.0;"/><path d="M271.4688,525.0239 Q269.7188,525.0239 268.5781,524.2895 Q267.4531,523.5395 266.8906,522.1957 Q266.3438,520.8364 266.3438,519.0395 Q266.3438,517.0082 267,515.5551 Q267.6563,514.102 268.9375,513.3207 Q270.2188,512.5395 272.0938,512.5395 Q272.9844,512.5395 273.6563,512.727 Q274.3281,512.8989 275.0156,513.2426 L274.2031,515.2582 Q273.5781,514.9457 273.0313,514.8207 Q272.5,514.6957 272.0156,514.6957 Q270.8438,514.6957 270.1406,515.227 Q269.4375,515.7582 269.1406,516.7114 Q268.8438,517.6645 268.8438,518.9301 Q268.8438,520.9457 269.5625,521.9145 Q270.2813,522.8676 271.875,522.8676 Q272.4688,522.8676 273.0938,522.7114 Q273.7188,522.5551 274.5469,522.1801 L274.5469,524.3989 Q273.8125,524.7114 273.0156,524.8676 Q272.2344,525.0239 271.4688,525.0239 Z " fill="#000000"/><text fill="#000000" font-family="sans-serif" font-size="14" lengthAdjust="spacing" textLength="60" x="286" y="523.534">Columna</text></g><!--MD5=[87e2a843b07d4b38c27231e3064fa202]
class TablaDinámica--><g id="elem_TablaDinámica"><rect fill="#F1F1F1" height="32" id="TablaDinámica" rx="2.5" ry="2.5" style="stroke:#181818;stroke-width:0.5;" width="132" x="46" y="90.602"/><ellipse cx="61" cy="106.602" fill="#ADD1B2" rx="11" ry="11" style="stroke:#181818;stroke-width:1.0;"/><path d="M60.4688,113.5239 Q58.7188,113.5239 57.5781,112.7895 Q56.4531,112.0395 55.8906,110.6957 Q55.3438,109.3364 55.3438,107.5395 Q55.3438,105.5082 56,104.0551 Q56.6563,102.602 57.9375,101.8207 Q59.2188,101.0395 61.0938,101.0395 Q61.9844,101.0395 62.6563,101.227 Q63.3281,101.3989 64.0156,101.7426 L63.2031,103.7582 Q62.5781,103.4457 62.0313,103.3207 Q61.5,103.1957 61.0156,103.1957 Q59.8438,103.1957 59.1406,103.727 Q58.4375,104.2582 58.1406,105.2114 Q57.8438,106.1645 57.8438,107.4301 Q57.8438,109.4457 58.5625,110.4145 Q59.2813,111.3676 60.875,111.3676 Q61.4688,111.3676 62.0938,111.2114 Q62.7188,111.0551 63.5469,110.6801 L63.5469,112.8989 Q62.8125,113.2114 62.0156,113.3676 Q61.2344,113.5239 60.4688,113.5239 Z " fill="#000000"/><text fill="#000000" font-family="sans-serif" font-size="14" lengthAdjust="spacing" textLength="100" x="75" y="112.034">TablaDinámica</text></g><!--MD5=[bcfd2d4f3f6201ef500c016780876d67]
class Tabla--><g id="elem_Tabla"><rect fill="#F1F1F1" height="32" id="Tabla" rx="2.5" ry="2.5" style="stroke:#181818;stroke-width:0.5;" width="69" x="47.5" y="243.602"/><ellipse cx="62.5" cy="259.602" fill="#ADD1B2" rx="11" ry="11" style="stroke:#181818;stroke-width:1.0;"/><path d="M61.9688,266.5239 Q60.2188,266.5239 59.0781,265.7895 Q57.9531,265.0395 57.3906,263.6957 Q56.8438,262.3364 56.8438,260.5395 Q56.8438,258.5082 57.5,257.0551 Q58.1563,255.602 59.4375,254.8207 Q60.7188,254.0395 62.5938,254.0395 Q63.4844,254.0395 64.1563,254.227 Q64.8281,254.3989 65.5156,254.7426 L64.7031,256.7582 Q64.0781,256.4457 63.5313,256.3207 Q63,256.1957 62.5156,256.1957 Q61.3438,256.1957 60.6406,256.727 Q59.9375,257.2582 59.6406,258.2114 Q59.3438,259.1645 59.3438,260.4301 Q59.3438,262.4457 60.0625,263.4145 Q60.7813,264.3676 62.375,264.3676 Q62.9688,264.3676 63.5938,264.2114 Q64.2188,264.0551 65.0469,263.6801 L65.0469,265.8989 Q64.3125,266.2114 63.5156,266.3676 Q62.7344,266.5239 61.9688,266.5239 Z " fill="#000000"/><text fill="#000000" font-family="sans-serif" font-size="14" lengthAdjust="spacing" textLength="37" x="76.5" y="265.034">Tabla</text></g><!--MD5=[eac60b95adf5cf983505f7a75f2bd9b8]
class Gráfico--><g id="elem_Gráfico"><rect fill="#F1F1F1" height="32" id="Gráfico" rx="2.5" ry="2.5" style="stroke:#181818;stroke-width:0.5;" width="80" x="152" y="243.602"/><ellipse cx="167" cy="259.602" fill="#ADD1B2" rx="11" ry="11" style="stroke:#181818;stroke-width:1.0;"/><path d="M166.4688,266.5239 Q164.7188,266.5239 163.5781,265.7895 Q162.4531,265.0395 161.8906,263.6957 Q161.3438,262.3364 161.3438,260.5395 Q161.3438,258.5082 162,257.0551 Q162.6563,255.602 163.9375,254.8207 Q165.2188,254.0395 167.0938,254.0395 Q167.9844,254.0395 168.6563,254.227 Q169.3281,254.3989 170.0156,254.7426 L169.2031,256.7582 Q168.5781,256.4457 168.0313,256.3207 Q167.5,256.1957 167.0156,256.1957 Q165.8438,256.1957 165.1406,256.727 Q164.4375,257.2582 164.1406,258.2114 Q163.8438,259.1645 163.8438,260.4301 Q163.8438,262.4457 164.5625,263.4145 Q165.2813,264.3676 166.875,264.3676 Q167.4688,264.3676 168.0938,264.2114 Q168.7188,264.0551 169.5469,263.6801 L169.5469,265.8989 Q168.8125,266.2114 168.0156,266.3676 Q167.2344,266.5239 166.4688,266.5239 Z " fill="#000000"/><text fill="#000000" font-family="sans-serif" font-size="14" lengthAdjust="spacing" textLength="48" x="181" y="265.034">Gráfico</text></g><!--MD5=[cfabbeabd4acf42d93c0d6a363202897]
reverse link Rango to Celda--><g id="link_Rango_Celda"><path codeLine="7" d="M90,442.062 C90,456.502 90,473.992 90,488.452 " fill="none" id="Rango-backto-Celda" style="stroke:#181818;stroke-width:1.0;"/><polygon fill="#181818" points="90,428.872,86,434.872,90,440.872,94,434.872,90,428.872" style="stroke:#181818;stroke-width:1.0;"/></g><!--MD5=[7c3383a1ed47b6a066234f796d4e2336]
reverse link Rango to Vector--><g id="link_Rango_Vector"><path codeLine="8" d="M148.03,412.602 C152.94,412.602 157.86,412.602 162.78,412.602 " fill="none" id="Rango-backto-Vector" style="stroke:#181818;stroke-width:1.0;"/><polygon fill="none" points="147.81,419.602,127.81,412.602,147.81,405.602,147.81,419.602" style="stroke:#181818;stroke-width:1.0;"/></g><!--MD5=[4ea6c9a40400ecadc94156b66c86789e]
reverse link Vector to Fila--><g id="link_Vector_Fila"><path codeLine="9" d="M197.95,449.002 C196.9,466.992 195.69,487.912 194.89,501.772 " fill="none" id="Vector-backto-Fila" style="stroke:#181818;stroke-width:1.0;"/><polygon fill="none" points="190.97,448.432,199.11,428.872,204.95,449.242,190.97,448.432" style="stroke:#181818;stroke-width:1.0;"/></g><!--MD5=[b71806f34a08d667a2f73745d445dfb5]
reverse link Vector to Columna--><g id="link_Vector_Columna"><path codeLine="10" d="M229.42,443.162 C248.44,462.282 272.43,486.382 287.74,501.772 " fill="none" id="Vector-backto-Columna" style="stroke:#181818;stroke-width:1.0;"/><polygon fill="none" points="224.34,447.992,215.2,428.872,234.27,438.112,224.34,447.992" style="stroke:#181818;stroke-width:1.0;"/></g><!--MD5=[fe5fa89c3d7f42b0b80557d890fe4cec]
reverse link TablaDinámica to Tabla--><g id="link_TablaDinámica_Tabla"><path codeLine="11" d="M106.41,135.742 C100.1,167.482 90.08,217.952 85.06,243.182 " fill="none" id="TablaDinámica-backto-Tabla" style="stroke:#181818;stroke-width:1.0;"/><polygon fill="#181818" points="109.01,122.632,103.9132,127.7332,106.6617,134.4,111.7585,129.2987,109.01,122.632" style="stroke:#181818;stroke-width:1.0;"/></g><!--MD5=[ec6b96de8ad251acc15c0187009810a2]
reverse link Tabla to Rango--><g id="link_Tabla_Rango"><path codeLine="12" d="M83.49,288.742 C85.17,320.482 87.85,370.952 89.18,396.182 " fill="none" id="Tabla-backto-Rango" style="stroke:#181818;stroke-width:1.0;"/><polygon fill="none" points="82.8,275.632,79.122,281.8346,83.4328,287.6153,87.1108,281.4127,82.8,275.632" style="stroke:#181818;stroke-width:1.0;"/></g><!--MD5=[9a3b42923a12225bd5dc9e22570db4af]
link TablaDinámica to Comportamiento--><g id="link_TablaDinámica_Comportamiento"><path codeLine="13" d="M178.13,106.602 C183.17,106.602 188.22,106.602 193.27,106.602 " fill="none" id="TablaDinámica-to-Comportamiento" style="stroke:#181818;stroke-width:1.0;"/><polygon fill="none" points="193.36,99.602,213.36,106.602,193.36,113.602,193.36,99.602" style="stroke:#181818;stroke-width:1.0;"/></g><!--MD5=[7da432ab0efc27fc20657ccf79fc5baa]
link Gráfico to Rango--><g id="link_Gráfico_Rango"><path codeLine="14" d="M181.85,275.632 C163.31,303.082 123.99,361.282 103.32,391.872 " fill="none" id="Gráfico-to-Rango" style="stroke:#181818;stroke-width:1.0;stroke-dasharray:7.0,7.0;"/><polygon fill="#181818" points="100.42,396.182,108.7737,390.9652,103.2198,392.0394,102.1456,386.4855,100.42,396.182" style="stroke:#181818;stroke-width:1.0;"/></g><!--MD5=[3228dc87e346459663a926bf5312c4ca]
reverse link Tabla to Gráfico--><g id="link_Tabla_Gráfico"><path codeLine="15" d="M121.99,259.602 C131.92,259.602 141.84,259.602 151.76,259.602 " fill="none" id="Tabla-backto-Gráfico" style="stroke:#181818;stroke-width:1.0;stroke-dasharray:7.0,7.0;"/><polygon fill="#181818" points="116.8,259.602,125.8,263.602,121.8,259.602,125.8,255.602,116.8,259.602" style="stroke:#181818;stroke-width:1.0;"/></g><!--MD5=[b92a3762b92a2308633ceead051c479c]
reverse link TablaDinámica to Gráfico--><g id="link_TablaDinámica_Gráfico"><path codeLine="16" d="M122.42,127.272 C138.54,157.702 169.2,215.562 183.83,243.182 " fill="none" id="TablaDinámica-backto-Gráfico" style="stroke:#181818;stroke-width:1.0;stroke-dasharray:7.0,7.0;"/><polygon fill="#181818" points="119.96,122.632,120.6461,132.4569,122.304,127.0485,127.7125,128.7065,119.96,122.632" style="stroke:#181818;stroke-width:1.0;"/></g><!--MD5=[5ce1cc0181dae3786ac44a73597e195e]
@startuml
hide empty members

package Libro{

    package Hoja {
        interface Comportamiento
        Rango *-d- Celda
        Rango <|-r- Vector 
        Vector <|- - Fila
        Vector <|- - Columna
        TablaDinámica *-d- Tabla
        Tabla o-d- Rango
        TablaDinámica -r-|> Comportamiento
        Gráfico ...> Rango
        Gráfico .l..> Tabla
        Gráfico .u..> TablaDinámica
    }
}


class Celda{
    dirección
}
@enduml

PlantUML version 1.2022.7(Mon Aug 22 19:01:30 CEST 2022)
(GPL source distribution)
Java Runtime: OpenJDK Runtime Environment
JVM: OpenJDK 64-Bit Server VM
Default Encoding: UTF-8
Language: es
Country: ES
--></g></svg>