<?xml version="1.0" encoding="us-ascii" standalone="no"?><svg xmlns="http://www.w3.org/2000/svg" xmlns:xlink="http://www.w3.org/1999/xlink" contentStyleType="text/css" height="800px" preserveAspectRatio="none" style="width:728px;height:800px;background:#FFFFFF;" version="1.1" viewBox="0 0 728 800" width="728px" zoomAndPan="magnify"><defs/><g><!--class LibroDeTrabajo--><g id="elem_LibroDeTrabajo"><rect codeLine="5" fill="#F1F1F1" height="56.1358" id="LibroDeTrabajo" rx="2.5" ry="2.5" style="stroke:#181818;stroke-width:0.5;" width="193" x="189" y="35.5"/><text fill="#000000" font-family="sans-serif" font-size="14" lengthAdjust="spacing" textLength="103" x="234" y="55.4659">LibroDeTrabajo</text><line style="stroke:#181818;stroke-width:0.5;" x1="190" x2="381" y1="64.5679" y2="64.5679"/><text fill="#000000" font-family="sans-serif" font-size="14" lengthAdjust="spacing" textLength="181" x="195" y="83.5339">hojas : HojaDeTrabajo[0..*]</text></g><!--class HojaDeTrabajo--><g id="elem_HojaDeTrabajo"><rect codeLine="9" fill="#F1F1F1" height="94.2717" id="HojaDeTrabajo" rx="2.5" ry="2.5" style="stroke:#181818;stroke-width:0.5;" width="148" x="211.5" y="180"/><text fill="#000000" font-family="sans-serif" font-size="14" lengthAdjust="spacing" textLength="99" x="236" y="199.9659">HojaDeTrabajo</text><line style="stroke:#181818;stroke-width:0.5;" x1="212.5" x2="358.5" y1="209.0679" y2="209.0679"/><text fill="#000000" font-family="sans-serif" font-size="14" lengthAdjust="spacing" textLength="53" x="217.5" y="228.0339">nombre</text><text fill="#000000" font-family="sans-serif" font-size="14" lengthAdjust="spacing" textLength="127" x="217.5" y="247.1018">celdas : Celda[0..*]</text><text fill="#000000" font-family="sans-serif" font-size="14" lengthAdjust="spacing" textLength="136" x="217.5" y="266.1697">rangos : Rango[0..*]</text></g><!--class Celda--><g id="elem_Celda"><rect codeLine="15" fill="#F1F1F1" height="151.4754" id="Celda" rx="2.5" ry="2.5" style="stroke:#181818;stroke-width:0.5;" width="178" x="264.5" y="488"/><text fill="#000000" font-family="sans-serif" font-size="14" lengthAdjust="spacing" textLength="38" x="334.5" y="507.9659">Celda</text><line style="stroke:#181818;stroke-width:0.5;" x1="265.5" x2="441.5" y1="517.0679" y2="517.0679"/><text fill="#000000" font-family="sans-serif" font-size="14" lengthAdjust="spacing" textLength="56" x="270.5" y="536.0339">posici&#243;n</text><text fill="#000000" font-family="sans-serif" font-size="14" lengthAdjust="spacing" textLength="67" x="270.5" y="555.1018">contenido</text><text fill="#000000" font-family="sans-serif" font-size="14" lengthAdjust="spacing" textLength="120" x="270.5" y="574.1697">formato : Formato</text><text fill="#000000" font-family="sans-serif" font-size="14" lengthAdjust="spacing" textLength="120" x="270.5" y="593.2376">f&#243;rmula : F&#243;rmula</text><text fill="#000000" font-family="sans-serif" font-size="14" lengthAdjust="spacing" textLength="166" x="270.5" y="612.3055">comentario : Comentario</text><text fill="#000000" font-family="sans-serif" font-size="14" lengthAdjust="spacing" textLength="140" x="270.5" y="631.3734">estado : EstadoCelda</text></g><!--class EstadoCelda--><g id="elem_EstadoCelda"><rect codeLine="24" fill="#F1F1F1" height="113.3396" id="EstadoCelda" rx="2.5" ry="2.5" style="stroke:#181818;stroke-width:0.5;" width="93" x="417" y="7"/><text fill="#000000" font-family="sans-serif" font-size="14" lengthAdjust="spacing" textLength="83" x="422" y="26.9659">EstadoCelda</text><line style="stroke:#181818;stroke-width:0.5;" x1="418" x2="509" y1="36.0679" y2="36.0679"/><text fill="#000000" font-family="sans-serif" font-size="14" lengthAdjust="spacing" textLength="35" x="423" y="55.0339">Vac&#237;a</text><text fill="#000000" font-family="sans-serif" font-size="14" lengthAdjust="spacing" textLength="64" x="423" y="74.1018">ConDatos</text><text fill="#000000" font-family="sans-serif" font-size="14" lengthAdjust="spacing" textLength="81" x="423" y="93.1697">ConF&#243;rmula</text><text fill="#000000" font-family="sans-serif" font-size="14" lengthAdjust="spacing" textLength="60" x="423" y="112.2376">ConError</text></g><!--class F?rmula--><g id="elem_F&#243;rmula"><rect codeLine="31" fill="#F1F1F1" height="75.2038" id="F&#243;rmula" rx="2.5" ry="2.5" style="stroke:#181818;stroke-width:0.5;" width="235" x="7" y="708.5"/><text fill="#000000" font-family="sans-serif" font-size="14" lengthAdjust="spacing" textLength="55" x="97" y="728.4659">F&#243;rmula</text><line style="stroke:#181818;stroke-width:0.5;" x1="8" x2="241" y1="737.5679" y2="737.5679"/><text fill="#000000" font-family="sans-serif" font-size="14" lengthAdjust="spacing" textLength="66" x="13" y="756.5339">expresi&#243;n</text><text fill="#000000" font-family="sans-serif" font-size="14" lengthAdjust="spacing" textLength="223" x="13" y="775.6018">celdasReferenciadas : Celda[0..*]</text></g><!--class Rango--><g id="elem_Rango"><rect codeLine="36" fill="#F1F1F1" height="94.2717" id="Rango" rx="2.5" ry="2.5" style="stroke:#181818;stroke-width:0.5;" width="165" x="271" y="334"/><text fill="#000000" font-family="sans-serif" font-size="14" lengthAdjust="spacing" textLength="43" x="332" y="353.9659">Rango</text><line style="stroke:#181818;stroke-width:0.5;" x1="272" x2="435" y1="363.0679" y2="363.0679"/><text fill="#000000" font-family="sans-serif" font-size="14" lengthAdjust="spacing" textLength="53" x="277" y="382.0339">nombre</text><text fill="#000000" font-family="sans-serif" font-size="14" lengthAdjust="spacing" textLength="153" x="277" y="401.1018">tipoRango : TipoRango</text><text fill="#000000" font-family="sans-serif" font-size="14" lengthAdjust="spacing" textLength="127" x="277" y="420.1697">celdas : Celda[1..*]</text></g><!--class TipoRango--><g id="elem_TipoRango"><rect codeLine="42" fill="#F1F1F1" height="94.2717" id="TipoRango" rx="2.5" ry="2.5" style="stroke:#181818;stroke-width:0.5;" width="78" x="545.5" y="16.5"/><text fill="#000000" font-family="sans-serif" font-size="14" lengthAdjust="spacing" textLength="72" x="548.5" y="36.4659">TipoRango</text><line style="stroke:#181818;stroke-width:0.5;" x1="546.5" x2="622.5" y1="45.5679" y2="45.5679"/><text fill="#000000" font-family="sans-serif" font-size="14" lengthAdjust="spacing" textLength="53" x="551.5" y="64.5339">General</text><text fill="#000000" font-family="sans-serif" font-size="14" lengthAdjust="spacing" textLength="23" x="551.5" y="83.6018">Fila</text><text fill="#000000" font-family="sans-serif" font-size="14" lengthAdjust="spacing" textLength="60" x="551.5" y="102.6697">Columna</text></g><!--class Formato--><g id="elem_Formato"><rect codeLine="48" fill="#F1F1F1" height="56.1358" id="Formato" rx="2.5" ry="2.5" style="stroke:#181818;stroke-width:0.5;" width="152" x="277.5" y="718"/><text fill="#000000" font-family="sans-serif" font-size="14" lengthAdjust="spacing" textLength="55" x="326" y="737.9659">Formato</text><line style="stroke:#181818;stroke-width:0.5;" x1="278.5" x2="428.5" y1="747.0679" y2="747.0679"/><text fill="#000000" font-family="sans-serif" font-size="14" lengthAdjust="spacing" textLength="140" x="283.5" y="766.0339">propiedadesVisuales</text></g><!--class Comentario--><g id="elem_Comentario"><rect codeLine="52" fill="#F1F1F1" height="94.2717" id="Comentario" rx="2.5" ry="2.5" style="stroke:#181818;stroke-width:0.5;" width="108" x="464.5" y="699"/><text fill="#000000" font-family="sans-serif" font-size="14" lengthAdjust="spacing" textLength="78" x="479.5" y="718.9659">Comentario</text><line style="stroke:#181818;stroke-width:0.5;" x1="465.5" x2="571.5" y1="728.0679" y2="728.0679"/><text fill="#000000" font-family="sans-serif" font-size="14" lengthAdjust="spacing" textLength="36" x="470.5" y="747.0339">autor</text><text fill="#000000" font-family="sans-serif" font-size="14" lengthAdjust="spacing" textLength="33" x="470.5" y="766.1018">texto</text><text fill="#000000" font-family="sans-serif" font-size="14" lengthAdjust="spacing" textLength="96" x="470.5" y="785.1697">fechaCreaci&#243;n</text></g><!--class ObjetoGr?fico--><g id="elem_ObjetoGr&#225;fico"><rect codeLine="58" fill="#F1F1F1" height="75.2038" id="ObjetoGr&#225;fico" rx="2.5" ry="2.5" style="stroke:#181818;stroke-width:0.5;" width="200" x="471.5" y="343.5"/><text fill="#000000" font-family="sans-serif" font-size="14" lengthAdjust="spacing" textLength="93" x="525" y="363.4659">ObjetoGr&#225;fico</text><line style="stroke:#181818;stroke-width:0.5;" x1="472.5" x2="670.5" y1="372.5679" y2="372.5679"/><text fill="#000000" font-family="sans-serif" font-size="14" lengthAdjust="spacing" textLength="26" x="477.5" y="391.5339">tipo</text><text fill="#000000" font-family="sans-serif" font-size="14" lengthAdjust="spacing" textLength="188" x="477.5" y="410.6018">datosAsociados : Celda[0..*]</text></g><!--class Validaci?nDatos--><g id="elem_Validaci&#243;nDatos"><rect codeLine="63" fill="#F1F1F1" height="75.2038" id="Validaci&#243;nDatos" rx="2.5" ry="2.5" style="stroke:#181818;stroke-width:0.5;" width="113" x="608" y="708.5"/><text fill="#000000" font-family="sans-serif" font-size="14" lengthAdjust="spacing" textLength="107" x="611" y="728.4659">Validaci&#243;nDatos</text><line style="stroke:#181818;stroke-width:0.5;" x1="609" x2="720" y1="737.5679" y2="737.5679"/><text fill="#000000" font-family="sans-serif" font-size="14" lengthAdjust="spacing" textLength="95" x="614" y="756.5339">tipoValidaci&#243;n</text><text fill="#000000" font-family="sans-serif" font-size="14" lengthAdjust="spacing" textLength="55" x="614" y="775.6018">criterios</text></g><!--reverse link LibroDeTrabajo to HojaDeTrabajo--><g id="link_LibroDeTrabajo_HojaDeTrabajo"><path codeLine="68" d="M285.5,103.53 C285.5,127.6 285.5,151.31 285.5,179.89 " fill="none" id="LibroDeTrabajo-backto-HojaDeTrabajo" style="stroke:#181818;stroke-width:1.0;"/><polygon fill="none" points="285.5,91.53,281.5,97.53,285.5,103.53,289.5,97.53,285.5,91.53" style="stroke:#181818;stroke-width:1.0;"/></g><!--reverse link HojaDeTrabajo to Celda--><g id="link_HojaDeTrabajo_Celda"><path codeLine="69" d="M261.9134,285.5814 C247.3234,326.7714 236.59,376.92 253.5,428 C260.45,448.99 272.09,469.38 285.01,487.66 " fill="none" id="HojaDeTrabajo-backto-Celda" style="stroke:#181818;stroke-width:1.0;"/><polygon fill="none" points="265.92,274.27,260.1462,278.5901,261.9134,285.5814,267.6871,281.2612,265.92,274.27" style="stroke:#181818;stroke-width:1.0;"/></g><!--reverse link HojaDeTrabajo to Rango--><g id="link_HojaDeTrabajo_Rango"><path codeLine="70" d="M310.9894,284.9743 C319.4694,303.9343 324.38,314.9 332.87,333.88 " fill="none" id="HojaDeTrabajo-backto-Rango" style="stroke:#181818;stroke-width:1.0;"/><polygon fill="none" points="306.09,274.02,304.8883,281.1303,310.9894,284.9743,312.1911,277.864,306.09,274.02" style="stroke:#181818;stroke-width:1.0;"/></g><!--link Celda to F?rmula--><g id="link_Celda_F&#243;rmula"><path codeLine="71" d="M264.49,625.11 C228.19,652.76 192.9142,680.6953 164.8942,704.6053 " fill="none" id="Celda-to-F&#243;rmula" style="stroke:#181818;stroke-width:1.0;"/><polygon fill="#181818" points="160.33,708.5,169.7727,705.7008,164.1335,705.2544,164.5798,699.6152,160.33,708.5" style="stroke:#181818;stroke-width:1.0;"/></g><!--link F?rmula to Celda--><g id="link_F&#243;rmula_Celda"><path codeLine="75" d="M182.13,708.33 C209.41,688.43 237.6319,666.837 267.3419,642.977 " fill="none" id="F&#243;rmula-to-Celda" style="stroke:#181818;stroke-width:1.0;"/><polygon fill="#181818" points="272.02,639.22,262.4981,641.7367,268.1216,642.3508,267.5075,647.9743,272.02,639.22" style="stroke:#181818;stroke-width:1.0;"/></g><!--link Celda to Comentario--><g id="link_Celda_Comentario"><path codeLine="72" d="M421.8,639.22 C440.24,659.39 455.6111,676.2021 472.1711,694.3121 " fill="none" id="Celda-to-Comentario" style="stroke:#181818;stroke-width:1.0;"/><polygon fill="#181818" points="476.22,698.74,473.0986,689.3989,472.8459,695.0501,467.1947,694.7974,476.22,698.74" style="stroke:#181818;stroke-width:1.0;"/></g><!--link Celda to Formato--><g id="link_Celda_Formato"><path codeLine="73" d="M353.5,639.22 C353.5,666.96 353.5,690.71 353.5,711.58 " fill="none" id="Celda-to-Formato" style="stroke:#181818;stroke-width:1.0;"/><polygon fill="#181818" points="353.5,717.58,357.5,708.58,353.5,712.58,349.5,708.58,353.5,717.58" style="stroke:#181818;stroke-width:1.0;"/></g><!--link Celda to Validaci?nDatos--><g id="link_Celda_Validaci&#243;nDatos"><path codeLine="74" d="M442.61,613.96 C487.26,639.02 542,670.18 590.5,699 C596.09,702.32 596.767,702.7067 602.557,706.2367 " fill="none" id="Celda-to-Validaci&#243;nDatos" style="stroke:#181818;stroke-width:1.0;"/><polygon fill="#181818" points="607.68,709.36,602.0778,701.2597,603.4109,706.7572,597.9133,708.0903,607.68,709.36" style="stroke:#181818;stroke-width:1.0;"/></g><!--reverse link Rango to Celda--><g id="link_Rango_Celda"><path codeLine="76" d="M353.5,440.01 C353.5,458.19 353.5,467.54 353.5,487.82 " fill="none" id="Rango-backto-Celda" style="stroke:#181818;stroke-width:1.0;"/><polygon fill="none" points="353.5,428.01,349.5,434.01,353.5,440.01,357.5,434.01,353.5,428.01" style="stroke:#181818;stroke-width:1.0;"/></g><!--link ObjetoGr?fico to Celda--><g id="link_ObjetoGr&#225;fico_Celda"><path codeLine="77" d="M527.38,418.53 C503,438.72 476.4217,460.7238 447.2017,484.9138 " fill="none" id="ObjetoGr&#225;fico-to-Celda" style="stroke:#181818;stroke-width:1.0;"/><polygon fill="#181818" points="442.58,488.74,452.0634,486.0819,446.4315,485.5515,446.9619,479.9196,442.58,488.74" style="stroke:#181818;stroke-width:1.0;"/></g><!--SRC=[TLDBJiD03Dtd55aZfO9j5qWeRM61X5HLtI0MpiIbKsN6aMSY5I4Emm5OzGYz69bFFaqXctZyx3VsisSlIqnHrVOZLQWAP9FidKj85XKcYQZ0cFHP5amBt30KSA3qCqdRRqy7CEayVMh_FVPwEvlTl2LVNUO561CrgOBHcmAhqfFapeZ93c3Gx-I0jJEch3uwijLaf93damw4f2rgMP8_xOWLM6ffLi4AtlE9LLE1SqSpvYhK5bYwXBm_U0oDXTBvbzxm1RXwK3Tgx8j5RK6SVm9hJdhHtcowmyMLxNd9J3oqri6H28yrendQytgjSOUCMaYu5gydyi9TAsvbJG6QfvlE_ciMTnsTRx4FZOoFg96XylPAzjrKZT8mQYRg7oV5L4iieKIpbQQ12iref8Fu8HeQs-hYIyPZDpaKUyWP8GoyJtuf3cZfaS_VEoaw0jUfDqed_uCXfnVzgzSMAba6OZ-l4Si82agnjDXMwikVl0tAiikbJowVWCF3zbpxmop27cNP_R2TWskqbgEukDo3PzfCqg-LG-FxIS90tSsnf8cEuzXV]--></g></svg>