<?xml version="1.0" encoding="us-ascii" standalone="no"?><svg xmlns="http://www.w3.org/2000/svg" xmlns:xlink="http://www.w3.org/1999/xlink" contentStyleType="text/css" height="840px" preserveAspectRatio="none" style="width:728px;height:840px;background:#FFFFFF;" version="1.1" viewBox="0 0 728 840" width="728px" zoomAndPan="magnify"><defs/><g><!--class LibroDeTrabajo--><g id="elem_LibroDeTrabajo"><rect codeLine="5" fill="#F1F1F1" height="56.1358" id="LibroDeTrabajo" rx="2.5" ry="2.5" style="stroke:#181818;stroke-width:0.5;" width="193" x="141" y="35.5"/><text fill="#000000" font-family="sans-serif" font-size="14" lengthAdjust="spacing" textLength="103" x="186" y="55.4659">LibroDeTrabajo</text><line style="stroke:#181818;stroke-width:0.5;" x1="142" x2="333" y1="64.5679" y2="64.5679"/><text fill="#000000" font-family="sans-serif" font-size="14" lengthAdjust="spacing" textLength="181" x="147" y="83.5339">hojas : HojaDeTrabajo[0..*]</text></g><!--class HojaDeTrabajo--><g id="elem_HojaDeTrabajo"><rect codeLine="9" fill="#F1F1F1" height="94.2717" id="HojaDeTrabajo" rx="2.5" ry="2.5" style="stroke:#181818;stroke-width:0.5;" width="148" x="163.5" y="181"/><text fill="#000000" font-family="sans-serif" font-size="14" lengthAdjust="spacing" textLength="99" x="188" y="200.9659">HojaDeTrabajo</text><line style="stroke:#181818;stroke-width:0.5;" x1="164.5" x2="310.5" y1="210.0679" y2="210.0679"/><text fill="#000000" font-family="sans-serif" font-size="14" lengthAdjust="spacing" textLength="53" x="169.5" y="229.0339">nombre</text><text fill="#000000" font-family="sans-serif" font-size="14" lengthAdjust="spacing" textLength="127" x="169.5" y="248.1018">celdas : Celda[0..*]</text><text fill="#000000" font-family="sans-serif" font-size="14" lengthAdjust="spacing" textLength="136" x="169.5" y="267.1697">rangos : Rango[0..*]</text></g><!--class Celda--><g id="elem_Celda"><rect codeLine="15" fill="#F1F1F1" height="151.4754" id="Celda" rx="2.5" ry="2.5" style="stroke:#181818;stroke-width:0.5;" width="178" x="264.5" y="509"/><text fill="#000000" font-family="sans-serif" font-size="14" lengthAdjust="spacing" textLength="38" x="334.5" y="528.9659">Celda</text><line style="stroke:#181818;stroke-width:0.5;" x1="265.5" x2="441.5" y1="538.0679" y2="538.0679"/><text fill="#000000" font-family="sans-serif" font-size="14" lengthAdjust="spacing" textLength="56" x="270.5" y="557.0339">posici&#243;n</text><text fill="#000000" font-family="sans-serif" font-size="14" lengthAdjust="spacing" textLength="67" x="270.5" y="576.1018">contenido</text><text fill="#000000" font-family="sans-serif" font-size="14" lengthAdjust="spacing" textLength="120" x="270.5" y="595.1697">formato : Formato</text><text fill="#000000" font-family="sans-serif" font-size="14" lengthAdjust="spacing" textLength="120" x="270.5" y="614.2376">f&#243;rmula : F&#243;rmula</text><text fill="#000000" font-family="sans-serif" font-size="14" lengthAdjust="spacing" textLength="166" x="270.5" y="633.3055">comentario : Comentario</text><text fill="#000000" font-family="sans-serif" font-size="14" lengthAdjust="spacing" textLength="140" x="270.5" y="652.3734">estado : EstadoCelda</text></g><!--class EstadoCelda--><g id="elem_EstadoCelda"><rect codeLine="24" fill="#F1F1F1" height="113.3396" id="EstadoCelda" rx="2.5" ry="2.5" style="stroke:#181818;stroke-width:0.5;" width="93" x="369" y="7"/><text fill="#000000" font-family="sans-serif" font-size="14" lengthAdjust="spacing" textLength="83" x="374" y="26.9659">EstadoCelda</text><line style="stroke:#181818;stroke-width:0.5;" x1="370" x2="461" y1="36.0679" y2="36.0679"/><text fill="#000000" font-family="sans-serif" font-size="14" lengthAdjust="spacing" textLength="35" x="375" y="55.0339">Vac&#237;a</text><text fill="#000000" font-family="sans-serif" font-size="14" lengthAdjust="spacing" textLength="64" x="375" y="74.1018">ConDatos</text><text fill="#000000" font-family="sans-serif" font-size="14" lengthAdjust="spacing" textLength="81" x="375" y="93.1697">ConF&#243;rmula</text><text fill="#000000" font-family="sans-serif" font-size="14" lengthAdjust="spacing" textLength="60" x="375" y="112.2376">ConError</text></g><!--class F?rmula--><g id="elem_F&#243;rmula"><rect codeLine="31" fill="#F1F1F1" height="75.2038" id="F&#243;rmula" rx="2.5" ry="2.5" style="stroke:#181818;stroke-width:0.5;" width="235" x="7" y="748.5"/><text fill="#000000" font-family="sans-serif" font-size="14" lengthAdjust="spacing" textLength="55" x="97" y="768.4659">F&#243;rmula</text><line style="stroke:#181818;stroke-width:0.5;" x1="8" x2="241" y1="777.5679" y2="777.5679"/><text fill="#000000" font-family="sans-serif" font-size="14" lengthAdjust="spacing" textLength="66" x="13" y="796.5339">expresi&#243;n</text><text fill="#000000" font-family="sans-serif" font-size="14" lengthAdjust="spacing" textLength="223" x="13" y="815.6018">celdasReferenciadas : Celda[0..*]</text></g><!--class Rango--><g id="elem_Rango"><rect codeLine="36" fill="#F1F1F1" height="94.2717" id="Rango" rx="2.5" ry="2.5" style="stroke:#181818;stroke-width:0.5;" width="165" x="271" y="336"/><text fill="#000000" font-family="sans-serif" font-size="14" lengthAdjust="spacing" textLength="43" x="332" y="355.9659">Rango</text><line style="stroke:#181818;stroke-width:0.5;" x1="272" x2="435" y1="365.0679" y2="365.0679"/><text fill="#000000" font-family="sans-serif" font-size="14" lengthAdjust="spacing" textLength="53" x="277" y="384.0339">nombre</text><text fill="#000000" font-family="sans-serif" font-size="14" lengthAdjust="spacing" textLength="153" x="277" y="403.1018">tipoRango : TipoRango</text><text fill="#000000" font-family="sans-serif" font-size="14" lengthAdjust="spacing" textLength="127" x="277" y="422.1697">celdas : Celda[1..*]</text></g><!--class TipoRango--><g id="elem_TipoRango"><rect codeLine="42" fill="#F1F1F1" height="94.2717" id="TipoRango" rx="2.5" ry="2.5" style="stroke:#181818;stroke-width:0.5;" width="78" x="497.5" y="16.5"/><text fill="#000000" font-family="sans-serif" font-size="14" lengthAdjust="spacing" textLength="72" x="500.5" y="36.4659">TipoRango</text><line style="stroke:#181818;stroke-width:0.5;" x1="498.5" x2="574.5" y1="45.5679" y2="45.5679"/><text fill="#000000" font-family="sans-serif" font-size="14" lengthAdjust="spacing" textLength="53" x="503.5" y="64.5339">General</text><text fill="#000000" font-family="sans-serif" font-size="14" lengthAdjust="spacing" textLength="23" x="503.5" y="83.6018">Fila</text><text fill="#000000" font-family="sans-serif" font-size="14" lengthAdjust="spacing" textLength="60" x="503.5" y="102.6697">Columna</text></g><!--class Formato--><g id="elem_Formato"><rect codeLine="48" fill="#F1F1F1" height="56.1358" id="Formato" rx="2.5" ry="2.5" style="stroke:#181818;stroke-width:0.5;" width="152" x="277.5" y="758"/><text fill="#000000" font-family="sans-serif" font-size="14" lengthAdjust="spacing" textLength="55" x="326" y="777.9659">Formato</text><line style="stroke:#181818;stroke-width:0.5;" x1="278.5" x2="428.5" y1="787.0679" y2="787.0679"/><text fill="#000000" font-family="sans-serif" font-size="14" lengthAdjust="spacing" textLength="140" x="283.5" y="806.0339">propiedadesVisuales</text></g><!--class Comentario--><g id="elem_Comentario"><rect codeLine="52" fill="#F1F1F1" height="94.2717" id="Comentario" rx="2.5" ry="2.5" style="stroke:#181818;stroke-width:0.5;" width="108" x="464.5" y="739"/><text fill="#000000" font-family="sans-serif" font-size="14" lengthAdjust="spacing" textLength="78" x="479.5" y="758.9659">Comentario</text><line style="stroke:#181818;stroke-width:0.5;" x1="465.5" x2="571.5" y1="768.0679" y2="768.0679"/><text fill="#000000" font-family="sans-serif" font-size="14" lengthAdjust="spacing" textLength="36" x="470.5" y="787.0339">autor</text><text fill="#000000" font-family="sans-serif" font-size="14" lengthAdjust="spacing" textLength="33" x="470.5" y="806.1018">texto</text><text fill="#000000" font-family="sans-serif" font-size="14" lengthAdjust="spacing" textLength="96" x="470.5" y="825.1697">fechaCreaci&#243;n</text></g><!--class ObjetoGr?fico--><g id="elem_ObjetoGr&#225;fico"><rect codeLine="58" fill="#F1F1F1" height="75.2038" id="ObjetoGr&#225;fico" rx="2.5" ry="2.5" style="stroke:#181818;stroke-width:0.5;" width="200" x="471.5" y="345.5"/><text fill="#000000" font-family="sans-serif" font-size="14" lengthAdjust="spacing" textLength="93" x="525" y="365.4659">ObjetoGr&#225;fico</text><line style="stroke:#181818;stroke-width:0.5;" x1="472.5" x2="670.5" y1="374.5679" y2="374.5679"/><text fill="#000000" font-family="sans-serif" font-size="14" lengthAdjust="spacing" textLength="26" x="477.5" y="393.5339">tipo</text><text fill="#000000" font-family="sans-serif" font-size="14" lengthAdjust="spacing" textLength="188" x="477.5" y="412.6018">datosAsociados : Celda[0..*]</text></g><!--class Validaci?nDatos--><g id="elem_Validaci&#243;nDatos"><rect codeLine="63" fill="#F1F1F1" height="75.2038" id="Validaci&#243;nDatos" rx="2.5" ry="2.5" style="stroke:#181818;stroke-width:0.5;" width="113" x="608" y="748.5"/><text fill="#000000" font-family="sans-serif" font-size="14" lengthAdjust="spacing" textLength="107" x="611" y="768.4659">Validaci&#243;nDatos</text><line style="stroke:#181818;stroke-width:0.5;" x1="609" x2="720" y1="777.5679" y2="777.5679"/><text fill="#000000" font-family="sans-serif" font-size="14" lengthAdjust="spacing" textLength="95" x="614" y="796.5339">tipoValidaci&#243;n</text><text fill="#000000" font-family="sans-serif" font-size="14" lengthAdjust="spacing" textLength="55" x="614" y="815.6018">criterios</text></g><!--reverse link LibroDeTrabajo to HojaDeTrabajo--><g id="link_LibroDeTrabajo_HojaDeTrabajo"><path codeLine="68" d="M237.5,103.7 C237.5,128 237.5,152.12 237.5,180.92 " fill="none" id="LibroDeTrabajo-backto-HojaDeTrabajo" style="stroke:#181818;stroke-width:1.0;"/><polygon fill="none" points="237.5,91.7,233.5,97.7,237.5,103.7,241.5,97.7,237.5,91.7" style="stroke:#181818;stroke-width:1.0;"/><text fill="#000000" font-family="sans-serif" font-size="13" lengthAdjust="spacing" textLength="7" x="229.7344" y="113.6875">1</text><text fill="#000000" font-family="sans-serif" font-size="13" lengthAdjust="spacing" textLength="20" x="215.9688" y="169.3396">1..*</text></g><!--reverse link HojaDeTrabajo to Celda--><g id="link_HojaDeTrabajo_Celda"><path codeLine="69" d="M234.5389,287.3969 C233.5989,328.9969 236.17,379.14 253.5,430 C262.89,457.55 278.34,485.01 294.32,508.93 " fill="none" id="HojaDeTrabajo-backto-Celda" style="stroke:#181818;stroke-width:1.0;"/><polygon fill="none" points="234.81,275.4,230.6755,281.3081,234.5389,287.3969,238.6734,281.4888,234.81,275.4" style="stroke:#181818;stroke-width:1.0;"/><text fill="#000000" font-family="sans-serif" font-size="13" lengthAdjust="spacing" textLength="7" x="226.9395" y="297.1885">1</text><text fill="#000000" font-family="sans-serif" font-size="13" lengthAdjust="spacing" textLength="20" x="267.1858" y="497.1692">0..*</text></g><!--reverse link HojaDeTrabajo to Rango--><g id="link_HojaDeTrabajo_Rango"><path codeLine="70" d="M279.8718,284.881 C294.4118,304.051 303.98,316.68 318.5,335.84 " fill="none" id="HojaDeTrabajo-backto-Rango" style="stroke:#181818;stroke-width:1.0;"/><polygon fill="none" points="272.62,275.32,273.0589,282.5177,279.8718,284.881,279.4329,277.6832,272.62,275.32" style="stroke:#181818;stroke-width:1.0;"/><text fill="#000000" font-family="sans-serif" font-size="13" lengthAdjust="spacing" textLength="7" x="270.0666" y="297.0972">1</text><text fill="#000000" font-family="sans-serif" font-size="13" lengthAdjust="spacing" textLength="20" x="291.6094" y="324.2473">0..*</text></g><!--link Celda to F?rmula--><g id="link_Celda_F&#243;rmula"><path codeLine="71" d="M264.08,617.23 C227.5,634.03 187.34,657.93 159.5,690 C145.21,706.46 138.1161,723.4653 132.9761,742.6053 " fill="none" id="Celda-to-F&#243;rmula" style="stroke:#181818;stroke-width:1.0;"/><polygon fill="#181818" points="131.42,748.4,137.6173,740.7454,132.7168,743.5711,129.8911,738.6705,131.42,748.4" style="stroke:#181818;stroke-width:1.0;"/><text fill="#000000" font-family="sans-serif" font-size="13" lengthAdjust="spacing" textLength="20" x="236.4682" y="615.991">0..1</text><text fill="#000000" font-family="sans-serif" font-size="13" lengthAdjust="spacing" textLength="20" x="110.8329" y="736.5571">0..1</text></g><!--link F?rmula to Celda--><g id="link_F&#243;rmula_Celda"><path codeLine="75" d="M161.38,748.12 C179.7,730.19 202.39,708.55 223.5,690 C236.44,678.63 245.7508,670.7049 259.5408,659.3949 " fill="none" id="F&#243;rmula-to-Celda" style="stroke:#181818;stroke-width:1.0;"/><polygon fill="#181818" points="264.18,655.59,254.6845,658.2046,260.314,658.7608,259.7577,664.3902,264.18,655.59" style="stroke:#181818;stroke-width:1.0;"/><text fill="#000000" font-family="sans-serif" font-size="13" lengthAdjust="spacing" textLength="120" x="224.5" y="704.897">celdasReferenciadas</text><text fill="#000000" font-family="sans-serif" font-size="13" lengthAdjust="spacing" textLength="7" x="160.3258" y="736.8003">1</text><text fill="#000000" font-family="sans-serif" font-size="13" lengthAdjust="spacing" textLength="20" x="236.5758" y="657.2879">0..*</text></g><!--link Celda to Comentario--><g id="link_Celda_Comentario"><path codeLine="72" d="M415.17,660.07 C437.05,686.52 457.1956,710.8768 476.5356,734.2568 " fill="none" id="Celda-to-Comentario" style="stroke:#181818;stroke-width:1.0;"/><polygon fill="#181818" points="480.36,738.88,477.7056,729.3956,477.173,735.0273,471.5413,734.4947,480.36,738.88" style="stroke:#181818;stroke-width:1.0;"/><text fill="#000000" font-family="sans-serif" font-size="13" lengthAdjust="spacing" textLength="20" x="400.2563" y="682.254">0..1</text><text fill="#000000" font-family="sans-serif" font-size="13" lengthAdjust="spacing" textLength="20" x="452.9886" y="727.2935">0..1</text></g><!--link Celda to Formato--><g id="link_Celda_Formato"><path codeLine="73" d="M353.5,660.07 C353.5,694.16 353.5,726.44 353.5,751.54 " fill="none" id="Celda-to-Formato" style="stroke:#181818;stroke-width:1.0;"/><polygon fill="#181818" points="353.5,757.54,357.5,748.54,353.5,752.54,349.5,748.54,353.5,757.54" style="stroke:#181818;stroke-width:1.0;"/><text fill="#000000" font-family="sans-serif" font-size="13" lengthAdjust="spacing" textLength="7" x="346.1555" y="682.254">1</text><text fill="#000000" font-family="sans-serif" font-size="13" lengthAdjust="spacing" textLength="20" x="331.3125" y="746.4144">0..1</text></g><!--link Celda to Validaci?nDatos--><g id="link_Celda_Validaci&#243;nDatos"><path codeLine="74" d="M442.62,642.67 C495.75,676.75 556.5598,715.7603 602.6698,745.3403 " fill="none" id="Celda-to-Validaci&#243;nDatos" style="stroke:#181818;stroke-width:1.0;"/><polygon fill="#181818" points="607.72,748.58,602.3046,740.3536,603.5115,745.8802,597.9849,747.0872,607.72,748.58" style="stroke:#181818;stroke-width:1.0;"/><text fill="#000000" font-family="sans-serif" font-size="13" lengthAdjust="spacing" textLength="7" x="450.5795" y="643.8454">1</text><text fill="#000000" font-family="sans-serif" font-size="13" lengthAdjust="spacing" textLength="20" x="579.9986" y="740.1966">0..1</text></g><!--reverse link Rango to Celda--><g id="link_Rango_Celda"><path codeLine="76" d="M353.5,442.27 C353.5,465.64 353.5,482.56 353.5,508.97 " fill="none" id="Rango-backto-Celda" style="stroke:#181818;stroke-width:1.0;"/><polygon fill="none" points="353.5,430.27,349.5,436.27,353.5,442.27,357.5,436.27,353.5,430.27" style="stroke:#181818;stroke-width:1.0;"/><text fill="#000000" font-family="sans-serif" font-size="13" lengthAdjust="spacing" textLength="7" x="346.0078" y="452.0402">1</text><text fill="#000000" font-family="sans-serif" font-size="13" lengthAdjust="spacing" textLength="20" x="332.4688" y="497.2133">1..*</text></g><!--link ObjetoGr?fico to Celda--><g id="link_ObjetoGr&#225;fico_Celda"><path codeLine="77" d="M531.52,420.59 C504.6,445.23 472.5667,474.5398 439.6467,504.6598 " fill="none" id="ObjetoGr&#225;fico-to-Celda" style="stroke:#181818;stroke-width:1.0;"/><polygon fill="#181818" points="435.22,508.71,444.5602,505.5858,438.9089,505.3348,439.1599,499.6835,435.22,508.71" style="stroke:#181818;stroke-width:1.0;"/><text fill="#000000" font-family="sans-serif" font-size="13" lengthAdjust="spacing" textLength="94" x="488.5" y="474.897">datosAsociados</text><text fill="#000000" font-family="sans-serif" font-size="13" lengthAdjust="spacing" textLength="7" x="516.7751" y="442.7415">1</text><text fill="#000000" font-family="sans-serif" font-size="13" lengthAdjust="spacing" textLength="20" x="422.2799" y="497.3211">0..*</text></g><!--SRC=[VLDBRjim4Dtp58IN0Hmasom25CwdYm85Wi2ReeiHDQvfY1nXI04fYXwc1-WgH_35ogyiANQrqUDy7cVU3FUwHOcczp-bGTCWEx6F9gLPTIY4wi0v-KKtJ0_uoj30WUGl8SEtfmCuUIS_X__e-tPpVNtrNVokcJDdIRHa6iO45NPj8jb4K9AZWy7-eEXuYM39cg8BMqzEAtryjvcGh4UhMqgd7R41Ju7cAQDiFRwp6Jg8vW9Bha7hWNLCs8o7v4FdeOtsnmHI0R4Uj8EPsafHMr37lvbrG_OXtEpgONPbE3yo4vzQg-v2X6yzepkrb_HwmHqoMgNXetWZKHBke-9UzvHTT_ArudEpkArqgSKnj30-eqM6Bk4dFNRJ3SR2f9cYVvaKKw-nXHRTLhi1EdIJaPx4pz4m-A1BAXdVwkHGxM7327dWO_BNve2UdlduPwTL9OYT9j16-JyvYdhHHRssqEas4wTvJLWchgmKQu-XqbJ-ucsiRbUIrklm3_Ih-VwB-MiOGszIQDwf_uRaOUL5YwRWNQ_lAnmtwrB0PATBo8AWF9AppgK-OjpKQM3j8wXyPbT5Ng65HhdnnGmlaCvdAVu1]--></g></svg>