<?xml version="1.0" encoding="us-ascii" standalone="no"?><svg xmlns="http://www.w3.org/2000/svg" xmlns:xlink="http://www.w3.org/1999/xlink" contentStyleType="text/css" height="502px" preserveAspectRatio="none" style="width:1153px;height:502px;background:#FFFFFF;" version="1.1" viewBox="0 0 1153 502" width="1153px" zoomAndPan="magnify"><defs/><g><ellipse cx="825.43" cy="16" fill="#222222" rx="10" ry="10" style="stroke:#222222;stroke-width:1.0;"/><g id="Inactiva"><rect fill="#F1F1F1" height="50" rx="12.5" ry="12.5" style="stroke:#181818;stroke-width:0.5;" width="73" x="788.93" y="87"/><line style="stroke:#181818;stroke-width:0.5;" x1="788.93" x2="861.93" y1="116.0679" y2="116.0679"/><text fill="#000000" font-family="sans-serif" font-size="14" lengthAdjust="spacing" textLength="53" x="798.93" y="106.9659">Inactiva</text></g><g id="EnEvaluaci&#243;n"><rect fill="#F1F1F1" height="50" rx="12.5" ry="12.5" style="stroke:#181818;stroke-width:0.5;" width="109" x="477.93" y="216"/><line style="stroke:#181818;stroke-width:0.5;" x1="477.93" x2="586.93" y1="245.0679" y2="245.0679"/><text fill="#000000" font-family="sans-serif" font-size="14" lengthAdjust="spacing" textLength="89" x="487.93" y="235.9659">EnEvaluaci&#243;n</text></g><g id="EvaluadaCorrectamente"><rect fill="#F1F1F1" height="50" rx="12.5" ry="12.5" style="stroke:#181818;stroke-width:0.5;" width="181" x="121.93" y="345"/><line style="stroke:#181818;stroke-width:0.5;" x1="121.93" x2="302.93" y1="374.0679" y2="374.0679"/><text fill="#000000" font-family="sans-serif" font-size="14" lengthAdjust="spacing" textLength="161" x="131.93" y="364.9659">EvaluadaCorrectamente</text></g><g id="ErrorDeC&#225;lculo"><rect fill="#F1F1F1" height="50" rx="12.5" ry="12.5" style="stroke:#181818;stroke-width:0.5;" width="121" x="463.93" y="345"/><line style="stroke:#181818;stroke-width:0.5;" x1="463.93" x2="584.93" y1="374.0679" y2="374.0679"/><text fill="#000000" font-family="sans-serif" font-size="14" lengthAdjust="spacing" textLength="101" x="473.93" y="364.9659">ErrorDeC&#225;lculo</text></g><g id="DependenciaCircularDetectada"><rect fill="#F1F1F1" height="50" rx="12.5" ry="12.5" style="stroke:#181818;stroke-width:0.5;" width="230" x="620.43" y="345"/><line style="stroke:#181818;stroke-width:0.5;" x1="620.43" x2="850.43" y1="374.0679" y2="374.0679"/><text fill="#000000" font-family="sans-serif" font-size="14" lengthAdjust="spacing" textLength="210" x="630.43" y="364.9659">DependenciaCircularDetectada</text></g><ellipse cx="647.43" cy="485" fill="none" rx="11" ry="11" style="stroke:#222222;stroke-width:1.0;"/><ellipse cx="647.43" cy="485" fill="#222222" rx="6" ry="6" style="stroke:#222222;stroke-width:1.0;"/><!--link *start* to Inactiva--><g id="link_*start*_Inactiva"><path d="M825.43,26.01 C825.43,39.89 825.43,60.97 825.43,80.84 " fill="none" id="*start*-to-Inactiva" style="stroke:#181818;stroke-width:1.0;"/><polygon fill="#181818" points="825.43,86.84,829.43,77.84,825.43,81.84,821.43,77.84,825.43,86.84" style="stroke:#181818;stroke-width:1.0;"/></g><!--link Inactiva to EnEvaluaci?n--><g id="link_Inactiva_EnEvaluaci&#243;n"><path d="M788.91,128.83 C738.21,150.8 651.595,188.3436 592.655,213.8936 " fill="none" id="Inactiva-to-EnEvaluaci&#243;n" style="stroke:#181818;stroke-width:1.0;"/><polygon fill="#181818" points="587.15,216.28,596.9984,216.3704,591.7375,214.2914,593.8166,209.0304,587.15,216.28" style="stroke:#181818;stroke-width:1.0;"/><text fill="#000000" font-family="sans-serif" font-size="13" lengthAdjust="spacing" textLength="103" x="697.43" y="181.897">Iniciar evaluaci&#243;n</text></g><!--link EnEvaluaci?n to EvaluadaCorrectamente--><g id="link_EnEvaluaci&#243;n_EvaluadaCorrectamente"><path d="M477.71,243.93 C355.04,248.81 66.43,263.66 37.43,296 C6,331.05 58.3625,348.7283 115.9425,358.3783 " fill="none" id="EnEvaluaci&#243;n-to-EvaluadaCorrectamente" style="stroke:#181818;stroke-width:1.0;"/><polygon fill="#181818" points="121.86,359.37,113.6449,353.9374,116.9288,358.5436,112.3226,361.8274,121.86,359.37" style="stroke:#181818;stroke-width:1.0;"/><text fill="#000000" font-family="sans-serif" font-size="13" lengthAdjust="spacing" textLength="130" x="38.43" y="310.897">Completar evaluaci&#243;n</text></g><!--link EvaluadaCorrectamente to EnEvaluaci?n--><g id="link_EvaluadaCorrectamente_EnEvaluaci&#243;n"><path d="M213.41,344.87 C215.39,328.72 220.7,308.25 234.43,296 C269.58,264.62 395.6258,251.1446 471.6258,245.6246 " fill="none" id="EvaluadaCorrectamente-to-EnEvaluaci&#243;n" style="stroke:#181818;stroke-width:1.0;"/><polygon fill="#181818" points="477.61,245.19,468.3439,241.8525,472.6231,245.5522,468.9234,249.8315,477.61,245.19" style="stroke:#181818;stroke-width:1.0;"/><text fill="#000000" font-family="sans-serif" font-size="13" lengthAdjust="spacing" textLength="93" x="235.43" y="310.897">Modificar datos</text></g><!--link EnEvaluaci?n to ErrorDeC?lculo--><g id="link_EnEvaluaci&#243;n_ErrorDeC&#225;lculo"><path d="M477.49,250.34 C427.97,259.12 360.51,274.64 344.43,296 C310.24,341.39 393.0701,358.0501 457.7601,364.5501 " fill="none" id="EnEvaluaci&#243;n-to-ErrorDeC&#225;lculo" style="stroke:#181818;stroke-width:1.0;"/><polygon fill="#181818" points="463.73,365.15,455.175,360.2703,458.7551,364.6501,454.3752,368.2302,463.73,365.15" style="stroke:#181818;stroke-width:1.0;"/><text fill="#000000" font-family="sans-serif" font-size="13" lengthAdjust="spacing" textLength="143" x="345.43" y="310.897">Generar error de c&#225;lculo</text></g><!--link ErrorDeC?lculo to EnEvaluaci?n--><g id="link_ErrorDeC&#225;lculo_EnEvaluaci&#243;n"><path d="M525.94,344.9 C527.37,322.33 529.1036,294.7682 530.5236,272.1782 " fill="none" id="ErrorDeC&#225;lculo-to-EnEvaluaci&#243;n" style="stroke:#181818;stroke-width:1.0;"/><polygon fill="#181818" points="530.9,266.19,526.3433,274.9213,530.5863,271.1802,534.3275,275.4232,530.9,266.19" style="stroke:#181818;stroke-width:1.0;"/><text fill="#000000" font-family="sans-serif" font-size="13" lengthAdjust="spacing" textLength="154" x="530.43" y="310.897">Modificar f&#243;rmula o datos</text></g><!--link EnEvaluaci?n to DependenciaCircularDetectada--><g id="link_EnEvaluaci&#243;n_DependenciaCircularDetectada"><path d="M587,251.28 C619.41,258.96 659.83,272.55 689.43,296 C705.63,308.84 715.1121,323.6512 722.8221,339.5512 " fill="none" id="EnEvaluaci&#243;n-to-DependenciaCircularDetectada" style="stroke:#181818;stroke-width:1.0;"/><polygon fill="#181818" points="725.44,344.95,725.1123,335.1066,723.2584,340.451,717.914,338.5971,725.44,344.95" style="stroke:#181818;stroke-width:1.0;"/><text fill="#000000" font-family="sans-serif" font-size="13" lengthAdjust="spacing" textLength="177" x="707.43" y="310.897">Detectar dependencia circular</text></g><!--link DependenciaCircularDetectada to EnEvaluaci?n--><g id="link_DependenciaCircularDetectada_EnEvaluaci&#243;n"><path d="M850.64,349.88 C888.28,338.66 915.42,321.53 893.43,296 C854.54,250.87 684.0796,242.9692 593.0796,241.9192 " fill="none" id="DependenciaCircularDetectada-to-EnEvaluaci&#243;n" style="stroke:#181818;stroke-width:1.0;"/><polygon fill="#181818" points="587.08,241.85,596.0333,245.9536,592.0797,241.9077,596.1256,237.9541,587.08,241.85" style="stroke:#181818;stroke-width:1.0;"/><text fill="#000000" font-family="sans-serif" font-size="13" lengthAdjust="spacing" textLength="129" x="901.43" y="310.897">Corregir dependencia</text></g><!--link EvaluadaCorrectamente to *end*--><g id="link_EvaluadaCorrectamente_*end*"><path d="M283.41,395.02 C329.99,410.27 392.42,429.75 448.43,444 C519.46,462.08 600.5123,476.1898 630.6323,481.2298 " fill="none" id="EvaluadaCorrectamente-to-*end*" style="stroke:#181818;stroke-width:1.0;"/><polygon fill="#181818" points="636.55,482.22,628.3336,476.7895,631.6186,481.3948,627.0133,484.6798,636.55,482.22" style="stroke:#181818;stroke-width:1.0;"/><text fill="#000000" font-family="sans-serif" font-size="13" lengthAdjust="spacing" textLength="98" x="449.43" y="439.897">Eliminar f&#243;rmula</text></g><!--link ErrorDeC?lculo to *end*--><g id="link_ErrorDeC&#225;lculo_*end*"><path d="M536.32,395.26 C544.78,410.65 557.3,430.2 572.43,444 C592.27,462.1 616.1793,472.5805 631.5993,478.3405 " fill="none" id="ErrorDeC&#225;lculo-to-*end*" style="stroke:#181818;stroke-width:1.0;"/><polygon fill="#181818" points="637.22,480.44,630.1887,473.5436,632.5361,478.6904,627.3893,481.0378,637.22,480.44" style="stroke:#181818;stroke-width:1.0;"/><text fill="#000000" font-family="sans-serif" font-size="13" lengthAdjust="spacing" textLength="98" x="573.43" y="439.897">Eliminar f&#243;rmula</text></g><!--link DependenciaCircularDetectada to *end*--><g id="link_DependenciaCircularDetectada_*end*"><path d="M716.55,395.24 C696.75,420.66 670.4376,454.4569 657.4576,471.1169 " fill="none" id="DependenciaCircularDetectada-to-*end*" style="stroke:#181818;stroke-width:1.0;"/><polygon fill="#181818" points="653.77,475.85,662.4567,471.2088,656.843,471.9058,656.146,466.292,653.77,475.85" style="stroke:#181818;stroke-width:1.0;"/><text fill="#000000" font-family="sans-serif" font-size="13" lengthAdjust="spacing" textLength="98" x="692.43" y="439.897">Eliminar f&#243;rmula</text></g><!--link Inactiva to *end*--><g id="link_Inactiva_*end*"><path d="M861.95,126.26 C935.72,155.19 1091.2,228.39 1039.43,315 C953.29,459.08 718.7007,480.1668 664.4007,483.1868 " fill="none" id="Inactiva-to-*end*" style="stroke:#181818;stroke-width:1.0;"/><polygon fill="#181818" points="658.41,483.52,667.6182,487.014,663.4023,483.2423,667.174,479.0264,658.41,483.52" style="stroke:#181818;stroke-width:1.0;"/><text fill="#000000" font-family="sans-serif" font-size="13" lengthAdjust="spacing" textLength="98" x="1047.43" y="310.897">Eliminar f&#243;rmula</text></g><!--SRC=[XP8z3i8m38NtdC8pKY_0m58gnC0948ELkCXIcY0Jk0zdu0Yz66ufFqLfsPBuVSylJlQB0nJ52hO1RU8h6lDQzSTLgAxeBsYvlGTOgemjem1zJirOqrFztc4PHSWcR2WaKhgCpSbJ-i-BH5bJsTwylVYev8O2ISTr5N04TgXbw3MTA3WA6hHaKH6gL-foE5IhOTsvl7LW1w4nlxrpKzX5npLRzQZRkpGAGWI7APxDRFESLp-Z8u_YcFm0vwCy-y-WUttg9LIU6mvVqRCtdjB-lTuKEFfLKw87]--></g></svg>