<?xml version="1.0" encoding="us-ascii" standalone="no"?><svg xmlns="http://www.w3.org/2000/svg" xmlns:xlink="http://www.w3.org/1999/xlink" contentStyleType="text/css" height="979px" preserveAspectRatio="none" style="width:700px;height:979px;background:#FFFFFF;" version="1.1" viewBox="0 0 700 979" width="700px" zoomAndPan="magnify"><defs/><g><g id="elem_libro1"><rect fill="#F1F1F1" height="39.0679" style="stroke:#181818;stroke-width:0.5;" width="156" x="201" y="7"/><text fill="#000000" font-family="sans-serif" font-size="14" lengthAdjust="spacing" textLength="142" x="208" y="23.9659">libro: LibroDeTrabajo</text><line style="stroke:#181818;stroke-width:0.5;" x1="202" x2="356" y1="30.0679" y2="30.0679"/></g><g id="elem_hoja1"><rect fill="#F1F1F1" height="50.1358" style="stroke:#181818;stroke-width:0.5;" width="150" x="204" y="125"/><text fill="#000000" font-family="sans-serif" font-size="14" lengthAdjust="spacing" textLength="136" x="211" y="141.9659">hoja: HojaDeTrabajo</text><line style="stroke:#181818;stroke-width:0.5;" x1="205" x2="353" y1="148.0679" y2="148.0679"/><text fill="#000000" font-family="sans-serif" font-size="14" lengthAdjust="spacing" textLength="119" x="210" y="167.0339">nombre = "Hoja1"</text></g><g id="elem_celdaA1"><rect fill="#F1F1F1" height="88.2717" style="stroke:#181818;stroke-width:0.5;" width="137" x="196.5" y="884"/><text fill="#000000" font-family="sans-serif" font-size="14" lengthAdjust="spacing" textLength="99" x="215.5" y="900.9659">celdaA1: Celda</text><line style="stroke:#181818;stroke-width:0.5;" x1="197.5" x2="332.5" y1="907.0679" y2="907.0679"/><text fill="#000000" font-family="sans-serif" font-size="14" lengthAdjust="spacing" textLength="101" x="202.5" y="926.0339">posici&#243;n = "A1"</text><text fill="#000000" font-family="sans-serif" font-size="14" lengthAdjust="spacing" textLength="103" x="202.5" y="945.1018">contenido = "5"</text><text fill="#000000" font-family="sans-serif" font-size="14" lengthAdjust="spacing" textLength="125" x="202.5" y="964.1697">estado = ConDatos</text></g><g id="elem_celdaA2"><rect fill="#F1F1F1" height="88.2717" style="stroke:#181818;stroke-width:0.5;" width="137" x="493.5" y="884"/><text fill="#000000" font-family="sans-serif" font-size="14" lengthAdjust="spacing" textLength="99" x="512.5" y="900.9659">celdaA2: Celda</text><line style="stroke:#181818;stroke-width:0.5;" x1="494.5" x2="629.5" y1="907.0679" y2="907.0679"/><text fill="#000000" font-family="sans-serif" font-size="14" lengthAdjust="spacing" textLength="101" x="499.5" y="926.0339">posici&#243;n = "A2"</text><text fill="#000000" font-family="sans-serif" font-size="14" lengthAdjust="spacing" textLength="111" x="499.5" y="945.1018">contenido = "10"</text><text fill="#000000" font-family="sans-serif" font-size="14" lengthAdjust="spacing" textLength="125" x="499.5" y="964.1697">estado = ConDatos</text></g><g id="elem_celdaA3"><rect fill="#F1F1F1" height="107.3396" style="stroke:#181818;stroke-width:0.5;" width="201" x="178.5" y="402"/><text fill="#000000" font-family="sans-serif" font-size="14" lengthAdjust="spacing" textLength="99" x="229.5" y="418.9659">celdaA3: Celda</text><line style="stroke:#181818;stroke-width:0.5;" x1="179.5" x2="378.5" y1="425.0679" y2="425.0679"/><text fill="#000000" font-family="sans-serif" font-size="14" lengthAdjust="spacing" textLength="101" x="184.5" y="444.0339">posici&#243;n = "A3"</text><text fill="#000000" font-family="sans-serif" font-size="14" lengthAdjust="spacing" textLength="189" x="184.5" y="463.1018">contenido = "=SUMA(A1:A2)"</text><text fill="#000000" font-family="sans-serif" font-size="14" lengthAdjust="spacing" textLength="160" x="184.5" y="482.1697">f&#243;rmula = formulaSuma</text><text fill="#000000" font-family="sans-serif" font-size="14" lengthAdjust="spacing" textLength="142" x="184.5" y="501.2376">estado = ConF&#243;rmula</text></g><g id="elem_formulaSuma"><rect fill="#F1F1F1" height="69.2038" style="stroke:#181818;stroke-width:0.5;" width="235" x="147.5" y="588"/><text fill="#000000" font-family="sans-serif" font-size="14" lengthAdjust="spacing" textLength="154" x="188" y="604.9659">formulaSuma: F&#243;rmula</text><line style="stroke:#181818;stroke-width:0.5;" x1="148.5" x2="381.5" y1="611.0679" y2="611.0679"/><text fill="#000000" font-family="sans-serif" font-size="14" lengthAdjust="spacing" textLength="188" x="153.5" y="630.0339">expresi&#243;n = "=SUMA(A1:A2)"</text><text fill="#000000" font-family="sans-serif" font-size="14" lengthAdjust="spacing" textLength="223" x="153.5" y="649.1018">rangoReferenciado = rangoSuma</text></g><g id="elem_rangoSuma"><rect fill="#F1F1F1" height="69.2038" style="stroke:#181818;stroke-width:0.5;" width="150" x="190" y="736"/><text fill="#000000" font-family="sans-serif" font-size="14" lengthAdjust="spacing" textLength="129" x="200.5" y="752.9659">rangoSuma: Rango</text><line style="stroke:#181818;stroke-width:0.5;" x1="191" x2="339" y1="759.0679" y2="759.0679"/><text fill="#000000" font-family="sans-serif" font-size="14" lengthAdjust="spacing" textLength="119" x="196" y="778.0339">nombre = "A1:A2"</text><text fill="#000000" font-family="sans-serif" font-size="14" lengthAdjust="spacing" textLength="138" x="196" y="797.1018">tipoRango = General</text></g><g id="elem_rangoColumnaA"><rect fill="#F1F1F1" height="69.2038" style="stroke:#181818;stroke-width:0.5;" width="174" x="362" y="254"/><text fill="#000000" font-family="sans-serif" font-size="14" lengthAdjust="spacing" textLength="160" x="369" y="270.9659">rangoColumnaA: Rango</text><line style="stroke:#181818;stroke-width:0.5;" x1="363" x2="535" y1="277.0679" y2="277.0679"/><text fill="#000000" font-family="sans-serif" font-size="14" lengthAdjust="spacing" textLength="154" x="368" y="296.0339">nombre = "Columna A"</text><text fill="#000000" font-family="sans-serif" font-size="14" lengthAdjust="spacing" textLength="145" x="368" y="315.1018">tipoRango = Columna</text></g><!--link libro1 to hoja1--><g id="link_libro1_hoja1"><path codeLine="35" d="M279,46.22 C279,67.25 279,101.47 279,124.59 " fill="none" id="libro1-hoja1" style="stroke:#181818;stroke-width:1.0;"/><text fill="#000000" font-family="sans-serif" font-size="13" lengthAdjust="spacing" textLength="32" x="280" y="90.897">hojas</text></g><!--link hoja1 to celdaA1--><g id="link_hoja1_celdaA1"><path codeLine="36" d="M203.68,156.84 C122.87,167.7 6,198.74 6,287.5 C6,287.5 6,287.5 6,771.5 C6,860.4 119.54,899.74 196.27,916.19 " fill="none" id="hoja1-celdaA1" style="stroke:#181818;stroke-width:1.0;"/><text fill="#000000" font-family="sans-serif" font-size="13" lengthAdjust="spacing" textLength="37" x="7" y="553.897">celdas</text></g><!--link hoja1 to celdaA2--><g id="link_hoja1_celdaA2"><path codeLine="37" d="M354.44,162.74 C463.94,181.94 654,224.37 654,287.5 C654,287.5 654,287.5 654,771.5 C654,813.69 628.6,854.47 604.5,883.68 " fill="none" id="hoja1-celdaA2" style="stroke:#181818;stroke-width:1.0;"/><text fill="#000000" font-family="sans-serif" font-size="13" lengthAdjust="spacing" textLength="37" x="655" y="553.897">celdas</text></g><!--link hoja1 to celdaA3--><g id="link_hoja1_celdaA3"><path codeLine="38" d="M279,175.07 C279,223.86 279,335.42 279,401.88 " fill="none" id="hoja1-celdaA3" style="stroke:#181818;stroke-width:1.0;"/><text fill="#000000" font-family="sans-serif" font-size="13" lengthAdjust="spacing" textLength="37" x="280" y="293.897">celdas</text></g><!--link hoja1 to rangoSuma--><g id="link_hoja1_rangoSuma"><path codeLine="39" d="M203.75,173.52 C152.54,194.02 94,230.02 94,287.5 C94,287.5 94,287.5 94,623.5 C94,677.57 144.05,715.86 190,739.63 " fill="none" id="hoja1-rangoSuma" style="stroke:#181818;stroke-width:1.0;"/><text fill="#000000" font-family="sans-serif" font-size="13" lengthAdjust="spacing" textLength="42" x="95" y="460.897">rangos</text></g><!--link hoja1 to rangoColumnaA--><g id="link_hoja1_rangoColumnaA"><path codeLine="40" d="M309,175.09 C336.26,196.98 376.75,229.49 407.18,253.92 " fill="none" id="hoja1-rangoColumnaA" style="stroke:#181818;stroke-width:1.0;"/><text fill="#000000" font-family="sans-serif" font-size="13" lengthAdjust="spacing" textLength="42" x="370" y="219.897">rangos</text></g><!--link celdaA3 to formulaSuma--><g id="link_celdaA3_formulaSuma"><path codeLine="41" d="M274.53,509.16 C272.34,535 269.76,565.36 267.84,588 " fill="none" id="celdaA3-formulaSuma" style="stroke:#181818;stroke-width:1.0;"/><text fill="#000000" font-family="sans-serif" font-size="13" lengthAdjust="spacing" textLength="47" x="273" y="553.897">f&#243;rmula</text></g><!--link formulaSuma to rangoSuma--><g id="link_formulaSuma_rangoSuma"><path codeLine="42" d="M265,657.36 C265,680.95 265,712.27 265,735.82 " fill="none" id="formulaSuma-rangoSuma" style="stroke:#181818;stroke-width:1.0;"/><text fill="#000000" font-family="sans-serif" font-size="13" lengthAdjust="spacing" textLength="114" x="266" y="701.897">rangoReferenciado</text></g><!--link rangoSuma to celdaA1--><g id="link_rangoSuma_celdaA1"><path codeLine="43" d="M265,805.24 C265,828.29 265,859.02 265,883.85 " fill="none" id="rangoSuma-celdaA1" style="stroke:#181818;stroke-width:1.0;"/><text fill="#000000" font-family="sans-serif" font-size="13" lengthAdjust="spacing" textLength="37" x="266" y="849.897">celdas</text></g><!--link rangoSuma to celdaA2--><g id="link_rangoSuma_celdaA2"><path codeLine="44" d="M329.08,805.05 C377.51,830.41 443.88,865.15 493.38,891.07 " fill="none" id="rangoSuma-celdaA2" style="stroke:#181818;stroke-width:1.0;"/><text fill="#000000" font-family="sans-serif" font-size="13" lengthAdjust="spacing" textLength="37" x="423" y="849.897">celdas</text></g><!--link rangoColumnaA to celdaA1--><g id="link_rangoColumnaA_celdaA1"><path codeLine="45" d="M450.3,323.31 C451.47,356.65 453,409.08 453,454.5 C453,454.5 453,454.5 453,771.5 C453,809.45 455.69,825.19 431,854 C406.11,883.04 367.45,900.96 333.7,911.77 " fill="none" id="rangoColumnaA-celdaA1" style="stroke:#181818;stroke-width:1.0;"/><text fill="#000000" font-family="sans-serif" font-size="13" lengthAdjust="spacing" textLength="37" x="454" y="627.897">celdas</text></g><!--link rangoColumnaA to celdaA2--><g id="link_rangoColumnaA_celdaA2"><path codeLine="46" d="M490.12,323.24 C522.42,353.77 562,401.9 562,454.5 C562,454.5 562,454.5 562,771.5 C562,809.43 562,852.56 562,883.77 " fill="none" id="rangoColumnaA-celdaA2" style="stroke:#181818;stroke-width:1.0;"/><text fill="#000000" font-family="sans-serif" font-size="13" lengthAdjust="spacing" textLength="37" x="563" y="627.897">celdas</text></g><!--link rangoColumnaA to celdaA3--><g id="link_rangoColumnaA_celdaA3"><path codeLine="47" d="M414.19,323.29 C390.87,345.92 359.71,376.16 333.18,401.91 " fill="none" id="rangoColumnaA-celdaA3" style="stroke:#181818;stroke-width:1.0;"/><text fill="#000000" font-family="sans-serif" font-size="13" lengthAdjust="spacing" textLength="37" x="380" y="367.897">celdas</text></g><!--SRC=[XPDDReCm48Ntd6BaLRk8L43T86M14hLTj9kaFO0XJae4diWGgVVA4NAnsew1CIRA1a_cUpDluXyiZgBiWDLLeJ23JxEinRVY1JyY0zw29N4KeLF-uf5dyA6_lixauyX-8GE9JQ44B84PPSp6-bBKEvx76QnCO4jTAdAhBZzXMvNLzI9DXroNZwX4sGbPxT2WLqf4st6RNg5SymxRgMaIcYQkFWbC4qQGPng_KFJGDGrTKrUV1guf8yXpNMv_ll8dlN5vyan5- -j5DUUQQyqURRGzDvm8w81lJZpEI6eowB4TbNOZiUduTrAYxMVs1_ELYii3RiHUA27BwZQ6pTckmn13AeED2Qt_g1iYxs9PH-R1hZgXRQ3vkv12yNfYiiBwt4YU1qOzYBnVdg5BGiu24JLswIYwlHnOBA1_5MPjtHlHQNAfJHIGv2v9PmZT21jF6PdNyRwPLlZdrbygxpZdFEZPagEO-tCpD9dGOSAxzQ7YSG-oMVy0]--></g></svg>