<?xml version="1.0" encoding="us-ascii" standalone="no"?><svg xmlns="http://www.w3.org/2000/svg" xmlns:xlink="http://www.w3.org/1999/xlink" contentStyleType="text/css" height="895px" preserveAspectRatio="none" style="width:796px;height:895px;background:#FFFFFF;" version="1.1" viewBox="0 0 796 895" width="796px" zoomAndPan="magnify"><defs/><g><!--class LibroDeTrabajo--><g id="elem_LibroDeTrabajo"><rect codeLine="2" fill="#F1F1F1" height="67.0679" id="LibroDeTrabajo" rx="2.5" ry="2.5" style="stroke:#181818;stroke-width:0.5;" width="207" x="148" y="35.5"/><ellipse cx="195.75" cy="51.5" fill="#ADD1B2" rx="11" ry="11" style="stroke:#181818;stroke-width:1.0;"/><path d="M198.7188,57.1406 Q198.1406,57.4375 197.5,57.5781 Q196.8594,57.7344 196.1563,57.7344 Q193.6563,57.7344 192.3281,56.0938 Q191.0156,54.4375 191.0156,51.3125 Q191.0156,48.1875 192.3281,46.5313 Q193.6563,44.875 196.1563,44.875 Q196.8594,44.875 197.5,45.0313 Q198.1563,45.1875 198.7188,45.4844 L198.7188,48.2031 Q198.0938,47.625 197.5,47.3594 Q196.9063,47.0781 196.2813,47.0781 Q194.9375,47.0781 194.25,48.1563 Q193.5625,49.2188 193.5625,51.3125 Q193.5625,53.4063 194.25,54.4844 Q194.9375,55.5469 196.2813,55.5469 Q196.9063,55.5469 197.5,55.2813 Q198.0938,55 198.7188,54.4219 L198.7188,57.1406 Z " fill="#000000"/><text fill="#000000" font-family="sans-serif" font-size="14" lengthAdjust="spacing" textLength="103" x="216.25" y="56.932">LibroDeTrabajo</text><line style="stroke:#181818;stroke-width:0.5;" x1="149" x2="354" y1="67.5" y2="67.5"/><rect fill="none" height="6" style="stroke:#C82930;stroke-width:1.0;" width="6" x="156" y="79.534"/><text fill="#000000" font-family="sans-serif" font-size="14" lengthAdjust="spacing" textLength="181" x="168" y="86.4659">hojas : HojaDeTrabajo[0..*]</text><line style="stroke:#181818;stroke-width:0.5;" x1="149" x2="354" y1="94.5679" y2="94.5679"/></g><!--class HojaDeTrabajo--><g id="elem_HojaDeTrabajo"><rect codeLine="6" fill="#F1F1F1" height="105.2038" id="HojaDeTrabajo" rx="2.5" ry="2.5" style="stroke:#181818;stroke-width:0.5;" width="162" x="170.5" y="192"/><ellipse cx="199.45" cy="208" fill="#ADD1B2" rx="11" ry="11" style="stroke:#181818;stroke-width:1.0;"/><path d="M202.4188,213.6406 Q201.8406,213.9375 201.2,214.0781 Q200.5594,214.2344 199.8563,214.2344 Q197.3563,214.2344 196.0281,212.5938 Q194.7156,210.9375 194.7156,207.8125 Q194.7156,204.6875 196.0281,203.0313 Q197.3563,201.375 199.8563,201.375 Q200.5594,201.375 201.2,201.5313 Q201.8563,201.6875 202.4188,201.9844 L202.4188,204.7031 Q201.7938,204.125 201.2,203.8594 Q200.6063,203.5781 199.9813,203.5781 Q198.6375,203.5781 197.95,204.6563 Q197.2625,205.7188 197.2625,207.8125 Q197.2625,209.9063 197.95,210.9844 Q198.6375,212.0469 199.9813,212.0469 Q200.6063,212.0469 201.2,211.7813 Q201.7938,211.5 202.4188,210.9219 L202.4188,213.6406 Z " fill="#000000"/><text fill="#000000" font-family="sans-serif" font-size="14" lengthAdjust="spacing" textLength="99" x="216.55" y="213.432">HojaDeTrabajo</text><line style="stroke:#181818;stroke-width:0.5;" x1="171.5" x2="331.5" y1="224" y2="224"/><rect fill="none" height="6" style="stroke:#C82930;stroke-width:1.0;" width="6" x="178.5" y="236.034"/><text fill="#000000" font-family="sans-serif" font-size="14" lengthAdjust="spacing" textLength="53" x="190.5" y="242.9659">nombre</text><rect fill="none" height="6" style="stroke:#C82930;stroke-width:1.0;" width="6" x="178.5" y="255.1019"/><text fill="#000000" font-family="sans-serif" font-size="14" lengthAdjust="spacing" textLength="127" x="190.5" y="262.0339">celdas : Celda[0..*]</text><rect fill="none" height="6" style="stroke:#C82930;stroke-width:1.0;" width="6" x="178.5" y="274.1698"/><text fill="#000000" font-family="sans-serif" font-size="14" lengthAdjust="spacing" textLength="136" x="190.5" y="281.1018">rangos : Rango[0..*]</text><line style="stroke:#181818;stroke-width:0.5;" x1="171.5" x2="331.5" y1="289.2038" y2="289.2038"/></g><!--class Celda--><g id="elem_Celda"><rect codeLine="12" fill="#F1F1F1" height="162.4075" id="Celda" rx="2.5" ry="2.5" style="stroke:#181818;stroke-width:0.5;" width="192" x="278.5" y="542"/><ellipse cx="351.25" cy="558" fill="#ADD1B2" rx="11" ry="11" style="stroke:#181818;stroke-width:1.0;"/><path d="M354.2188,563.6406 Q353.6406,563.9375 353,564.0781 Q352.3594,564.2344 351.6563,564.2344 Q349.1563,564.2344 347.8281,562.5938 Q346.5156,560.9375 346.5156,557.8125 Q346.5156,554.6875 347.8281,553.0313 Q349.1563,551.375 351.6563,551.375 Q352.3594,551.375 353,551.5313 Q353.6563,551.6875 354.2188,551.9844 L354.2188,554.7031 Q353.5938,554.125 353,553.8594 Q352.4063,553.5781 351.7813,553.5781 Q350.4375,553.5781 349.75,554.6563 Q349.0625,555.7188 349.0625,557.8125 Q349.0625,559.9063 349.75,560.9844 Q350.4375,562.0469 351.7813,562.0469 Q352.4063,562.0469 353,561.7813 Q353.5938,561.5 354.2188,560.9219 L354.2188,563.6406 Z " fill="#000000"/><text fill="#000000" font-family="sans-serif" font-size="14" lengthAdjust="spacing" textLength="38" x="371.75" y="563.432">Celda</text><line style="stroke:#181818;stroke-width:0.5;" x1="279.5" x2="469.5" y1="574" y2="574"/><rect fill="none" height="6" style="stroke:#C82930;stroke-width:1.0;" width="6" x="286.5" y="586.034"/><text fill="#000000" font-family="sans-serif" font-size="14" lengthAdjust="spacing" textLength="56" x="298.5" y="592.9659">posici&#243;n</text><rect fill="none" height="6" style="stroke:#C82930;stroke-width:1.0;" width="6" x="286.5" y="605.1019"/><text fill="#000000" font-family="sans-serif" font-size="14" lengthAdjust="spacing" textLength="67" x="298.5" y="612.0339">contenido</text><rect fill="none" height="6" style="stroke:#C82930;stroke-width:1.0;" width="6" x="286.5" y="624.1698"/><text fill="#000000" font-family="sans-serif" font-size="14" lengthAdjust="spacing" textLength="120" x="298.5" y="631.1018">formato : Formato</text><rect fill="none" height="6" style="stroke:#C82930;stroke-width:1.0;" width="6" x="286.5" y="643.2377"/><text fill="#000000" font-family="sans-serif" font-size="14" lengthAdjust="spacing" textLength="120" x="298.5" y="650.1697">f&#243;rmula : F&#243;rmula</text><rect fill="none" height="6" style="stroke:#C82930;stroke-width:1.0;" width="6" x="286.5" y="662.3056"/><text fill="#000000" font-family="sans-serif" font-size="14" lengthAdjust="spacing" textLength="166" x="298.5" y="669.2376">comentario : Comentario</text><rect fill="none" height="6" style="stroke:#C82930;stroke-width:1.0;" width="6" x="286.5" y="681.3735"/><text fill="#000000" font-family="sans-serif" font-size="14" lengthAdjust="spacing" textLength="140" x="298.5" y="688.3055">estado : EstadoCelda</text><line style="stroke:#181818;stroke-width:0.5;" x1="279.5" x2="469.5" y1="696.4075" y2="696.4075"/></g><!--class EstadoCelda--><g id="elem_EstadoCelda"><rect codeLine="21" fill="#F1F1F1" height="124.2717" id="EstadoCelda" rx="2.5" ry="2.5" style="stroke:#181818;stroke-width:0.5;" width="115" x="390" y="7"/><ellipse cx="405" cy="23" fill="#EB937F" rx="11" ry="11" style="stroke:#181818;stroke-width:1.0;"/><path d="M409.1094,29 L401.3906,29 L401.3906,16.6094 L409.1094,16.6094 L409.1094,18.7656 L403.8438,18.7656 L403.8438,21.4375 L408.6094,21.4375 L408.6094,23.5938 L403.8438,23.5938 L403.8438,26.8438 L409.1094,26.8438 L409.1094,29 Z " fill="#000000"/><text fill="#000000" font-family="sans-serif" font-size="14" lengthAdjust="spacing" textLength="83" x="419" y="28.432">EstadoCelda</text><line style="stroke:#181818;stroke-width:0.5;" x1="391" x2="504" y1="39" y2="39"/><text fill="#000000" font-family="sans-serif" font-size="14" lengthAdjust="spacing" textLength="35" x="396" y="57.9659">Vac&#237;a</text><text fill="#000000" font-family="sans-serif" font-size="14" lengthAdjust="spacing" textLength="64" x="396" y="77.0339">ConDatos</text><text fill="#000000" font-family="sans-serif" font-size="14" lengthAdjust="spacing" textLength="81" x="396" y="96.1018">ConF&#243;rmula</text><text fill="#000000" font-family="sans-serif" font-size="14" lengthAdjust="spacing" textLength="60" x="396" y="115.1697">ConError</text><line style="stroke:#181818;stroke-width:0.5;" x1="391" x2="504" y1="123.2717" y2="123.2717"/></g><!--class F?rmula--><g id="elem_F&#243;rmula"><rect codeLine="28" fill="#F1F1F1" height="86.1358" id="F&#243;rmula" rx="2.5" ry="2.5" style="stroke:#181818;stroke-width:0.5;" width="249" x="7" y="792.5"/><ellipse cx="99.75" cy="808.5" fill="#ADD1B2" rx="11" ry="11" style="stroke:#181818;stroke-width:1.0;"/><path d="M102.7188,814.1406 Q102.1406,814.4375 101.5,814.5781 Q100.8594,814.7344 100.1563,814.7344 Q97.6563,814.7344 96.3281,813.0938 Q95.0156,811.4375 95.0156,808.3125 Q95.0156,805.1875 96.3281,803.5313 Q97.6563,801.875 100.1563,801.875 Q100.8594,801.875 101.5,802.0313 Q102.1563,802.1875 102.7188,802.4844 L102.7188,805.2031 Q102.0938,804.625 101.5,804.3594 Q100.9063,804.0781 100.2813,804.0781 Q98.9375,804.0781 98.25,805.1563 Q97.5625,806.2188 97.5625,808.3125 Q97.5625,810.4063 98.25,811.4844 Q98.9375,812.5469 100.2813,812.5469 Q100.9063,812.5469 101.5,812.2813 Q102.0938,812 102.7188,811.4219 L102.7188,814.1406 Z " fill="#000000"/><text fill="#000000" font-family="sans-serif" font-size="14" lengthAdjust="spacing" textLength="55" x="120.25" y="813.932">F&#243;rmula</text><line style="stroke:#181818;stroke-width:0.5;" x1="8" x2="255" y1="824.5" y2="824.5"/><rect fill="none" height="6" style="stroke:#C82930;stroke-width:1.0;" width="6" x="15" y="836.534"/><text fill="#000000" font-family="sans-serif" font-size="14" lengthAdjust="spacing" textLength="66" x="27" y="843.4659">expresi&#243;n</text><rect fill="none" height="6" style="stroke:#C82930;stroke-width:1.0;" width="6" x="15" y="855.6019"/><text fill="#000000" font-family="sans-serif" font-size="14" lengthAdjust="spacing" textLength="223" x="27" y="862.5339">celdasReferenciadas : Celda[0..*]</text><line style="stroke:#181818;stroke-width:0.5;" x1="8" x2="255" y1="870.6358" y2="870.6358"/></g><!--class Rango--><g id="elem_Rango"><rect codeLine="33" fill="#F1F1F1" height="105.2038" id="Rango" rx="2.5" ry="2.5" style="stroke:#181818;stroke-width:0.5;" width="179" x="285" y="358"/><ellipse cx="348.75" cy="374" fill="#ADD1B2" rx="11" ry="11" style="stroke:#181818;stroke-width:1.0;"/><path d="M351.7188,379.6406 Q351.1406,379.9375 350.5,380.0781 Q349.8594,380.2344 349.1563,380.2344 Q346.6563,380.2344 345.3281,378.5938 Q344.0156,376.9375 344.0156,373.8125 Q344.0156,370.6875 345.3281,369.0313 Q346.6563,367.375 349.1563,367.375 Q349.8594,367.375 350.5,367.5313 Q351.1563,367.6875 351.7188,367.9844 L351.7188,370.7031 Q351.0938,370.125 350.5,369.8594 Q349.9063,369.5781 349.2813,369.5781 Q347.9375,369.5781 347.25,370.6563 Q346.5625,371.7188 346.5625,373.8125 Q346.5625,375.9063 347.25,376.9844 Q347.9375,378.0469 349.2813,378.0469 Q349.9063,378.0469 350.5,377.7813 Q351.0938,377.5 351.7188,376.9219 L351.7188,379.6406 Z " fill="#000000"/><text fill="#000000" font-family="sans-serif" font-size="14" lengthAdjust="spacing" textLength="43" x="369.25" y="379.432">Rango</text><line style="stroke:#181818;stroke-width:0.5;" x1="286" x2="463" y1="390" y2="390"/><rect fill="none" height="6" style="stroke:#C82930;stroke-width:1.0;" width="6" x="293" y="402.034"/><text fill="#000000" font-family="sans-serif" font-size="14" lengthAdjust="spacing" textLength="53" x="305" y="408.9659">nombre</text><rect fill="none" height="6" style="stroke:#C82930;stroke-width:1.0;" width="6" x="293" y="421.1019"/><text fill="#000000" font-family="sans-serif" font-size="14" lengthAdjust="spacing" textLength="153" x="305" y="428.0339">tipoRango : TipoRango</text><rect fill="none" height="6" style="stroke:#C82930;stroke-width:1.0;" width="6" x="293" y="440.1698"/><text fill="#000000" font-family="sans-serif" font-size="14" lengthAdjust="spacing" textLength="127" x="305" y="447.1018">celdas : Celda[1..*]</text><line style="stroke:#181818;stroke-width:0.5;" x1="286" x2="463" y1="455.2038" y2="455.2038"/></g><!--class TipoRango--><g id="elem_TipoRango"><rect codeLine="39" fill="#F1F1F1" height="105.2038" id="TipoRango" rx="2.5" ry="2.5" style="stroke:#181818;stroke-width:0.5;" width="104" x="540.5" y="16.5"/><ellipse cx="555.5" cy="32.5" fill="#EB937F" rx="11" ry="11" style="stroke:#181818;stroke-width:1.0;"/><path d="M559.6094,38.5 L551.8906,38.5 L551.8906,26.1094 L559.6094,26.1094 L559.6094,28.2656 L554.3438,28.2656 L554.3438,30.9375 L559.1094,30.9375 L559.1094,33.0938 L554.3438,33.0938 L554.3438,36.3438 L559.6094,36.3438 L559.6094,38.5 Z " fill="#000000"/><text fill="#000000" font-family="sans-serif" font-size="14" lengthAdjust="spacing" textLength="72" x="569.5" y="37.932">TipoRango</text><line style="stroke:#181818;stroke-width:0.5;" x1="541.5" x2="643.5" y1="48.5" y2="48.5"/><text fill="#000000" font-family="sans-serif" font-size="14" lengthAdjust="spacing" textLength="53" x="546.5" y="67.4659">General</text><text fill="#000000" font-family="sans-serif" font-size="14" lengthAdjust="spacing" textLength="23" x="546.5" y="86.5339">Fila</text><text fill="#000000" font-family="sans-serif" font-size="14" lengthAdjust="spacing" textLength="60" x="546.5" y="105.6018">Columna</text><line style="stroke:#181818;stroke-width:0.5;" x1="541.5" x2="643.5" y1="113.7038" y2="113.7038"/></g><!--class Formato--><g id="elem_Formato"><rect codeLine="45" fill="#F1F1F1" height="67.0679" id="Formato" rx="2.5" ry="2.5" style="stroke:#181818;stroke-width:0.5;" width="166" x="291.5" y="802"/><ellipse cx="342.75" cy="818" fill="#ADD1B2" rx="11" ry="11" style="stroke:#181818;stroke-width:1.0;"/><path d="M345.7188,823.6406 Q345.1406,823.9375 344.5,824.0781 Q343.8594,824.2344 343.1563,824.2344 Q340.6563,824.2344 339.3281,822.5938 Q338.0156,820.9375 338.0156,817.8125 Q338.0156,814.6875 339.3281,813.0313 Q340.6563,811.375 343.1563,811.375 Q343.8594,811.375 344.5,811.5313 Q345.1563,811.6875 345.7188,811.9844 L345.7188,814.7031 Q345.0938,814.125 344.5,813.8594 Q343.9063,813.5781 343.2813,813.5781 Q341.9375,813.5781 341.25,814.6563 Q340.5625,815.7188 340.5625,817.8125 Q340.5625,819.9063 341.25,820.9844 Q341.9375,822.0469 343.2813,822.0469 Q343.9063,822.0469 344.5,821.7813 Q345.0938,821.5 345.7188,820.9219 L345.7188,823.6406 Z " fill="#000000"/><text fill="#000000" font-family="sans-serif" font-size="14" lengthAdjust="spacing" textLength="55" x="363.25" y="823.432">Formato</text><line style="stroke:#181818;stroke-width:0.5;" x1="292.5" x2="456.5" y1="834" y2="834"/><rect fill="none" height="6" style="stroke:#C82930;stroke-width:1.0;" width="6" x="299.5" y="846.034"/><text fill="#000000" font-family="sans-serif" font-size="14" lengthAdjust="spacing" textLength="140" x="311.5" y="852.9659">propiedadesVisuales</text><line style="stroke:#181818;stroke-width:0.5;" x1="292.5" x2="456.5" y1="861.0679" y2="861.0679"/></g><!--class Comentario--><g id="elem_Comentario"><rect codeLine="49" fill="#F1F1F1" height="105.2038" id="Comentario" rx="2.5" ry="2.5" style="stroke:#181818;stroke-width:0.5;" width="122" x="492.5" y="783"/><ellipse cx="512.9" cy="799" fill="#ADD1B2" rx="11" ry="11" style="stroke:#181818;stroke-width:1.0;"/><path d="M515.8688,804.6406 Q515.2906,804.9375 514.65,805.0781 Q514.0094,805.2344 513.3063,805.2344 Q510.8063,805.2344 509.4781,803.5938 Q508.1656,801.9375 508.1656,798.8125 Q508.1656,795.6875 509.4781,794.0313 Q510.8063,792.375 513.3063,792.375 Q514.0094,792.375 514.65,792.5313 Q515.3063,792.6875 515.8688,792.9844 L515.8688,795.7031 Q515.2438,795.125 514.65,794.8594 Q514.0563,794.5781 513.4313,794.5781 Q512.0875,794.5781 511.4,795.6563 Q510.7125,796.7188 510.7125,798.8125 Q510.7125,800.9063 511.4,801.9844 Q512.0875,803.0469 513.4313,803.0469 Q514.0563,803.0469 514.65,802.7813 Q515.2438,802.5 515.8688,801.9219 L515.8688,804.6406 Z " fill="#000000"/><text fill="#000000" font-family="sans-serif" font-size="14" lengthAdjust="spacing" textLength="78" x="528.1" y="804.432">Comentario</text><line style="stroke:#181818;stroke-width:0.5;" x1="493.5" x2="613.5" y1="815" y2="815"/><rect fill="none" height="6" style="stroke:#C82930;stroke-width:1.0;" width="6" x="500.5" y="827.034"/><text fill="#000000" font-family="sans-serif" font-size="14" lengthAdjust="spacing" textLength="36" x="512.5" y="833.9659">autor</text><rect fill="none" height="6" style="stroke:#C82930;stroke-width:1.0;" width="6" x="500.5" y="846.1019"/><text fill="#000000" font-family="sans-serif" font-size="14" lengthAdjust="spacing" textLength="33" x="512.5" y="853.0339">texto</text><rect fill="none" height="6" style="stroke:#C82930;stroke-width:1.0;" width="6" x="500.5" y="865.1698"/><text fill="#000000" font-family="sans-serif" font-size="14" lengthAdjust="spacing" textLength="96" x="512.5" y="872.1018">fechaCreaci&#243;n</text><line style="stroke:#181818;stroke-width:0.5;" x1="493.5" x2="613.5" y1="880.2038" y2="880.2038"/></g><!--class ObjetoGr?fico--><g id="elem_ObjetoGr&#225;fico"><rect codeLine="55" fill="#F1F1F1" height="86.1358" id="ObjetoGr&#225;fico" rx="2.5" ry="2.5" style="stroke:#181818;stroke-width:0.5;" width="214" x="499.5" y="367.5"/><ellipse cx="555.75" cy="383.5" fill="#ADD1B2" rx="11" ry="11" style="stroke:#181818;stroke-width:1.0;"/><path d="M558.7188,389.1406 Q558.1406,389.4375 557.5,389.5781 Q556.8594,389.7344 556.1563,389.7344 Q553.6563,389.7344 552.3281,388.0938 Q551.0156,386.4375 551.0156,383.3125 Q551.0156,380.1875 552.3281,378.5313 Q553.6563,376.875 556.1563,376.875 Q556.8594,376.875 557.5,377.0313 Q558.1563,377.1875 558.7188,377.4844 L558.7188,380.2031 Q558.0938,379.625 557.5,379.3594 Q556.9063,379.0781 556.2813,379.0781 Q554.9375,379.0781 554.25,380.1563 Q553.5625,381.2188 553.5625,383.3125 Q553.5625,385.4063 554.25,386.4844 Q554.9375,387.5469 556.2813,387.5469 Q556.9063,387.5469 557.5,387.2813 Q558.0938,387 558.7188,386.4219 L558.7188,389.1406 Z " fill="#000000"/><text fill="#000000" font-family="sans-serif" font-size="14" lengthAdjust="spacing" textLength="93" x="576.25" y="388.932">ObjetoGr&#225;fico</text><line style="stroke:#181818;stroke-width:0.5;" x1="500.5" x2="712.5" y1="399.5" y2="399.5"/><rect fill="none" height="6" style="stroke:#C82930;stroke-width:1.0;" width="6" x="507.5" y="411.534"/><text fill="#000000" font-family="sans-serif" font-size="14" lengthAdjust="spacing" textLength="26" x="519.5" y="418.4659">tipo</text><rect fill="none" height="6" style="stroke:#C82930;stroke-width:1.0;" width="6" x="507.5" y="430.6019"/><text fill="#000000" font-family="sans-serif" font-size="14" lengthAdjust="spacing" textLength="188" x="519.5" y="437.5339">datosAsociados : Celda[0..*]</text><line style="stroke:#181818;stroke-width:0.5;" x1="500.5" x2="712.5" y1="445.6358" y2="445.6358"/></g><!--class Validaci?nDatos--><g id="elem_Validaci&#243;nDatos"><rect codeLine="60" fill="#F1F1F1" height="86.1358" id="Validaci&#243;nDatos" rx="2.5" ry="2.5" style="stroke:#181818;stroke-width:0.5;" width="139" x="650" y="792.5"/><ellipse cx="665" cy="808.5" fill="#ADD1B2" rx="11" ry="11" style="stroke:#181818;stroke-width:1.0;"/><path d="M667.9688,814.1406 Q667.3906,814.4375 666.75,814.5781 Q666.1094,814.7344 665.4063,814.7344 Q662.9063,814.7344 661.5781,813.0938 Q660.2656,811.4375 660.2656,808.3125 Q660.2656,805.1875 661.5781,803.5313 Q662.9063,801.875 665.4063,801.875 Q666.1094,801.875 666.75,802.0313 Q667.4063,802.1875 667.9688,802.4844 L667.9688,805.2031 Q667.3438,804.625 666.75,804.3594 Q666.1563,804.0781 665.5313,804.0781 Q664.1875,804.0781 663.5,805.1563 Q662.8125,806.2188 662.8125,808.3125 Q662.8125,810.4063 663.5,811.4844 Q664.1875,812.5469 665.5313,812.5469 Q666.1563,812.5469 666.75,812.2813 Q667.3438,812 667.9688,811.4219 L667.9688,814.1406 Z " fill="#000000"/><text fill="#000000" font-family="sans-serif" font-size="14" lengthAdjust="spacing" textLength="107" x="679" y="813.932">Validaci&#243;nDatos</text><line style="stroke:#181818;stroke-width:0.5;" x1="651" x2="788" y1="824.5" y2="824.5"/><rect fill="none" height="6" style="stroke:#C82930;stroke-width:1.0;" width="6" x="658" y="836.534"/><text fill="#000000" font-family="sans-serif" font-size="14" lengthAdjust="spacing" textLength="95" x="670" y="843.4659">tipoValidaci&#243;n</text><rect fill="none" height="6" style="stroke:#C82930;stroke-width:1.0;" width="6" x="658" y="855.6019"/><text fill="#000000" font-family="sans-serif" font-size="14" lengthAdjust="spacing" textLength="55" x="670" y="862.5339">criterios</text><line style="stroke:#181818;stroke-width:0.5;" x1="651" x2="788" y1="870.6358" y2="870.6358"/></g><!--reverse link LibroDeTrabajo to HojaDeTrabajo--><g id="link_LibroDeTrabajo_HojaDeTrabajo"><path codeLine="65" d="M251.5,114.63 C251.5,139.76 251.5,162.98 251.5,191.91 " fill="none" id="LibroDeTrabajo-backto-HojaDeTrabajo" style="stroke:#181818;stroke-width:1.0;"/><polygon fill="none" points="251.5,102.63,247.5,108.63,251.5,114.63,255.5,108.63,251.5,102.63" style="stroke:#181818;stroke-width:1.0;"/><text fill="#000000" font-family="sans-serif" font-size="13" lengthAdjust="spacing" textLength="7" x="243.8547" y="124.3536">1</text><text fill="#000000" font-family="sans-serif" font-size="13" lengthAdjust="spacing" textLength="20" x="230.0938" y="180.2515">1..*</text></g><!--reverse link HojaDeTrabajo to Celda--><g id="link_HojaDeTrabajo_Celda"><path codeLine="66" d="M247.5998,309.0843 C246.2098,354.1243 248.69,408.61 267.5,463 C277.01,490.52 292.52,517.8 308.82,541.79 " fill="none" id="HojaDeTrabajo-backto-Celda" style="stroke:#181818;stroke-width:1.0;"/><polygon fill="none" points="247.97,297.09,243.7868,302.9638,247.5998,309.0843,251.783,303.2105,247.97,297.09" style="stroke:#181818;stroke-width:1.0;"/><text fill="#000000" font-family="sans-serif" font-size="13" lengthAdjust="spacing" textLength="7" x="240.0253" y="319.2297">1</text><text fill="#000000" font-family="sans-serif" font-size="13" lengthAdjust="spacing" textLength="20" x="281.6068" y="530.1508">0..*</text></g><!--reverse link HojaDeTrabajo to Rango--><g id="link_HojaDeTrabajo_Rango"><path codeLine="67" d="M297.6208,306.9894 C312.1208,326.3194 321.36,338.65 335.84,357.95 " fill="none" id="HojaDeTrabajo-backto-Rango" style="stroke:#181818;stroke-width:1.0;"/><polygon fill="none" points="290.42,297.39,290.8206,304.59,297.6208,306.9894,297.2202,299.7894,290.42,297.39" style="stroke:#181818;stroke-width:1.0;"/><text fill="#000000" font-family="sans-serif" font-size="13" lengthAdjust="spacing" textLength="7" x="287.9582" y="319.1848">1</text><text fill="#000000" font-family="sans-serif" font-size="13" lengthAdjust="spacing" textLength="20" x="308.9972" y="346.2972">0..*</text></g><!--link Celda to F?rmula--><g id="link_Celda_F&#243;rmula"><path codeLine="68" d="M278.49,661.78 C242.92,679.49 204.48,703.5 176.5,734 C161.38,750.48 152.7499,767.2584 145.5899,786.7384 " fill="none" id="Celda-to-F&#243;rmula" style="stroke:#181818;stroke-width:1.0;"/><polygon fill="#181818" points="143.52,792.37,150.3793,785.3025,145.245,787.677,142.8705,782.5426,143.52,792.37" style="stroke:#181818;stroke-width:1.0;"/><text fill="#000000" font-family="sans-serif" font-size="13" lengthAdjust="spacing" textLength="20" x="250.3736" y="661.0068">0..1</text><text fill="#000000" font-family="sans-serif" font-size="13" lengthAdjust="spacing" textLength="20" x="123.8546" y="780.763">0..1</text></g><!--link F?rmula to Celda--><g id="link_F&#243;rmula_Celda"><path codeLine="72" d="M178.28,792.43 C198.54,774.33 222.59,753.01 244.5,734 C255.67,724.31 262.8651,718.1038 274.5651,708.1238 " fill="none" id="F&#243;rmula-to-Celda" style="stroke:#181818;stroke-width:1.0;"/><polygon fill="#181818" points="279.13,704.23,269.6868,707.0275,275.3259,707.4748,274.8785,713.114,279.13,704.23" style="stroke:#181818;stroke-width:1.0;"/><text fill="#000000" font-family="sans-serif" font-size="13" lengthAdjust="spacing" textLength="120" x="245.5" y="748.897">celdasReferenciadas</text><text fill="#000000" font-family="sans-serif" font-size="13" lengthAdjust="spacing" textLength="7" x="178.4483" y="780.833">1</text><text fill="#000000" font-family="sans-serif" font-size="13" lengthAdjust="spacing" textLength="20" x="250.404" y="725.5701">0..*</text></g><!--link Celda to Comentario--><g id="link_Celda_Comentario"><path codeLine="69" d="M442.68,704.18 C465.11,730.56 485.5429,754.5894 505.6729,778.2594 " fill="none" id="Celda-to-Comentario" style="stroke:#181818;stroke-width:1.0;"/><polygon fill="#181818" points="509.56,782.83,506.7765,773.3827,506.3208,779.0211,500.6823,778.5654,509.56,782.83" style="stroke:#181818;stroke-width:1.0;"/><text fill="#000000" font-family="sans-serif" font-size="13" lengthAdjust="spacing" textLength="20" x="428.0435" y="726.3581">0..1</text><text fill="#000000" font-family="sans-serif" font-size="13" lengthAdjust="spacing" textLength="20" x="481.9747" y="771.1603">0..1</text></g><!--link Celda to Formato--><g id="link_Celda_Formato"><path codeLine="70" d="M374.5,704.18 C374.5,738.11 374.5,769.72 374.5,795.79 " fill="none" id="Celda-to-Formato" style="stroke:#181818;stroke-width:1.0;"/><polygon fill="#181818" points="374.5,801.79,378.5,792.79,374.5,796.79,370.5,792.79,374.5,801.79" style="stroke:#181818;stroke-width:1.0;"/><text fill="#000000" font-family="sans-serif" font-size="13" lengthAdjust="spacing" textLength="7" x="367.1773" y="726.3581">1</text><text fill="#000000" font-family="sans-serif" font-size="13" lengthAdjust="spacing" textLength="20" x="352.4375" y="790.047">0..1</text></g><!--link Celda to Validaci?nDatos--><g id="link_Celda_Validaci&#243;nDatos"><path codeLine="71" d="M470.6,682.64 C527.72,717.49 593.7281,757.765 645.3081,789.235 " fill="none" id="Celda-to-Validaci&#243;nDatos" style="stroke:#181818;stroke-width:1.0;"/><polygon fill="#181818" points="650.43,792.36,644.8304,784.2579,646.1617,789.7558,640.6637,791.0871,650.43,792.36" style="stroke:#181818;stroke-width:1.0;"/><text fill="#000000" font-family="sans-serif" font-size="13" lengthAdjust="spacing" textLength="7" x="478.5369" y="683.6241">1</text><text fill="#000000" font-family="sans-serif" font-size="13" lengthAdjust="spacing" textLength="20" x="621.7817" y="783.6401">0..1</text></g><!--reverse link Rango to Celda--><g id="link_Rango_Celda"><path codeLine="73" d="M374.5,475.26 C374.5,498.88 374.5,515.39 374.5,541.69 " fill="none" id="Rango-backto-Celda" style="stroke:#181818;stroke-width:1.0;"/><polygon fill="none" points="374.5,463.26,370.5,469.26,374.5,475.26,378.5,469.26,374.5,463.26" style="stroke:#181818;stroke-width:1.0;"/><text fill="#000000" font-family="sans-serif" font-size="13" lengthAdjust="spacing" textLength="7" x="367.0516" y="485.0381">1</text><text fill="#000000" font-family="sans-serif" font-size="13" lengthAdjust="spacing" textLength="20" x="353.5781" y="530.3214">1..*</text></g><!--link ObjetoGr?fico to Celda--><g id="link_ObjetoGr&#225;fico_Celda"><path codeLine="74" d="M560.11,453.59 C532.34,478.79 500.574,507.6187 467.514,537.6087 " fill="none" id="ObjetoGr&#225;fico-to-Celda" style="stroke:#181818;stroke-width:1.0;"/><polygon fill="#181818" points="463.07,541.64,472.4235,538.5557,466.7733,538.2806,467.0484,532.6304,463.07,541.64" style="stroke:#181818;stroke-width:1.0;"/><text fill="#000000" font-family="sans-serif" font-size="13" lengthAdjust="spacing" textLength="94" x="511.5" y="507.897">datosAsociados</text><text fill="#000000" font-family="sans-serif" font-size="13" lengthAdjust="spacing" textLength="7" x="545.4706" y="475.4304">1</text><text fill="#000000" font-family="sans-serif" font-size="13" lengthAdjust="spacing" textLength="20" x="450.3132" y="530.2668">0..*</text></g><!--SRC=[VLDBQiCm4Dtx52RBWaEopQ9GykkYK0WXczB5n9uq2hOcZ6m8b1wc1-WgHyZ5gdziDwatdj4RFUdD6-KbA9M-Y2tJ3DSCMpXG-fca-ilIFHr0fPFqMVyZ-ZOQ3X_UawyaoUtU3XYtIggsZ3x9iImiqTG4di113FA33BGoGP_RraVE8ocHYyjP1bgIDKfHaCztn1NKfCaMBWhhbpDNJGa6y65ag53MmC9iciR4ewXgA0moju6zZBaRogPgh_aBRY2__3ZcAScPFb-5f7EipkVCn5UP0OvAyNHaL6sfjeCht26Zp0NyRMSaiusyxKCjZkJWIReEyMsFne7KYet5ddU94XbA6oz4r5KsbOIMBEz7z8_fAB200jL6g0PAL2shhrQ4UcXgtIL_TJnT_SHy3rD6SCCGALwt1wnfoPVldSYlD4Qr3mjZofCYqq6wsy4DbA9mvDR53bCB39rZKQE-jnNJUqc3yI2bBDD_VSIW-rQIxik9fIDRwgRjtn9ddnj1iwJHB7iCOPovUmMjUVSbFGB_Y6w2_HubSORRXK67xlID2KxSIFLwv8JtlBn3slKp-GK0]--></g></svg>