<?xml version="1.0" encoding="us-ascii" standalone="no"?><svg xmlns="http://www.w3.org/2000/svg" xmlns:xlink="http://www.w3.org/1999/xlink" contentStyleType="text/css" height="530px" preserveAspectRatio="none" style="width:670px;height:530px;background:#FFFFFF;" version="1.1" viewBox="0 0 670 530" width="670px" zoomAndPan="magnify"><defs/><g><ellipse cx="300.94" cy="16" fill="#222222" rx="10" ry="10" style="stroke:#222222;stroke-width:1.0;"/><g id="Vac&#237;a"><rect fill="#F1F1F1" height="50" rx="12.5" ry="12.5" style="stroke:#181818;stroke-width:0.5;" width="55" x="273.44" y="87"/><line style="stroke:#181818;stroke-width:0.5;" x1="273.44" x2="328.44" y1="116.0679" y2="116.0679"/><text fill="#000000" font-family="sans-serif" font-size="14" lengthAdjust="spacing" textLength="35" x="283.44" y="106.9659">Vac&#237;a</text></g><g id="ConDatos"><rect fill="#F1F1F1" height="50" rx="12.5" ry="12.5" style="stroke:#181818;stroke-width:0.5;" width="84" x="64.94" y="216"/><line style="stroke:#181818;stroke-width:0.5;" x1="64.94" x2="148.94" y1="245.0679" y2="245.0679"/><text fill="#000000" font-family="sans-serif" font-size="14" lengthAdjust="spacing" textLength="64" x="74.94" y="235.9659">ConDatos</text></g><g id="ConF&#243;rmula"><rect fill="#F1F1F1" height="50" rx="12.5" ry="12.5" style="stroke:#181818;stroke-width:0.5;" width="101" x="250.44" y="345"/><line style="stroke:#181818;stroke-width:0.5;" x1="250.44" x2="351.44" y1="374.0679" y2="374.0679"/><text fill="#000000" font-family="sans-serif" font-size="14" lengthAdjust="spacing" textLength="81" x="260.44" y="364.9659">ConF&#243;rmula</text></g><g id="ConError"><rect fill="#F1F1F1" height="50" rx="12.5" ry="12.5" style="stroke:#181818;stroke-width:0.5;" width="80" x="394.94" y="474"/><line style="stroke:#181818;stroke-width:0.5;" x1="394.94" x2="474.94" y1="503.0679" y2="503.0679"/><text fill="#000000" font-family="sans-serif" font-size="14" lengthAdjust="spacing" textLength="60" x="404.94" y="493.9659">ConError</text></g><!--link *start* to Vac?a--><g id="link_*start*_Vac&#237;a"><path d="M300.94,26.01 C300.94,39.89 300.94,60.97 300.94,80.84 " fill="none" id="*start*-to-Vac&#237;a" style="stroke:#181818;stroke-width:1.0;"/><polygon fill="#181818" points="300.94,86.84,304.94,77.84,300.94,81.84,296.94,77.84,300.94,86.84" style="stroke:#181818;stroke-width:1.0;"/></g><!--link Vac?a to ConDatos--><g id="link_Vac&#237;a_ConDatos"><path d="M273.34,114.51 C212.7,118.45 70.91,131.36 41.94,167 C28.13,183.99 39.8437,198.9222 59.7237,213.0022 " fill="none" id="Vac&#237;a-to-ConDatos" style="stroke:#181818;stroke-width:1.0;"/><polygon fill="#181818" points="64.62,216.47,59.5874,208.004,60.5397,213.5801,54.9636,214.5325,64.62,216.47" style="stroke:#181818;stroke-width:1.0;"/><text fill="#000000" font-family="sans-serif" font-size="13" lengthAdjust="spacing" textLength="87" x="42.94" y="181.897">Ingresar datos</text></g><!--link ConDatos to Vac?a--><g id="link_ConDatos_Vac&#237;a"><path d="M123.67,215.73 C135.42,200.13 152.31,180.36 170.94,167 C202.71,144.21 239.8054,130.5421 267.4654,122.2021 " fill="none" id="ConDatos-to-Vac&#237;a" style="stroke:#181818;stroke-width:1.0;"/><polygon fill="#181818" points="273.21,120.47,263.4384,119.2384,268.4229,121.9134,265.7479,126.8978,273.21,120.47" style="stroke:#181818;stroke-width:1.0;"/><text fill="#000000" font-family="sans-serif" font-size="13" lengthAdjust="spacing" textLength="102" x="171.94" y="181.897">Borrar contenido</text></g><!--link Vac?a to ConF?rmula--><g id="link_Vac&#237;a_ConF&#243;rmula"><path d="M300.94,137.08 C300.94,185.88 300.94,289.9 300.94,338.79 " fill="none" id="Vac&#237;a-to-ConF&#243;rmula" style="stroke:#181818;stroke-width:1.0;"/><polygon fill="#181818" points="300.94,344.79,304.94,335.79,300.94,339.79,296.94,335.79,300.94,344.79" style="stroke:#181818;stroke-width:1.0;"/><text fill="#000000" font-family="sans-serif" font-size="13" lengthAdjust="spacing" textLength="100" x="301.94" y="246.397">Ingresar f&#243;rmula</text></g><!--link ConF?rmula to Vac?a--><g id="link_ConF&#243;rmula_Vac&#237;a"><path d="M340.08,344.83 C365.51,326.67 396.52,299.24 410.94,266 C419.78,245.61 419.78,236.39 410.94,216 C394.29,177.59 360.4955,150.2531 333.7355,132.6831 " fill="none" id="ConF&#243;rmula-to-Vac&#237;a" style="stroke:#181818;stroke-width:1.0;"/><polygon fill="#181818" points="328.72,129.39,334.0479,137.6733,332.8996,132.1342,338.4387,130.9859,328.72,129.39" style="stroke:#181818;stroke-width:1.0;"/><text fill="#000000" font-family="sans-serif" font-size="13" lengthAdjust="spacing" textLength="102" x="417.94" y="246.397">Borrar contenido</text></g><!--link ConDatos to ConF?rmula--><g id="link_ConDatos_ConF&#243;rmula"><path d="M64.86,258.59 C36.03,272.39 6,293.23 23.94,315 C52.06,349.13 172.2423,361.5965 244.2223,366.2065 " fill="none" id="ConDatos-to-ConF&#243;rmula" style="stroke:#181818;stroke-width:1.0;"/><polygon fill="#181818" points="250.21,366.59,241.4841,362.0229,245.2202,366.2704,240.9727,370.0066,250.21,366.59" style="stroke:#181818;stroke-width:1.0;"/><text fill="#000000" font-family="sans-serif" font-size="13" lengthAdjust="spacing" textLength="100" x="24.94" y="310.897">Ingresar f&#243;rmula</text></g><!--link ConF?rmula to ConDatos--><g id="link_ConF&#243;rmula_ConDatos"><path d="M250.36,355.56 C223.58,346.84 191.12,333.59 165.94,315 C147.98,301.74 135.7068,286.7364 125.0568,271.0264 " fill="none" id="ConF&#243;rmula-to-ConDatos" style="stroke:#181818;stroke-width:1.0;"/><polygon fill="#181818" points="121.69,266.06,123.4292,275.7541,124.4956,270.1986,130.0511,271.2651,121.69,266.06" style="stroke:#181818;stroke-width:1.0;"/><text fill="#000000" font-family="sans-serif" font-size="13" lengthAdjust="spacing" textLength="107" x="166.94" y="310.897">Convertir en valor</text></g><!--link ConF?rmula to ConError--><g id="link_ConF&#243;rmula_ConError"><path d="M293.1,395.02 C289.66,410.32 288.3,429.84 297.94,444 C319.45,475.6 356.6441,487.6987 388.7841,493.1387 " fill="none" id="ConF&#243;rmula-to-ConError" style="stroke:#181818;stroke-width:1.0;"/><polygon fill="#181818" points="394.7,494.14,386.4938,488.6941,389.7701,493.3056,385.1587,496.5819,394.7,494.14" style="stroke:#181818;stroke-width:1.0;"/><text fill="#000000" font-family="sans-serif" font-size="13" lengthAdjust="spacing" textLength="92" x="298.94" y="439.897">Error en c&#225;lculo</text></g><!--link ConError to ConF?rmula--><g id="link_ConError_ConF&#243;rmula"><path d="M426.11,473.8 C419.58,458.44 409.47,438.9 395.94,425 C383.36,412.09 372.3141,404.1908 356.7541,395.7508 " fill="none" id="ConError-to-ConF&#243;rmula" style="stroke:#181818;stroke-width:1.0;"/><polygon fill="#181818" points="351.48,392.89,357.484,400.6972,355.8751,395.274,361.2983,393.6651,351.48,392.89" style="stroke:#181818;stroke-width:1.0;"/><text fill="#000000" font-family="sans-serif" font-size="13" lengthAdjust="spacing" textLength="99" x="409.94" y="439.897">Corregir f&#243;rmula</text></g><!--link ConError to Vac?a--><g id="link_ConError_Vac&#237;a"><path d="M474.97,481.75 C491.14,473.05 508.24,460.63 517.94,444 C590.28,319.92 553.72,254.38 528.94,216 C483.83,146.12 384.5601,123.9959 334.4201,116.8559 " fill="none" id="ConError-to-Vac&#237;a" style="stroke:#181818;stroke-width:1.0;"/><polygon fill="#181818" points="328.48,116.01,336.8262,121.2389,333.4301,116.7149,337.954,113.3188,328.48,116.01" style="stroke:#181818;stroke-width:1.0;"/><text fill="#000000" font-family="sans-serif" font-size="13" lengthAdjust="spacing" textLength="102" x="560.94" y="310.897">Borrar contenido</text></g><!--SRC=[YzQALT3LjLC8Iqm-l3QHYmj2WuMSy_DS4aloYnMi53ppqejIYnEB55900cYAt0vlBiejpKb4LfS65UFYWfk2i0Meq2c_g0YeB3a_hoGrBpCb7rKPCOR25H0q5qKbaEzQL9HV15GBeLFp598FByn9Bit1gXWM0a1cMMfHIIPOGrbYJduHs1KGCmWw0Q4CrMlEGBMfwPb8NWC0]--></g></svg>