<?xml version="1.0" encoding="us-ascii" standalone="no"?><svg xmlns="http://www.w3.org/2000/svg" xmlns:xlink="http://www.w3.org/1999/xlink" contentStyleType="text/css" height="398px" preserveAspectRatio="none" style="width:439px;height:398px;background:#FFFFFF;" version="1.1" viewBox="0 0 439 398" width="439px" zoomAndPan="magnify"><defs/><g><!--class LibroDeTrabajo--><g id="elem_LibroDeTrabajo"><rect fill="#F1F1F1" height="29.0679" id="LibroDeTrabajo" rx="2.5" ry="2.5" style="stroke:#181818;stroke-width:0.5;" width="109" x="52" y="7"/><text fill="#000000" font-family="sans-serif" font-size="14" lengthAdjust="spacing" textLength="103" x="55" y="26.9659">LibroDeTrabajo</text></g><!--class HojaDeTrabajo--><g id="elem_HojaDeTrabajo"><rect fill="#F1F1F1" height="29.0679" id="HojaDeTrabajo" rx="2.5" ry="2.5" style="stroke:#181818;stroke-width:0.5;" width="105" x="54" y="96"/><text fill="#000000" font-family="sans-serif" font-size="14" lengthAdjust="spacing" textLength="99" x="57" y="115.9659">HojaDeTrabajo</text></g><!--class Celda--><g id="elem_Celda"><rect fill="#F1F1F1" height="29.0679" id="Celda" rx="2.5" ry="2.5" style="stroke:#181818;stroke-width:0.5;" width="44" x="123.5" y="274"/><text fill="#000000" font-family="sans-serif" font-size="14" lengthAdjust="spacing" textLength="38" x="126.5" y="293.9659">Celda</text></g><!--class Rango--><g id="elem_Rango"><rect fill="#F1F1F1" height="29.0679" id="Rango" rx="2.5" ry="2.5" style="stroke:#181818;stroke-width:0.5;" width="49" x="121" y="185"/><text fill="#000000" font-family="sans-serif" font-size="14" lengthAdjust="spacing" textLength="43" x="124" y="204.9659">Rango</text></g><!--class F?rmula--><g id="elem_F&#243;rmula"><rect fill="#F1F1F1" height="29.0679" id="F&#243;rmula" rx="2.5" ry="2.5" style="stroke:#181818;stroke-width:0.5;" width="61" x="7" y="363"/><text fill="#000000" font-family="sans-serif" font-size="14" lengthAdjust="spacing" textLength="55" x="10" y="382.9659">F&#243;rmula</text></g><!--class Comentario--><g id="elem_Comentario"><rect fill="#F1F1F1" height="29.0679" id="Comentario" rx="2.5" ry="2.5" style="stroke:#181818;stroke-width:0.5;" width="84" x="103.5" y="363"/><text fill="#000000" font-family="sans-serif" font-size="14" lengthAdjust="spacing" textLength="78" x="106.5" y="382.9659">Comentario</text></g><!--class Formato--><g id="elem_Formato"><rect fill="#F1F1F1" height="29.0679" id="Formato" rx="2.5" ry="2.5" style="stroke:#181818;stroke-width:0.5;" width="61" x="223" y="363"/><text fill="#000000" font-family="sans-serif" font-size="14" lengthAdjust="spacing" textLength="55" x="226" y="382.9659">Formato</text></g><!--class Validaci?nDatos--><g id="elem_Validaci&#243;nDatos"><rect fill="#F1F1F1" height="29.0679" id="Validaci&#243;nDatos" rx="2.5" ry="2.5" style="stroke:#181818;stroke-width:0.5;" width="113" x="319" y="363"/><text fill="#000000" font-family="sans-serif" font-size="14" lengthAdjust="spacing" textLength="107" x="322" y="382.9659">Validaci&#243;nDatos</text></g><!--class ObjetoGr?fico--><g id="elem_ObjetoGr&#225;fico"><rect fill="#F1F1F1" height="29.0679" id="ObjetoGr&#225;fico" rx="2.5" ry="2.5" style="stroke:#181818;stroke-width:0.5;" width="99" x="205" y="185"/><text fill="#000000" font-family="sans-serif" font-size="14" lengthAdjust="spacing" textLength="93" x="208" y="204.9659">ObjetoGr&#225;fico</text></g><!--link LibroDeTrabajo to HojaDeTrabajo--><g id="link_LibroDeTrabajo_HojaDeTrabajo"><path codeLine="5" d="M106.5,36.09 C106.5,52.34 106.5,79.38 106.5,95.71 " fill="none" id="LibroDeTrabajo-HojaDeTrabajo" style="stroke:#181818;stroke-width:1.0;"/></g><!--link HojaDeTrabajo to Celda--><g id="link_HojaDeTrabajo_Celda"><path codeLine="6" d="M103.69,125.05 C100.1,144.94 95.28,183.03 103.5,214 C109.54,236.73 124.43,259.76 134.76,273.83 " fill="none" id="HojaDeTrabajo-Celda" style="stroke:#181818;stroke-width:1.0;"/></g><!--link HojaDeTrabajo to Rango--><g id="link_HojaDeTrabajo_Rango"><path codeLine="7" d="M112.59,125.09 C119.88,141.34 132,168.38 139.32,184.71 " fill="none" id="HojaDeTrabajo-Rango" style="stroke:#181818;stroke-width:1.0;"/></g><!--link Celda to F?rmula--><g id="link_Celda_F&#243;rmula"><path codeLine="8" d="M123.27,300.34 C98.56,316.19 61.7,345.68 44.78,362.94 " fill="none" id="Celda-F&#243;rmula" style="stroke:#181818;stroke-width:1.0;"/></g><!--link F?rmula to Celda--><g id="link_F&#243;rmula_Celda"><path codeLine="12" d="M64.79,362.71 C89.51,346.38 123.06,319.34 138.75,303.09 " fill="none" id="F&#243;rmula-Celda" style="stroke:#181818;stroke-width:1.0;"/></g><!--link Celda to Comentario--><g id="link_Celda_Comentario"><path codeLine="9" d="M145.5,303.09 C145.5,319.34 145.5,346.38 145.5,362.71 " fill="none" id="Celda-Comentario" style="stroke:#181818;stroke-width:1.0;"/></g><!--link Celda to Formato--><g id="link_Celda_Formato"><path codeLine="10" d="M162.38,303.09 C182.55,319.34 216.11,346.38 236.39,362.71 " fill="none" id="Celda-Formato" style="stroke:#181818;stroke-width:1.0;"/></g><!--link Celda to Validaci?nDatos--><g id="link_Celda_Validaci&#243;nDatos"><path codeLine="11" d="M167.55,297.84 C207.36,312.9 291.53,344.74 339.68,362.95 " fill="none" id="Celda-Validaci&#243;nDatos" style="stroke:#181818;stroke-width:1.0;"/></g><!--link Rango to Celda--><g id="link_Rango_Celda"><path codeLine="13" d="M145.5,214.09 C145.5,230.34 145.5,257.38 145.5,273.71 " fill="none" id="Rango-Celda" style="stroke:#181818;stroke-width:1.0;"/></g><!--link ObjetoGr?fico to Celda--><g id="link_ObjetoGr&#225;fico_Celda"><path codeLine="14" d="M237.47,214.09 C217.11,230.34 183.23,257.38 162.77,273.71 " fill="none" id="ObjetoGr&#225;fico-Celda" style="stroke:#181818;stroke-width:1.0;"/></g><!--SRC=[POt13S8m40J_LuKRI1M9W0SI4aBypyv1Bh9zwE8yA8SQKa8Q0mT1Z7Zkp6gtuvOCXLkwcq31aWxGPUHOdIU0FLkLXawA5dinLMLsqkCNm4_AkYRVuZy-OhmAB3B7pJnf63skf9P0CQ5osH8Dc0fmHiyjEfwdsBp409-TBD_N1fQh5S31zfHag_FZmaxAvXC0]--></g></svg>