<?xml version="1.0" encoding="us-ascii" standalone="no"?><svg xmlns="http://www.w3.org/2000/svg" xmlns:xlink="http://www.w3.org/1999/xlink" contentStyleType="text/css" height="897px" preserveAspectRatio="none" style="width:1207px;height:897px;background:#FFFFFF;" version="1.1" viewBox="0 0 1207 897" width="1207px" zoomAndPan="magnify"><defs/><g><ellipse cx="415" cy="16" fill="#222222" rx="10" ry="10" style="stroke:#222222;stroke-width:1.0;"/><g id="Activa"><rect fill="#F1F1F1" height="50" rx="12.5" ry="12.5" style="stroke:#181818;stroke-width:0.5;" width="60" x="385" y="105"/><line style="stroke:#181818;stroke-width:0.5;" x1="385" x2="445" y1="134.0679" y2="134.0679"/><text fill="#000000" font-family="sans-serif" font-size="14" lengthAdjust="spacing" textLength="40" x="395" y="124.9659">Activa</text></g><g id="Inactiva"><rect fill="#F1F1F1" height="50" rx="12.5" ry="12.5" style="stroke:#181818;stroke-width:0.5;" width="73" x="546.5" y="296"/><line style="stroke:#181818;stroke-width:0.5;" x1="546.5" x2="619.5" y1="325.0679" y2="325.0679"/><text fill="#000000" font-family="sans-serif" font-size="14" lengthAdjust="spacing" textLength="53" x="556.5" y="315.9659">Inactiva</text></g><g id="Protegida"><rect fill="#F1F1F1" height="50" rx="12.5" ry="12.5" style="stroke:#181818;stroke-width:0.5;" width="85" x="725.5" y="487"/><line style="stroke:#181818;stroke-width:0.5;" x1="725.5" x2="810.5" y1="516.0679" y2="516.0679"/><text fill="#000000" font-family="sans-serif" font-size="14" lengthAdjust="spacing" textLength="65" x="735.5" y="506.9659">Protegida</text></g><g id="Oculta"><rect fill="#F1F1F1" height="50" rx="12.5" ry="12.5" style="stroke:#181818;stroke-width:0.5;" width="64" x="404" y="678"/><line style="stroke:#181818;stroke-width:0.5;" x1="404" x2="468" y1="707.0679" y2="707.0679"/><text fill="#000000" font-family="sans-serif" font-size="14" lengthAdjust="spacing" textLength="44" x="414" y="697.9659">Oculta</text></g><ellipse cx="719" cy="880" fill="none" rx="11" ry="11" style="stroke:#222222;stroke-width:1.0;"/><ellipse cx="719" cy="880" fill="#222222" rx="6" ry="6" style="stroke:#222222;stroke-width:1.0;"/><!--link *start* to Activa--><g id="link_*start*_Activa"><path d="M415,26.17 C415,43.2 415,74.23 415,98.89 " fill="none" id="*start*-to-Activa" style="stroke:#181818;stroke-width:1.0;"/><polygon fill="#181818" points="415,104.89,419,95.89,415,99.89,411,95.89,415,104.89" style="stroke:#181818;stroke-width:1.0;"/><text fill="#000000" font-family="sans-serif" font-size="13" lengthAdjust="spacing" textLength="61" x="416" y="70.897">Crear hoja</text></g><!--link Inactiva to Activa--><g id="link_Inactiva_Activa"><path d="M546.22,307.07 C514,293.87 468.33,270.28 442,235 C424.48,211.53 418.8727,183.7026 416.7027,161.0726 " fill="none" id="Inactiva-to-Activa" style="stroke:#181818;stroke-width:1.0;"/><polygon fill="#181818" points="416.13,155.1,413.0073,164.4407,416.6073,160.0772,420.9708,163.6771,416.13,155.1" style="stroke:#181818;stroke-width:1.0;"/><text fill="#000000" font-family="sans-serif" font-size="13" lengthAdjust="spacing" textLength="96" x="443" y="230.897">Seleccionar hoja</text></g><!--link Activa to Inactiva--><g id="link_Activa_Inactiva"><path d="M445.07,144.01 C474.08,157.95 517.4,182.67 544,216 C562.88,239.66 571.918,267.5743 577.138,290.1443 " fill="none" id="Activa-to-Inactiva" style="stroke:#181818;stroke-width:1.0;"/><polygon fill="#181818" points="578.49,295.99,580.3591,286.3201,577.3633,291.1186,572.5649,288.1228,578.49,295.99" style="stroke:#181818;stroke-width:1.0;"/><text fill="#000000" font-family="sans-serif" font-size="13" lengthAdjust="spacing" textLength="124" x="557" y="230.897">Seleccionar otra hoja</text></g><!--link Activa to Protegida--><g id="link_Activa_Protegida"><path d="M445.11,133.15 C556.67,141.5 940,173.87 940,224.5 C940,224.5 940,224.5 940,417.5 C940,476.3 867.3755,497.3876 816.4455,505.4876 " fill="none" id="Activa-to-Protegida" style="stroke:#181818;stroke-width:1.0;"/><polygon fill="#181818" points="810.52,506.43,820.0366,508.9667,815.4579,505.6447,818.78,501.066,810.52,506.43" style="stroke:#181818;stroke-width:1.0;"/><text fill="#000000" font-family="sans-serif" font-size="13" lengthAdjust="spacing" textLength="82" x="941" y="326.397">Proteger hoja</text></g><!--link Protegida to Activa--><g id="link_Protegida_Activa"><path d="M810.62,507.75 C898.98,499.85 1094,475.79 1094,417.5 C1094,224.5 1094,224.5 1094,224.5 C1094,158.01 582.4566,136.5522 451.0466,132.1222 " fill="none" id="Protegida-to-Activa" style="stroke:#181818;stroke-width:1.0;"/><polygon fill="#181818" points="445.05,131.92,453.9101,136.221,450.0472,132.0885,454.1797,128.2255,445.05,131.92" style="stroke:#181818;stroke-width:1.0;"/><text fill="#000000" font-family="sans-serif" font-size="13" lengthAdjust="spacing" textLength="104" x="1095" y="326.397">Desproteger hoja</text></g><!--link Inactiva to Protegida--><g id="link_Inactiva_Protegida"><path d="M596.48,346.37 C609.46,368.58 630.54,401.54 654,426 C676.47,449.43 700.9566,467.8785 724.2966,483.5285 " fill="none" id="Inactiva-to-Protegida" style="stroke:#181818;stroke-width:1.0;"/><polygon fill="#181818" points="729.28,486.87,724.0325,478.5355,725.1272,484.0854,719.5772,485.18,729.28,486.87" style="stroke:#181818;stroke-width:1.0;"/><text fill="#000000" font-family="sans-serif" font-size="13" lengthAdjust="spacing" textLength="82" x="655" y="421.897">Proteger hoja</text></g><!--link Protegida to Inactiva--><g id="link_Protegida_Inactiva"><path d="M767.41,486.71 C765.68,463.94 759.97,430.04 742,407 C711.01,367.26 661.8151,345.7479 625.3351,333.8679 " fill="none" id="Protegida-to-Inactiva" style="stroke:#181818;stroke-width:1.0;"/><polygon fill="#181818" points="619.63,332.01,626.949,338.6003,624.3843,333.5583,629.4263,330.9935,619.63,332.01" style="stroke:#181818;stroke-width:1.0;"/><text fill="#000000" font-family="sans-serif" font-size="13" lengthAdjust="spacing" textLength="104" x="754" y="421.897">Desproteger hoja</text></g><!--link Activa to Oculta--><g id="link_Activa_Oculta"><path d="M384.83,134.67 C313.04,144.24 138,172.86 138,224.5 C138,224.5 138,224.5 138,608.5 C138,663.74 320.8064,689.6199 397.8664,698.1499 " fill="none" id="Activa-to-Oculta" style="stroke:#181818;stroke-width:1.0;"/><polygon fill="#181818" points="403.83,698.81,395.3247,693.8441,398.8604,698.2599,394.4446,701.7955,403.83,698.81" style="stroke:#181818;stroke-width:1.0;"/><text fill="#000000" font-family="sans-serif" font-size="13" lengthAdjust="spacing" textLength="73" x="139" y="421.897">Ocultar hoja</text></g><!--link Oculta to Activa--><g id="link_Oculta_Activa"><path d="M403.93,697.06 C359.06,688.13 283,664.69 283,608.5 C283,224.5 283,224.5 283,224.5 C283,174.93 339.9819,150.9218 378.9519,139.7618 " fill="none" id="Oculta-to-Activa" style="stroke:#181818;stroke-width:1.0;"/><polygon fill="#181818" points="384.72,138.11,374.9666,136.7423,379.9132,139.4865,377.169,144.4332,384.72,138.11" style="stroke:#181818;stroke-width:1.0;"/><text fill="#000000" font-family="sans-serif" font-size="13" lengthAdjust="spacing" textLength="130" x="284" y="421.897">Mostrar y activar hoja</text></g><!--link Inactiva to Oculta--><g id="link_Inactiva_Oculta"><path d="M573.69,346.06 C547.25,414.42 474.0347,603.6741 447.5247,672.2041 " fill="none" id="Inactiva-to-Oculta" style="stroke:#181818;stroke-width:1.0;"/><polygon fill="#181818" points="445.36,677.8,452.3377,670.8493,447.1639,673.1368,444.8765,667.963,445.36,677.8" style="stroke:#181818;stroke-width:1.0;"/><text fill="#000000" font-family="sans-serif" font-size="13" lengthAdjust="spacing" textLength="73" x="519" y="517.397">Ocultar hoja</text></g><!--link Oculta to Inactiva--><g id="link_Oculta_Inactiva"><path d="M426.05,677.98 C410.66,637.03 385.58,551.83 413,487 C440,423.17 500.1196,375.211 541.4696,347.611 " fill="none" id="Oculta-to-Inactiva" style="stroke:#181818;stroke-width:1.0;"/><polygon fill="#181818" points="546.46,344.28,536.7537,345.9495,542.3013,347.0558,541.195,352.6034,546.46,344.28" style="stroke:#181818;stroke-width:1.0;"/><text fill="#000000" font-family="sans-serif" font-size="13" lengthAdjust="spacing" textLength="77" x="414" y="517.397">Mostrar hoja</text></g><!--link Protegida to Oculta--><g id="link_Protegida_Oculta"><path d="M736.71,537.1 C698.39,565.91 630.8,614.42 568,648 C535.14,665.57 500.9329,679.111 473.6729,688.961 " fill="none" id="Protegida-to-Oculta" style="stroke:#181818;stroke-width:1.0;"/><polygon fill="#181818" points="468.03,691,477.8537,691.7035,472.7324,689.3008,475.1351,684.1796,468.03,691" style="stroke:#181818;stroke-width:1.0;"/><text fill="#000000" font-family="sans-serif" font-size="13" lengthAdjust="spacing" textLength="73" x="650" y="612.897">Ocultar hoja</text></g><!--link Activa to *end*--><g id="link_Activa_*end*"><path d="M384.93,131.45 C290.47,133.65 6,146.74 6,224.5 C6,224.5 6,224.5 6,799.5 C6,873.3 611.0901,878.5649 701.8001,878.9449 " fill="none" id="Activa-to-*end*" style="stroke:#181818;stroke-width:1.0;"/><polygon fill="#181818" points="707.8,878.97,698.8168,874.9323,702.8,878.9491,698.7833,882.9323,707.8,878.97" style="stroke:#181818;stroke-width:1.0;"/><text fill="#000000" font-family="sans-serif" font-size="13" lengthAdjust="spacing" textLength="77" x="7" y="517.397">Eliminar hoja</text></g><!--link Inactiva to *end*--><g id="link_Inactiva_*end*"><path d="M619.86,322.24 C723.68,323.91 1011,335.73 1011,415.5 C1011,415.5 1011,415.5 1011,799.5 C1011,858.87 789.4202,875.0264 736.0802,878.0864 " fill="none" id="Inactiva-to-*end*" style="stroke:#181818;stroke-width:1.0;"/><polygon fill="#181818" points="730.09,878.43,739.3043,881.908,735.0818,878.1436,738.8461,873.9211,730.09,878.43" style="stroke:#181818;stroke-width:1.0;"/><text fill="#000000" font-family="sans-serif" font-size="13" lengthAdjust="spacing" textLength="77" x="1012" y="612.897">Eliminar hoja</text></g><!--link Protegida to *end*--><g id="link_Protegida_*end*"><path d="M765.59,537.19 C763.92,556.05 762,582.91 762,606.5 C762,606.5 762,606.5 762,799.5 C762,829 742.8791,853.6407 730.5591,866.9907 " fill="none" id="Protegida-to-*end*" style="stroke:#181818;stroke-width:1.0;"/><polygon fill="#181818" points="726.49,871.4,735.5332,867.4988,729.8809,867.7256,729.6541,862.0733,726.49,871.4" style="stroke:#181818;stroke-width:1.0;"/><text fill="#000000" font-family="sans-serif" font-size="13" lengthAdjust="spacing" textLength="77" x="763" y="708.397">Eliminar hoja</text></g><!--link Oculta to *end*--><g id="link_Oculta_*end*"><path d="M468.19,723.9 C532.22,763.5 667.517,847.1641 704.707,870.1641 " fill="none" id="Oculta-to-*end*" style="stroke:#181818;stroke-width:1.0;"/><polygon fill="#181818" points="709.81,873.32,704.2595,865.1842,705.5575,870.6901,700.0516,871.9881,709.81,873.32" style="stroke:#181818;stroke-width:1.0;"/><text fill="#000000" font-family="sans-serif" font-size="13" lengthAdjust="spacing" textLength="77" x="604" y="803.897">Eliminar hoja</text></g><!--SRC=[ZP6n2W8n38RtFaLceIzmWr3KmK4K70-7KeDMQYkzAlZstj6gQStW5f8lVpxQVdO0AUUWJB8F3Hqi8ke8vt3HGgozpcrP8NjqQ8mD_WqgGdrsQYwag4igfNSn93pPuuJd6alcTr8VN-9mgy36ykz48lgRIHstvkxIXEMY8FLLdcakyf0exLPg4uRnpGf46TKIJyXBd7m__cy7AsUlrlFg7D68SmWrukOl]--></g></svg>